<ttFont>
    <TTGlyph name="A" xMin="12" yMin="-12" xMax="821" yMax="708">
      <contour>
        <pt x="439" y="310" on="1"/>
        <pt x="265" y="311" on="1"/>
        <pt x="158" y="117" on="0"/>
        <pt x="132" y="75" on="0"/>
        <pt x="120" y="49" on="1"/>
        <pt x="92" y="-12" on="0"/>
        <pt x="74" y="-12" on="1"/>
        <pt x="31" y="-12" on="0"/>
        <pt x="13" y="8" on="1"/>
        <pt x="12" y="10" on="0"/>
        <pt x="12" y="18" on="0"/>
        <pt x="25" y="41" on="0"/>
        <pt x="54" y="81" on="0"/>
        <pt x="59" y="89" on="1"/>
        <pt x="179" y="302" on="0"/>
        <pt x="374" y="633" on="0"/>
        <pt x="401" y="684" on="0"/>
        <pt x="411" y="697" on="1"/>
        <pt x="429" y="708" on="0"/>
        <pt x="476" y="708" on="0"/>
        <pt x="490" y="704" on="0"/>
        <pt x="500" y="693" on="0"/>
        <pt x="505" y="685" on="0"/>
        <pt x="515" y="663" on="0"/>
        <pt x="537" y="615" on="0"/>
        <pt x="657" y="386" on="0"/>
        <pt x="697" y="296" on="0"/>
        <pt x="716" y="252" on="1"/>
        <pt x="756" y="161" on="0"/>
        <pt x="821" y="46" on="0"/>
        <pt x="821" y="28" on="1"/>
        <pt x="821" y="17" on="0"/>
        <pt x="760" y="-12" on="0"/>
        <pt x="748" y="-12" on="1"/>
        <pt x="727" y="-12" on="0"/>
        <pt x="709" y="42" on="1"/>
        <pt x="690" y="80" on="1"/>
        <pt x="671" y="121" on="0"/>
        <pt x="607" y="254" on="0"/>
        <pt x="578" y="313" on="1"/>
        <pt x="555" y="312" on="0"/>
        <pt x="531" y="312" on="1"/>
        <pt x="508" y="310" on="0"/>
      </contour>
      <contour>
        <pt x="303" y="379" on="1"/>
        <pt x="412" y="380" on="1"/>
        <pt x="546" y="380" on="1"/>
        <pt x="536" y="400" on="0"/>
        <pt x="509" y="460" on="0"/>
        <pt x="504" y="469" on="0"/>
        <pt x="494" y="491" on="0"/>
        <pt x="484" y="511" on="0"/>
        <pt x="471" y="539" on="0"/>
        <pt x="459" y="562" on="0"/>
        <pt x="453" y="572" on="1"/>
        <pt x="440" y="595" on="0"/>
        <pt x="430" y="595" on="0"/>
        <pt x="414" y="574" on="0"/>
        <pt x="393" y="540" on="0"/>
        <pt x="384" y="524" on="1"/>
        <pt x="357" y="474" on="0"/>
        <pt x="348" y="460" on="0"/>
        <pt x="335" y="436" on="0"/>
        <pt x="312" y="396" on="0"/>
      </contour>
    </TTGlyph>
    <TTGlyph name="AE" xMin="1" yMin="-12" xMax="974" yMax="702">
      <contour>
        <pt x="906" y="626" on="1"/>
        <pt x="783" y="628" on="1"/>
        <pt x="681" y="628" on="0"/>
        <pt x="641" y="621" on="1"/>
        <pt x="639" y="553" on="0"/>
        <pt x="639" y="411" on="1"/>
        <pt x="810" y="412" on="1"/>
        <pt x="827" y="412" on="1"/>
        <pt x="923" y="412" on="0"/>
        <pt x="923" y="396" on="1"/>
        <pt x="923" y="360" on="0"/>
        <pt x="895" y="338" on="0"/>
        <pt x="862" y="338" on="1"/>
        <pt x="641" y="339" on="1"/>
        <pt x="639" y="164" on="1"/>
        <pt x="639" y="93" on="0"/>
        <pt x="647" y="72" on="0"/>
        <pt x="891" y="72" on="0"/>
        <pt x="917" y="75" on="1"/>
        <pt x="959" y="83" on="1"/>
        <pt x="974" y="83" on="0"/>
        <pt x="974" y="73" on="1"/>
        <pt x="974" y="61" on="0"/>
        <pt x="956" y="10" on="0"/>
        <pt x="951" y="6" on="1"/>
        <pt x="940" y="0" on="0"/>
        <pt x="853" y="0" on="1"/>
        <pt x="608" y="0" on="1"/>
        <pt x="554" y="0" on="0"/>
        <pt x="537" y="15" on="0"/>
        <pt x="537" y="234" on="0"/>
        <pt x="538" y="311" on="1"/>
        <pt x="515" y="310" on="0"/>
        <pt x="463" y="310" on="1"/>
        <pt x="313" y="311" on="1"/>
        <pt x="293" y="311" on="1"/>
        <pt x="218" y="196" on="0"/>
        <pt x="137" y="78" on="1"/>
        <pt x="92" y="-12" on="0"/>
        <pt x="69" y="-12" on="1"/>
        <pt x="51" y="-12" on="0"/>
        <pt x="1" y="2" on="0"/>
        <pt x="1" y="12" on="1"/>
        <pt x="1" y="22" on="0"/>
        <pt x="49" y="82" on="0"/>
        <pt x="62" y="100" on="0"/>
        <pt x="402" y="596" on="0"/>
        <pt x="449" y="666" on="0"/>
        <pt x="489" y="700" on="0"/>
        <pt x="521" y="700" on="1"/>
        <pt x="632" y="699" on="1"/>
        <pt x="668" y="701" on="0"/>
        <pt x="685" y="701" on="1"/>
        <pt x="798" y="702" on="1"/>
        <pt x="844" y="702" on="1"/>
        <pt x="934" y="702" on="0"/>
        <pt x="934" y="683" on="1"/>
        <pt x="930" y="659" on="1"/>
        <pt x="929" y="654" on="0"/>
        <pt x="929" y="641" on="0"/>
        <pt x="928" y="635" on="0"/>
        <pt x="926" y="632" on="1"/>
        <pt x="923" y="626" on="0"/>
      </contour>
      <contour>
        <pt x="339" y="379" on="1"/>
        <pt x="448" y="380" on="1"/>
        <pt x="539" y="377" on="1"/>
        <pt x="541" y="478" on="0"/>
        <pt x="541" y="628" on="0"/>
        <pt x="530" y="628" on="1"/>
        <pt x="520" y="624" on="1"/>
        <pt x="466" y="572" on="0"/>
      </contour>
    </TTGlyph>
    <TTGlyph name="Aacute" xMin="12" yMin="-12" xMax="821" yMax="933">
      <contour>
        <pt x="439" y="310" on="1"/>
        <pt x="265" y="311" on="1"/>
        <pt x="158" y="117" on="0"/>
        <pt x="132" y="75" on="0"/>
        <pt x="120" y="49" on="1"/>
        <pt x="92" y="-12" on="0"/>
        <pt x="74" y="-12" on="1"/>
        <pt x="31" y="-12" on="0"/>
        <pt x="13" y="8" on="1"/>
        <pt x="12" y="10" on="0"/>
        <pt x="12" y="18" on="0"/>
        <pt x="25" y="41" on="0"/>
        <pt x="54" y="81" on="0"/>
        <pt x="59" y="89" on="1"/>
        <pt x="179" y="302" on="0"/>
        <pt x="374" y="633" on="0"/>
        <pt x="401" y="684" on="0"/>
        <pt x="411" y="697" on="1"/>
        <pt x="429" y="708" on="0"/>
        <pt x="476" y="708" on="0"/>
        <pt x="490" y="704" on="0"/>
        <pt x="500" y="693" on="0"/>
        <pt x="505" y="685" on="0"/>
        <pt x="515" y="663" on="0"/>
        <pt x="537" y="615" on="0"/>
        <pt x="657" y="386" on="0"/>
        <pt x="697" y="296" on="0"/>
        <pt x="716" y="252" on="1"/>
        <pt x="756" y="161" on="0"/>
        <pt x="821" y="46" on="0"/>
        <pt x="821" y="28" on="1"/>
        <pt x="821" y="17" on="0"/>
        <pt x="760" y="-12" on="0"/>
        <pt x="748" y="-12" on="1"/>
        <pt x="727" y="-12" on="0"/>
        <pt x="709" y="42" on="1"/>
        <pt x="690" y="80" on="1"/>
        <pt x="671" y="121" on="0"/>
        <pt x="607" y="254" on="0"/>
        <pt x="578" y="313" on="1"/>
        <pt x="555" y="312" on="0"/>
        <pt x="531" y="312" on="1"/>
        <pt x="508" y="310" on="0"/>
      </contour>
      <contour>
        <pt x="303" y="379" on="1"/>
        <pt x="412" y="380" on="1"/>
        <pt x="546" y="380" on="1"/>
        <pt x="536" y="400" on="0"/>
        <pt x="509" y="460" on="0"/>
        <pt x="504" y="469" on="0"/>
        <pt x="494" y="491" on="0"/>
        <pt x="484" y="511" on="0"/>
        <pt x="471" y="539" on="0"/>
        <pt x="459" y="562" on="0"/>
        <pt x="453" y="572" on="1"/>
        <pt x="440" y="595" on="0"/>
        <pt x="430" y="595" on="0"/>
        <pt x="414" y="574" on="0"/>
        <pt x="393" y="540" on="0"/>
        <pt x="384" y="524" on="1"/>
        <pt x="357" y="474" on="0"/>
        <pt x="348" y="460" on="0"/>
        <pt x="335" y="436" on="0"/>
        <pt x="312" y="396" on="0"/>
      </contour>
      <contour>
        <pt x="545" y="868" on="0"/>
        <pt x="491" y="819" on="0"/>
        <pt x="412" y="778" on="0"/>
        <pt x="377" y="778" on="1"/>
        <pt x="366" y="778" on="0"/>
        <pt x="348" y="796" on="0"/>
        <pt x="346" y="812" on="0"/>
        <pt x="363" y="826" on="0"/>
        <pt x="394" y="846" on="0"/>
        <pt x="423" y="868" on="0"/>
        <pt x="459" y="911" on="0"/>
        <pt x="478" y="933" on="0"/>
        <pt x="506" y="933" on="0"/>
        <pt x="545" y="902" on="0"/>
      </contour>
    </TTGlyph>
    <TTGlyph name="Acircumflex" xMin="12" yMin="-12" xMax="821" yMax="926">
      <component glyphName="A" x="0" y="0" flags="0x1004"/>
      <component glyphName="circumflex" x="224" y="268" flags="0x1004"/>
    </TTGlyph>
    <TTGlyph name="Adieresis" xMin="12" yMin="-12" xMax="821" yMax="894">
      <component glyphName="A" x="0" y="0" flags="0x1004"/>
      <component glyphName="dieresis" x="221" y="268" flags="0x1004"/>
    </TTGlyph>
    <TTGlyph name="Agrave" xMin="12" yMin="-12" xMax="821" yMax="933">
      <component glyphName="A" x="0" y="0" flags="0x1004"/>
      <component glyphName="grave" x="249" y="268" flags="0x1004"/>
    </TTGlyph>
    <TTGlyph name="Aring" xMin="12" yMin="-12" xMax="821" yMax="986">
      <contour>
        <pt x="439" y="310" on="1"/>
        <pt x="265" y="311" on="1"/>
        <pt x="158" y="117" on="0"/>
        <pt x="132" y="75" on="0"/>
        <pt x="120" y="49" on="1"/>
        <pt x="92" y="-12" on="0"/>
        <pt x="74" y="-12" on="1"/>
        <pt x="31" y="-12" on="0"/>
        <pt x="13" y="8" on="1"/>
        <pt x="12" y="10" on="0"/>
        <pt x="12" y="18" on="0"/>
        <pt x="25" y="41" on="0"/>
        <pt x="54" y="81" on="0"/>
        <pt x="59" y="89" on="1"/>
        <pt x="179" y="302" on="0"/>
        <pt x="374" y="633" on="0"/>
        <pt x="401" y="684" on="0"/>
        <pt x="411" y="697" on="1"/>
        <pt x="429" y="708" on="0"/>
        <pt x="476" y="708" on="0"/>
        <pt x="490" y="704" on="0"/>
        <pt x="500" y="693" on="0"/>
        <pt x="505" y="685" on="0"/>
        <pt x="515" y="663" on="0"/>
        <pt x="537" y="615" on="0"/>
        <pt x="657" y="386" on="0"/>
        <pt x="697" y="296" on="0"/>
        <pt x="716" y="252" on="1"/>
        <pt x="756" y="161" on="0"/>
        <pt x="821" y="46" on="0"/>
        <pt x="821" y="28" on="1"/>
        <pt x="821" y="17" on="0"/>
        <pt x="760" y="-12" on="0"/>
        <pt x="748" y="-12" on="1"/>
        <pt x="727" y="-12" on="0"/>
        <pt x="709" y="42" on="1"/>
        <pt x="690" y="80" on="1"/>
        <pt x="671" y="121" on="0"/>
        <pt x="607" y="254" on="0"/>
        <pt x="578" y="313" on="1"/>
        <pt x="555" y="312" on="0"/>
        <pt x="531" y="312" on="1"/>
        <pt x="508" y="310" on="0"/>
      </contour>
      <contour>
        <pt x="303" y="379" on="1"/>
        <pt x="412" y="380" on="1"/>
        <pt x="546" y="380" on="1"/>
        <pt x="536" y="400" on="0"/>
        <pt x="509" y="460" on="0"/>
        <pt x="504" y="469" on="0"/>
        <pt x="494" y="491" on="0"/>
        <pt x="484" y="511" on="0"/>
        <pt x="471" y="539" on="0"/>
        <pt x="459" y="562" on="0"/>
        <pt x="453" y="572" on="1"/>
        <pt x="440" y="595" on="0"/>
        <pt x="430" y="595" on="0"/>
        <pt x="414" y="574" on="0"/>
        <pt x="393" y="540" on="0"/>
        <pt x="384" y="524" on="1"/>
        <pt x="357" y="474" on="0"/>
        <pt x="348" y="460" on="0"/>
        <pt x="335" y="436" on="0"/>
        <pt x="312" y="396" on="0"/>
      </contour>
      <contour>
        <pt x="497" y="986" on="0"/>
        <pt x="565" y="937" on="0"/>
        <pt x="565" y="829" on="0"/>
        <pt x="496" y="763" on="0"/>
        <pt x="399" y="763" on="0"/>
        <pt x="336" y="824" on="0"/>
        <pt x="336" y="928" on="0"/>
        <pt x="401" y="986" on="0"/>
        <pt x="460" y="986" on="1"/>
      </contour>
      <contour>
        <pt x="474" y="817" on="0"/>
        <pt x="505" y="852" on="0"/>
        <pt x="505" y="902" on="0"/>
        <pt x="479" y="935" on="0"/>
        <pt x="430" y="935" on="0"/>
        <pt x="398" y="906" on="0"/>
        <pt x="398" y="850" on="0"/>
        <pt x="428" y="817" on="0"/>
      </contour>
    </TTGlyph>
    <TTGlyph name="Atilde" xMin="12" yMin="-12" xMax="821" yMax="911">
      <contour>
        <pt x="439" y="310" on="1"/>
        <pt x="265" y="311" on="1"/>
        <pt x="158" y="117" on="0"/>
        <pt x="132" y="75" on="0"/>
        <pt x="120" y="49" on="1"/>
        <pt x="92" y="-12" on="0"/>
        <pt x="74" y="-12" on="1"/>
        <pt x="31" y="-12" on="0"/>
        <pt x="13" y="8" on="1"/>
        <pt x="12" y="10" on="0"/>
        <pt x="12" y="18" on="0"/>
        <pt x="25" y="41" on="0"/>
        <pt x="54" y="81" on="0"/>
        <pt x="59" y="89" on="1"/>
        <pt x="179" y="302" on="0"/>
        <pt x="374" y="633" on="0"/>
        <pt x="401" y="684" on="0"/>
        <pt x="411" y="697" on="1"/>
        <pt x="429" y="708" on="0"/>
        <pt x="476" y="708" on="0"/>
        <pt x="490" y="704" on="0"/>
        <pt x="500" y="693" on="0"/>
        <pt x="505" y="685" on="0"/>
        <pt x="515" y="663" on="0"/>
        <pt x="537" y="615" on="0"/>
        <pt x="657" y="386" on="0"/>
        <pt x="697" y="296" on="0"/>
        <pt x="716" y="252" on="1"/>
        <pt x="756" y="161" on="0"/>
        <pt x="821" y="46" on="0"/>
        <pt x="821" y="28" on="1"/>
        <pt x="821" y="17" on="0"/>
        <pt x="760" y="-12" on="0"/>
        <pt x="748" y="-12" on="1"/>
        <pt x="727" y="-12" on="0"/>
        <pt x="709" y="42" on="1"/>
        <pt x="690" y="80" on="1"/>
        <pt x="671" y="121" on="0"/>
        <pt x="607" y="254" on="0"/>
        <pt x="578" y="313" on="1"/>
        <pt x="555" y="312" on="0"/>
        <pt x="531" y="312" on="1"/>
        <pt x="508" y="310" on="0"/>
      </contour>
      <contour>
        <pt x="303" y="379" on="1"/>
        <pt x="412" y="380" on="1"/>
        <pt x="546" y="380" on="1"/>
        <pt x="536" y="400" on="0"/>
        <pt x="509" y="460" on="0"/>
        <pt x="504" y="469" on="0"/>
        <pt x="494" y="491" on="0"/>
        <pt x="484" y="511" on="0"/>
        <pt x="471" y="539" on="0"/>
        <pt x="459" y="562" on="0"/>
        <pt x="453" y="572" on="1"/>
        <pt x="440" y="595" on="0"/>
        <pt x="430" y="595" on="0"/>
        <pt x="414" y="574" on="0"/>
        <pt x="393" y="540" on="0"/>
        <pt x="384" y="524" on="1"/>
        <pt x="357" y="474" on="0"/>
        <pt x="348" y="460" on="0"/>
        <pt x="335" y="436" on="0"/>
        <pt x="312" y="396" on="0"/>
      </contour>
      <contour>
        <pt x="387" y="911" on="1"/>
        <pt x="421" y="911" on="0"/>
        <pt x="534" y="858" on="0"/>
        <pt x="576" y="858" on="0"/>
        <pt x="603" y="883" on="0"/>
        <pt x="618" y="908" on="0"/>
        <pt x="633" y="908" on="0"/>
        <pt x="646" y="897" on="0"/>
        <pt x="646" y="891" on="1"/>
        <pt x="646" y="865" on="0"/>
        <pt x="580" y="790" on="0"/>
        <pt x="532" y="790" on="1"/>
        <pt x="500" y="790" on="0"/>
        <pt x="397" y="840" on="0"/>
        <pt x="344" y="840" on="0"/>
        <pt x="319" y="823" on="0"/>
        <pt x="314" y="812" on="1"/>
        <pt x="301" y="785" on="0"/>
        <pt x="289" y="785" on="1"/>
        <pt x="282" y="785" on="0"/>
        <pt x="266" y="793" on="0"/>
        <pt x="266" y="801" on="1"/>
        <pt x="266" y="826" on="0"/>
        <pt x="333" y="911" on="0"/>
      </contour>
    </TTGlyph>
    <TTGlyph name="B" xMin="89" yMin="-2" xMax="574" yMax="701">
      <contour>
        <pt x="89" y="100" on="1"/>
        <pt x="90" y="162" on="1"/>
        <pt x="90" y="674" on="1"/>
        <pt x="90" y="701" on="0"/>
        <pt x="200" y="701" on="1"/>
        <pt x="221" y="701" on="1"/>
        <pt x="354" y="701" on="0"/>
        <pt x="519" y="606" on="0"/>
        <pt x="519" y="521" on="1"/>
        <pt x="519" y="483" on="0"/>
        <pt x="501" y="448" on="0"/>
        <pt x="494" y="433" on="0"/>
        <pt x="467" y="408" on="0"/>
        <pt x="462" y="402" on="0"/>
        <pt x="426" y="374" on="0"/>
        <pt x="424" y="373" on="1"/>
        <pt x="493" y="347" on="0"/>
        <pt x="574" y="271" on="0"/>
        <pt x="574" y="161" on="0"/>
        <pt x="521" y="76" on="0"/>
        <pt x="488" y="53" on="1"/>
        <pt x="407" y="-2" on="0"/>
        <pt x="208" y="-2" on="1"/>
        <pt x="110" y="-2" on="0"/>
        <pt x="97" y="14" on="1"/>
        <pt x="89" y="25" on="0"/>
      </contour>
      <contour>
        <pt x="255" y="325" on="1"/>
        <pt x="222" y="326" on="1"/>
        <pt x="199" y="326" on="0"/>
        <pt x="188" y="315" on="0"/>
        <pt x="188" y="293" on="1"/>
        <pt x="190" y="75" on="1"/>
        <pt x="190" y="61" on="0"/>
        <pt x="215" y="54" on="0"/>
        <pt x="248" y="54" on="1"/>
        <pt x="353" y="54" on="0"/>
        <pt x="474" y="119" on="0"/>
        <pt x="474" y="247" on="0"/>
        <pt x="362" y="325" on="0"/>
      </contour>
      <contour>
        <pt x="187" y="593" on="1"/>
        <pt x="188" y="561" on="1"/>
        <pt x="188" y="410" on="0"/>
        <pt x="190" y="380" on="1"/>
        <pt x="220" y="378" on="0"/>
        <pt x="238" y="378" on="1"/>
        <pt x="334" y="378" on="0"/>
        <pt x="434" y="450" on="0"/>
        <pt x="434" y="571" on="0"/>
        <pt x="317" y="625" on="0"/>
        <pt x="232" y="625" on="1"/>
        <pt x="215" y="625" on="0"/>
        <pt x="197" y="620" on="1"/>
        <pt x="187" y="617" on="0"/>
      </contour>
    </TTGlyph>
    <TTGlyph name="C" xMin="55" yMin="-12" xMax="686" yMax="712">
      <contour>
        <pt x="524" y="711" on="0"/>
        <pt x="660" y="677" on="0"/>
        <pt x="660" y="652" on="0"/>
        <pt x="638" y="613" on="0"/>
        <pt x="633" y="611" on="1"/>
        <pt x="624" y="611" on="0"/>
        <pt x="576" y="624" on="1"/>
        <pt x="511" y="634" on="0"/>
        <pt x="492" y="634" on="1"/>
        <pt x="401" y="634" on="0"/>
        <pt x="350" y="614" on="1"/>
        <pt x="311" y="600" on="0"/>
        <pt x="242" y="545" on="0"/>
        <pt x="200" y="492" on="0"/>
        <pt x="167" y="407" on="0"/>
        <pt x="166" y="358" on="1"/>
        <pt x="166" y="244" on="0"/>
        <pt x="324" y="79" on="0"/>
        <pt x="478" y="73" on="1"/>
        <pt x="528" y="73" on="0"/>
        <pt x="625" y="92" on="1"/>
        <pt x="661" y="104" on="0"/>
        <pt x="667" y="104" on="1"/>
        <pt x="675" y="101" on="0"/>
        <pt x="686" y="78" on="0"/>
        <pt x="686" y="67" on="1"/>
        <pt x="686" y="43" on="0"/>
        <pt x="543" y="-10" on="0"/>
        <pt x="460" y="-12" on="1"/>
        <pt x="346" y="-10" on="0"/>
        <pt x="242" y="44" on="1"/>
        <pt x="126" y="103" on="0"/>
        <pt x="80" y="206" on="1"/>
        <pt x="55" y="264" on="0"/>
        <pt x="55" y="331" on="1"/>
        <pt x="55" y="494" on="0"/>
        <pt x="297" y="712" on="0"/>
        <pt x="477" y="712" on="1"/>
      </contour>
    </TTGlyph>
    <TTGlyph name="Ccedilla" xMin="55" yMin="-262" xMax="686" yMax="712">
      <contour>
        <pt x="286" y="-212" on="1"/>
        <pt x="319" y="-215" on="1"/>
        <pt x="355" y="-215" on="0"/>
        <pt x="410" y="-187" on="0"/>
        <pt x="410" y="-134" on="0"/>
        <pt x="361" y="-108" on="0"/>
        <pt x="312" y="-95" on="0"/>
        <pt x="312" y="-80" on="0"/>
        <pt x="342" y="-17" on="0"/>
        <pt x="357" y="1" on="1"/>
        <pt x="237" y="30" on="0"/>
        <pt x="150" y="108" on="1"/>
        <pt x="106" y="147" on="0"/>
        <pt x="55" y="263" on="0"/>
        <pt x="55" y="331" on="1"/>
        <pt x="55" y="494" on="0"/>
        <pt x="297" y="712" on="0"/>
        <pt x="477" y="712" on="1"/>
        <pt x="524" y="711" on="0"/>
        <pt x="660" y="677" on="0"/>
        <pt x="660" y="652" on="0"/>
        <pt x="638" y="613" on="0"/>
        <pt x="633" y="611" on="1"/>
        <pt x="624" y="611" on="0"/>
        <pt x="576" y="624" on="1"/>
        <pt x="511" y="634" on="0"/>
        <pt x="492" y="634" on="1"/>
        <pt x="401" y="634" on="0"/>
        <pt x="350" y="614" on="1"/>
        <pt x="311" y="600" on="0"/>
        <pt x="242" y="545" on="0"/>
        <pt x="200" y="492" on="0"/>
        <pt x="167" y="407" on="0"/>
        <pt x="166" y="358" on="1"/>
        <pt x="166" y="244" on="0"/>
        <pt x="324" y="79" on="0"/>
        <pt x="478" y="73" on="1"/>
        <pt x="528" y="73" on="0"/>
        <pt x="625" y="92" on="1"/>
        <pt x="661" y="104" on="0"/>
        <pt x="667" y="104" on="1"/>
        <pt x="675" y="101" on="0"/>
        <pt x="686" y="78" on="0"/>
        <pt x="686" y="67" on="1"/>
        <pt x="686" y="43" on="0"/>
        <pt x="543" y="-10" on="0"/>
        <pt x="460" y="-12" on="1"/>
        <pt x="424" y="-10" on="0"/>
        <pt x="407" y="-7" on="1"/>
        <pt x="405" y="-13" on="0"/>
        <pt x="379" y="-53" on="0"/>
        <pt x="379" y="-61" on="1"/>
        <pt x="379" y="-63" on="0"/>
        <pt x="416" y="-70" on="0"/>
        <pt x="462" y="-82" on="0"/>
        <pt x="499" y="-124" on="0"/>
        <pt x="499" y="-157" on="1"/>
        <pt x="499" y="-208" on="0"/>
        <pt x="391" y="-262" on="0"/>
        <pt x="318" y="-262" on="1"/>
        <pt x="279" y="-262" on="0"/>
        <pt x="279" y="-231" on="1"/>
        <pt x="279" y="-221" on="0"/>
      </contour>
    </TTGlyph>
    <TTGlyph name="D" xMin="88" yMin="0" xMax="711" yMax="700">
      <contour>
        <pt x="88" y="200" on="1"/>
        <pt x="92" y="520" on="1"/>
        <pt x="92" y="600" on="1"/>
        <pt x="92" y="691" on="0"/>
        <pt x="112" y="700" on="0"/>
        <pt x="214" y="700" on="1"/>
        <pt x="439" y="700" on="0"/>
        <pt x="566" y="624" on="1"/>
        <pt x="711" y="538" on="0"/>
        <pt x="711" y="358" on="1"/>
        <pt x="711" y="265" on="0"/>
        <pt x="614" y="108" on="0"/>
        <pt x="532" y="60" on="1"/>
        <pt x="425" y="1" on="0"/>
        <pt x="204" y="1" on="1"/>
        <pt x="196" y="1" on="0"/>
        <pt x="189" y="1" on="1"/>
        <pt x="148" y="0" on="1"/>
        <pt x="120" y="0" on="0"/>
        <pt x="106" y="6" on="0"/>
        <pt x="100" y="10" on="1"/>
        <pt x="88" y="16" on="0"/>
        <pt x="88" y="36" on="1"/>
        <pt x="89" y="87" on="1"/>
      </contour>
      <contour>
        <pt x="190" y="517" on="1"/>
        <pt x="190" y="216" on="0"/>
        <pt x="189" y="74" on="1"/>
        <pt x="195" y="74" on="0"/>
        <pt x="201" y="74" on="1"/>
        <pt x="603" y="74" on="0"/>
        <pt x="603" y="347" on="1"/>
        <pt x="603" y="567" on="0"/>
        <pt x="365" y="610" on="1"/>
        <pt x="324" y="618" on="0"/>
        <pt x="232" y="618" on="0"/>
        <pt x="192" y="615" on="1"/>
        <pt x="190" y="611" on="0"/>
        <pt x="190" y="576" on="1"/>
      </contour>
    </TTGlyph>
    <TTGlyph name="E" xMin="89" yMin="0" xMax="526" yMax="700">
      <contour>
        <pt x="458" y="626" on="1"/>
        <pt x="335" y="628" on="1"/>
        <pt x="233" y="628" on="0"/>
        <pt x="193" y="621" on="1"/>
        <pt x="191" y="553" on="0"/>
        <pt x="191" y="411" on="1"/>
        <pt x="362" y="412" on="1"/>
        <pt x="379" y="412" on="1"/>
        <pt x="475" y="412" on="0"/>
        <pt x="475" y="381" on="0"/>
        <pt x="461" y="344" on="0"/>
        <pt x="443" y="338" on="0"/>
        <pt x="414" y="338" on="1"/>
        <pt x="193" y="339" on="1"/>
        <pt x="192" y="310" on="0"/>
        <pt x="192" y="293" on="1"/>
        <pt x="191" y="212" on="1"/>
        <pt x="191" y="156" on="1"/>
        <pt x="191" y="90" on="0"/>
        <pt x="194" y="84" on="1"/>
        <pt x="200" y="72" on="0"/>
        <pt x="380" y="72" on="1"/>
        <pt x="442" y="72" on="0"/>
        <pt x="469" y="75" on="1"/>
        <pt x="511" y="83" on="1"/>
        <pt x="526" y="83" on="0"/>
        <pt x="526" y="64" on="0"/>
        <pt x="517" y="43" on="1"/>
        <pt x="507" y="9" on="0"/>
        <pt x="503" y="6" on="1"/>
        <pt x="492" y="0" on="0"/>
        <pt x="343" y="0" on="1"/>
        <pt x="160" y="0" on="1"/>
        <pt x="106" y="0" on="0"/>
        <pt x="89" y="15" on="0"/>
        <pt x="89" y="136" on="1"/>
        <pt x="92" y="493" on="1"/>
        <pt x="93" y="574" on="1"/>
        <pt x="92" y="649" on="1"/>
        <pt x="92" y="683" on="0"/>
        <pt x="98" y="689" on="1"/>
        <pt x="106" y="698" on="0"/>
        <pt x="156" y="698" on="1"/>
        <pt x="297" y="700" on="1"/>
        <pt x="429" y="699" on="1"/>
        <pt x="476" y="699" on="0"/>
        <pt x="486" y="688" on="0"/>
        <pt x="486" y="683" on="1"/>
        <pt x="482" y="659" on="1"/>
        <pt x="481" y="654" on="0"/>
        <pt x="481" y="641" on="0"/>
        <pt x="480" y="635" on="0"/>
        <pt x="478" y="632" on="1"/>
        <pt x="475" y="626" on="0"/>
      </contour>
    </TTGlyph>
    <TTGlyph name="Eacute" xMin="89" yMin="0" xMax="526" yMax="933">
      <contour>
        <pt x="458" y="626" on="1"/>
        <pt x="335" y="628" on="1"/>
        <pt x="233" y="628" on="0"/>
        <pt x="193" y="621" on="1"/>
        <pt x="191" y="553" on="0"/>
        <pt x="191" y="411" on="1"/>
        <pt x="362" y="412" on="1"/>
        <pt x="379" y="412" on="1"/>
        <pt x="475" y="412" on="0"/>
        <pt x="475" y="381" on="0"/>
        <pt x="461" y="344" on="0"/>
        <pt x="443" y="338" on="0"/>
        <pt x="414" y="338" on="1"/>
        <pt x="193" y="339" on="1"/>
        <pt x="192" y="310" on="0"/>
        <pt x="192" y="293" on="1"/>
        <pt x="191" y="212" on="1"/>
        <pt x="191" y="156" on="1"/>
        <pt x="191" y="90" on="0"/>
        <pt x="194" y="84" on="1"/>
        <pt x="200" y="72" on="0"/>
        <pt x="380" y="72" on="1"/>
        <pt x="442" y="72" on="0"/>
        <pt x="469" y="75" on="1"/>
        <pt x="511" y="83" on="1"/>
        <pt x="526" y="83" on="0"/>
        <pt x="526" y="64" on="0"/>
        <pt x="517" y="43" on="1"/>
        <pt x="507" y="9" on="0"/>
        <pt x="503" y="6" on="1"/>
        <pt x="492" y="0" on="0"/>
        <pt x="343" y="0" on="1"/>
        <pt x="160" y="0" on="1"/>
        <pt x="106" y="0" on="0"/>
        <pt x="89" y="15" on="0"/>
        <pt x="89" y="136" on="1"/>
        <pt x="92" y="493" on="1"/>
        <pt x="93" y="574" on="1"/>
        <pt x="92" y="649" on="1"/>
        <pt x="92" y="683" on="0"/>
        <pt x="98" y="689" on="1"/>
        <pt x="106" y="698" on="0"/>
        <pt x="156" y="698" on="1"/>
        <pt x="297" y="700" on="1"/>
        <pt x="429" y="699" on="1"/>
        <pt x="476" y="699" on="0"/>
        <pt x="486" y="688" on="0"/>
        <pt x="486" y="683" on="1"/>
        <pt x="482" y="659" on="1"/>
        <pt x="481" y="654" on="0"/>
        <pt x="481" y="641" on="0"/>
        <pt x="480" y="635" on="0"/>
        <pt x="478" y="632" on="1"/>
        <pt x="475" y="626" on="0"/>
      </contour>
      <contour>
        <pt x="404" y="868" on="0"/>
        <pt x="350" y="819" on="0"/>
        <pt x="271" y="778" on="0"/>
        <pt x="236" y="778" on="1"/>
        <pt x="225" y="778" on="0"/>
        <pt x="207" y="796" on="0"/>
        <pt x="205" y="812" on="0"/>
        <pt x="222" y="826" on="0"/>
        <pt x="253" y="846" on="0"/>
        <pt x="282" y="868" on="0"/>
        <pt x="318" y="911" on="0"/>
        <pt x="337" y="933" on="0"/>
        <pt x="365" y="933" on="0"/>
        <pt x="404" y="902" on="0"/>
      </contour>
    </TTGlyph>
    <TTGlyph name="Ecircumflex" xMin="89" yMin="0" xMax="526" yMax="926">
      <component glyphName="E" x="0" y="0" flags="0x1004"/>
      <component glyphName="circumflex" x="53" y="268" flags="0x1004"/>
    </TTGlyph>
    <TTGlyph name="Edieresis" xMin="89" yMin="0" xMax="526" yMax="894">
      <contour>
        <pt x="458" y="626" on="1"/>
        <pt x="335" y="628" on="1"/>
        <pt x="233" y="628" on="0"/>
        <pt x="193" y="621" on="1"/>
        <pt x="191" y="553" on="0"/>
        <pt x="191" y="411" on="1"/>
        <pt x="362" y="412" on="1"/>
        <pt x="379" y="412" on="1"/>
        <pt x="475" y="412" on="0"/>
        <pt x="475" y="381" on="0"/>
        <pt x="461" y="344" on="0"/>
        <pt x="443" y="338" on="0"/>
        <pt x="414" y="338" on="1"/>
        <pt x="193" y="339" on="1"/>
        <pt x="192" y="310" on="0"/>
        <pt x="192" y="293" on="1"/>
        <pt x="191" y="212" on="1"/>
        <pt x="191" y="156" on="1"/>
        <pt x="191" y="90" on="0"/>
        <pt x="194" y="84" on="1"/>
        <pt x="200" y="72" on="0"/>
        <pt x="380" y="72" on="1"/>
        <pt x="442" y="72" on="0"/>
        <pt x="469" y="75" on="1"/>
        <pt x="511" y="83" on="1"/>
        <pt x="526" y="83" on="0"/>
        <pt x="526" y="64" on="0"/>
        <pt x="517" y="43" on="1"/>
        <pt x="507" y="9" on="0"/>
        <pt x="503" y="6" on="1"/>
        <pt x="492" y="0" on="0"/>
        <pt x="343" y="0" on="1"/>
        <pt x="160" y="0" on="1"/>
        <pt x="106" y="0" on="0"/>
        <pt x="89" y="15" on="0"/>
        <pt x="89" y="136" on="1"/>
        <pt x="92" y="493" on="1"/>
        <pt x="93" y="574" on="1"/>
        <pt x="92" y="649" on="1"/>
        <pt x="92" y="683" on="0"/>
        <pt x="98" y="689" on="1"/>
        <pt x="106" y="698" on="0"/>
        <pt x="156" y="698" on="1"/>
        <pt x="297" y="700" on="1"/>
        <pt x="429" y="699" on="1"/>
        <pt x="476" y="699" on="0"/>
        <pt x="486" y="688" on="0"/>
        <pt x="486" y="683" on="1"/>
        <pt x="482" y="659" on="1"/>
        <pt x="481" y="654" on="0"/>
        <pt x="481" y="641" on="0"/>
        <pt x="480" y="635" on="0"/>
        <pt x="478" y="632" on="1"/>
        <pt x="475" y="626" on="0"/>
      </contour>
      <contour>
        <pt x="127" y="859" on="0"/>
        <pt x="153" y="890" on="0"/>
        <pt x="180" y="894" on="0"/>
        <pt x="202" y="894" on="1"/>
        <pt x="243" y="894" on="0"/>
        <pt x="243" y="849" on="1"/>
        <pt x="243" y="785" on="0"/>
        <pt x="178" y="785" on="1"/>
        <pt x="156" y="785" on="0"/>
        <pt x="127" y="812" on="0"/>
      </contour>
      <contour>
        <pt x="327" y="858" on="0"/>
        <pt x="353" y="890" on="0"/>
        <pt x="381" y="894" on="0"/>
        <pt x="402" y="894" on="1"/>
        <pt x="443" y="894" on="0"/>
        <pt x="443" y="849" on="1"/>
        <pt x="443" y="785" on="0"/>
        <pt x="379" y="785" on="1"/>
        <pt x="356" y="785" on="0"/>
        <pt x="327" y="812" on="0"/>
      </contour>
    </TTGlyph>
    <TTGlyph name="Egrave" xMin="89" yMin="0" xMax="526" yMax="933">
      <component glyphName="E" x="0" y="0" flags="0x1004"/>
      <component glyphName="grave" x="108" y="268" flags="0x1004"/>
    </TTGlyph>
    <TTGlyph name="Eth" xMin="2" yMin="0" xMax="711" yMax="700">
      <contour>
        <pt x="89" y="87" on="1"/>
        <pt x="88" y="200" on="1"/>
        <pt x="88" y="257" on="1"/>
        <pt x="78" y="257" on="0"/>
        <pt x="32" y="257" on="0"/>
        <pt x="2" y="265" on="0"/>
        <pt x="2" y="316" on="0"/>
        <pt x="14" y="326" on="0"/>
        <pt x="33" y="326" on="1"/>
        <pt x="88" y="326" on="1"/>
        <pt x="92" y="520" on="1"/>
        <pt x="92" y="600" on="1"/>
        <pt x="92" y="691" on="0"/>
        <pt x="112" y="700" on="0"/>
        <pt x="214" y="700" on="1"/>
        <pt x="439" y="700" on="0"/>
        <pt x="566" y="624" on="1"/>
        <pt x="711" y="538" on="0"/>
        <pt x="711" y="358" on="1"/>
        <pt x="711" y="265" on="0"/>
        <pt x="614" y="108" on="0"/>
        <pt x="532" y="60" on="1"/>
        <pt x="425" y="1" on="0"/>
        <pt x="204" y="1" on="1"/>
        <pt x="196" y="1" on="0"/>
        <pt x="189" y="1" on="1"/>
        <pt x="189" y="1" on="0"/>
        <pt x="148" y="0" on="1"/>
        <pt x="120" y="0" on="0"/>
        <pt x="106" y="6" on="0"/>
        <pt x="100" y="10" on="1"/>
        <pt x="88" y="16" on="0"/>
        <pt x="88" y="36" on="1"/>
      </contour>
      <contour>
        <pt x="190" y="258" on="1"/>
        <pt x="189" y="74" on="1"/>
        <pt x="195" y="74" on="0"/>
        <pt x="201" y="74" on="1"/>
        <pt x="603" y="74" on="0"/>
        <pt x="603" y="347" on="1"/>
        <pt x="603" y="567" on="0"/>
        <pt x="365" y="610" on="1"/>
        <pt x="324" y="618" on="0"/>
        <pt x="232" y="618" on="0"/>
        <pt x="192" y="615" on="1"/>
        <pt x="190" y="611" on="0"/>
        <pt x="190" y="576" on="1"/>
        <pt x="190" y="325" on="1"/>
        <pt x="316" y="325" on="1"/>
        <pt x="336" y="325" on="0"/>
        <pt x="346" y="311" on="0"/>
        <pt x="346" y="267" on="0"/>
        <pt x="319" y="258" on="0"/>
        <pt x="286" y="258" on="1"/>
      </contour>
    </TTGlyph>
    <TTGlyph name="Euro" xMin="33" yMin="-12" xMax="709" yMax="712">
      <contour>
        <pt x="519" y="389" on="1"/>
        <pt x="317" y="390" on="1"/>
        <pt x="269" y="390" on="0"/>
        <pt x="240" y="389" on="1"/>
        <pt x="238" y="369" on="0"/>
        <pt x="238" y="326" on="0"/>
        <pt x="242" y="302" on="1"/>
        <pt x="497" y="302" on="1"/>
        <pt x="524" y="301" on="0"/>
        <pt x="527" y="293" on="1"/>
        <pt x="531" y="283" on="0"/>
        <pt x="511" y="236" on="1"/>
        <pt x="468" y="233" on="0"/>
        <pt x="262" y="233" on="1"/>
        <pt x="327" y="81" on="0"/>
        <pt x="519" y="73" on="1"/>
        <pt x="564" y="73" on="0"/>
        <pt x="657" y="93" on="0"/>
        <pt x="674" y="99" on="0"/>
        <pt x="688" y="104" on="0"/>
        <pt x="692" y="104" on="1"/>
        <pt x="709" y="98" on="0"/>
        <pt x="709" y="67" on="1"/>
        <pt x="709" y="43" on="0"/>
        <pt x="578" y="-10" on="0"/>
        <pt x="502" y="-12" on="1"/>
        <pt x="343" y="-8" on="0"/>
        <pt x="226" y="98" on="1"/>
        <pt x="164" y="154" on="0"/>
        <pt x="140" y="232" on="1"/>
        <pt x="124" y="231" on="0"/>
        <pt x="100" y="231" on="1"/>
        <pt x="53" y="231" on="1"/>
        <pt x="41" y="231" on="0"/>
        <pt x="38" y="234" on="1"/>
        <pt x="33" y="244" on="0"/>
        <pt x="33" y="281" on="0"/>
        <pt x="38" y="292" on="1"/>
        <pt x="42" y="299" on="0"/>
        <pt x="127" y="301" on="1"/>
        <pt x="126" y="311" on="0"/>
        <pt x="126" y="364" on="0"/>
        <pt x="130" y="388" on="1"/>
        <pt x="118" y="388" on="0"/>
        <pt x="67" y="388" on="0"/>
        <pt x="36" y="395" on="0"/>
        <pt x="36" y="448" on="0"/>
        <pt x="48" y="457" on="0"/>
        <pt x="67" y="457" on="1"/>
        <pt x="146" y="457" on="1"/>
        <pt x="185" y="572" on="0"/>
        <pt x="388" y="712" on="0"/>
        <pt x="518" y="712" on="1"/>
        <pt x="561" y="711" on="0"/>
        <pt x="685" y="677" on="0"/>
        <pt x="685" y="652" on="0"/>
        <pt x="665" y="613" on="0"/>
        <pt x="661" y="611" on="1"/>
        <pt x="656" y="611" on="0"/>
        <pt x="608" y="624" on="1"/>
        <pt x="551" y="634" on="0"/>
        <pt x="532" y="634" on="1"/>
        <pt x="448" y="634" on="0"/>
        <pt x="401" y="614" on="1"/>
        <pt x="381" y="605" on="0"/>
        <pt x="336" y="576" on="0"/>
        <pt x="272" y="502" on="0"/>
        <pt x="255" y="456" on="1"/>
        <pt x="570" y="456" on="1"/>
        <pt x="590" y="456" on="0"/>
        <pt x="595" y="441" on="0"/>
        <pt x="582" y="398" on="0"/>
        <pt x="552" y="389" on="0"/>
      </contour>
    </TTGlyph>
    <TTGlyph name="F" xMin="89" yMin="-2" xMax="487" yMax="700">
      <contour>
        <pt x="362" y="625" on="1"/>
        <pt x="239" y="624" on="1"/>
        <pt x="214" y="624" on="1"/>
        <pt x="188" y="623" on="0"/>
        <pt x="188" y="624" on="1"/>
        <pt x="187" y="606" on="0"/>
        <pt x="187" y="584" on="1"/>
        <pt x="188" y="496" on="1"/>
        <pt x="187" y="435" on="1"/>
        <pt x="187" y="416" on="0"/>
        <pt x="188" y="406" on="1"/>
        <pt x="349" y="407" on="1"/>
        <pt x="378" y="407" on="0"/>
        <pt x="420" y="407" on="0"/>
        <pt x="442" y="404" on="0"/>
        <pt x="452" y="402" on="1"/>
        <pt x="473" y="399" on="0"/>
        <pt x="473" y="381" on="0"/>
        <pt x="458" y="349" on="0"/>
        <pt x="450" y="337" on="0"/>
        <pt x="429" y="332" on="0"/>
        <pt x="426" y="332" on="1"/>
        <pt x="404" y="332" on="1"/>
        <pt x="315" y="333" on="1"/>
        <pt x="222" y="333" on="0"/>
        <pt x="187" y="335" on="1"/>
        <pt x="185" y="309" on="0"/>
        <pt x="185" y="259" on="1"/>
        <pt x="186" y="191" on="1"/>
        <pt x="186" y="152" on="0"/>
        <pt x="185" y="127" on="1"/>
        <pt x="185" y="72" on="1"/>
        <pt x="186" y="21" on="1"/>
        <pt x="186" y="6" on="0"/>
        <pt x="159" y="-2" on="0"/>
        <pt x="110" y="-2" on="0"/>
        <pt x="96" y="2" on="0"/>
        <pt x="93" y="10" on="1"/>
        <pt x="89" y="20" on="0"/>
        <pt x="89" y="41" on="1"/>
        <pt x="89" y="288" on="1"/>
        <pt x="89" y="523" on="0"/>
        <pt x="95" y="616" on="0"/>
        <pt x="95" y="637" on="1"/>
        <pt x="95" y="682" on="0"/>
        <pt x="105" y="692" on="0"/>
        <pt x="130" y="696" on="0"/>
        <pt x="166" y="698" on="0"/>
        <pt x="199" y="699" on="0"/>
        <pt x="216" y="699" on="1"/>
        <pt x="240" y="699" on="1"/>
        <pt x="263" y="700" on="1"/>
        <pt x="477" y="700" on="0"/>
        <pt x="487" y="692" on="1"/>
        <pt x="487" y="682" on="0"/>
        <pt x="473" y="631" on="0"/>
        <pt x="461" y="624" on="0"/>
        <pt x="439" y="624" on="1"/>
      </contour>
    </TTGlyph>
    <TTGlyph name="G" xMin="55" yMin="-13" xMax="735" yMax="712">
      <contour>
        <pt x="633" y="165" on="1"/>
        <pt x="634" y="307" on="1"/>
        <pt x="634" y="337" on="0"/>
        <pt x="650" y="350" on="0"/>
        <pt x="726" y="350" on="0"/>
        <pt x="735" y="342" on="0"/>
        <pt x="735" y="29" on="0"/>
        <pt x="725" y="22" on="0"/>
        <pt x="667" y="22" on="0"/>
        <pt x="639" y="37" on="1"/>
        <pt x="606" y="18" on="0"/>
        <pt x="493" y="-13" on="0"/>
        <pt x="439" y="-13" on="1"/>
        <pt x="336" y="-13" on="0"/>
        <pt x="165" y="63" on="0"/>
        <pt x="55" y="223" on="0"/>
        <pt x="55" y="452" on="0"/>
        <pt x="171" y="629" on="0"/>
        <pt x="355" y="712" on="0"/>
        <pt x="467" y="712" on="1"/>
        <pt x="516" y="712" on="0"/>
        <pt x="639" y="687" on="0"/>
        <pt x="644" y="670" on="1"/>
        <pt x="644" y="667" on="0"/>
        <pt x="644" y="647" on="0"/>
        <pt x="634" y="618" on="0"/>
        <pt x="616" y="618" on="0"/>
        <pt x="602" y="622" on="1"/>
        <pt x="587" y="627" on="1"/>
        <pt x="532" y="642" on="0"/>
        <pt x="408" y="642" on="0"/>
        <pt x="339" y="619" on="0"/>
        <pt x="279" y="583" on="0"/>
        <pt x="210" y="517" on="0"/>
        <pt x="167" y="409" on="0"/>
        <pt x="167" y="342" on="1"/>
        <pt x="167" y="220" on="0"/>
        <pt x="344" y="52" on="0"/>
        <pt x="474" y="52" on="1"/>
        <pt x="531" y="52" on="0"/>
        <pt x="632" y="84" on="0"/>
        <pt x="632" y="100" on="1"/>
      </contour>
    </TTGlyph>
    <TTGlyph name="H" xMin="89" yMin="-1" xMax="720" yMax="701">
      <contour>
        <pt x="689" y="700" on="1"/>
        <pt x="718" y="698" on="1"/>
        <pt x="720" y="622" on="0"/>
        <pt x="720" y="175" on="0"/>
        <pt x="714" y="74" on="0"/>
        <pt x="714" y="56" on="1"/>
        <pt x="714" y="21" on="0"/>
        <pt x="700" y="-1" on="0"/>
        <pt x="631" y="-1" on="0"/>
        <pt x="624" y="10" on="0"/>
        <pt x="624" y="32" on="1"/>
        <pt x="624" y="85" on="1"/>
        <pt x="626" y="292" on="1"/>
        <pt x="626" y="325" on="0"/>
        <pt x="625" y="348" on="1"/>
        <pt x="318" y="346" on="1"/>
        <pt x="271" y="346" on="0"/>
        <pt x="193" y="348" on="1"/>
        <pt x="193" y="158" on="1"/>
        <pt x="194" y="63" on="1"/>
        <pt x="191" y="12" on="0"/>
        <pt x="175" y="0" on="0"/>
        <pt x="106" y="0" on="0"/>
        <pt x="97" y="3" on="1"/>
        <pt x="89" y="51" on="0"/>
        <pt x="89" y="109" on="1"/>
        <pt x="90" y="221" on="1"/>
        <pt x="90" y="375" on="0"/>
        <pt x="100" y="699" on="1"/>
        <pt x="114" y="700" on="0"/>
        <pt x="163" y="700" on="0"/>
        <pt x="179" y="698" on="0"/>
        <pt x="194" y="687" on="0"/>
        <pt x="194" y="676" on="1"/>
        <pt x="193" y="632" on="1"/>
        <pt x="193" y="581" on="1"/>
        <pt x="193" y="426" on="0"/>
        <pt x="194" y="410" on="1"/>
        <pt x="565" y="412" on="1"/>
        <pt x="616" y="410" on="1"/>
        <pt x="624" y="410" on="0"/>
        <pt x="627" y="415" on="0"/>
        <pt x="627" y="425" on="1"/>
        <pt x="627" y="653" on="1"/>
        <pt x="628" y="659" on="0"/>
        <pt x="628" y="679" on="0"/>
        <pt x="629" y="687" on="0"/>
        <pt x="632" y="692" on="1"/>
        <pt x="636" y="701" on="0"/>
        <pt x="656" y="701" on="1"/>
      </contour>
    </TTGlyph>
    <TTGlyph name="I" xMin="88" yMin="0" xMax="192" yMax="700">
      <contour>
        <pt x="92" y="568" on="1"/>
        <pt x="91" y="650" on="1"/>
        <pt x="91" y="690" on="0"/>
        <pt x="95" y="698" on="1"/>
        <pt x="97" y="700" on="0"/>
        <pt x="131" y="700" on="0"/>
        <pt x="144" y="700" on="1"/>
        <pt x="164" y="700" on="1"/>
        <pt x="185" y="700" on="0"/>
        <pt x="191" y="689" on="0"/>
        <pt x="191" y="683" on="1"/>
        <pt x="191" y="441" on="1"/>
        <pt x="192" y="283" on="1"/>
        <pt x="191" y="174" on="1"/>
        <pt x="191" y="65" on="1"/>
        <pt x="191" y="58" on="0"/>
        <pt x="192" y="33" on="0"/>
        <pt x="191" y="26" on="0"/>
        <pt x="188" y="11" on="0"/>
        <pt x="182" y="8" on="0"/>
        <pt x="176" y="4" on="1"/>
        <pt x="167" y="0" on="0"/>
        <pt x="106" y="0" on="0"/>
        <pt x="89" y="7" on="0"/>
        <pt x="89" y="22" on="1"/>
        <pt x="91" y="55" on="1"/>
        <pt x="90" y="164" on="1"/>
        <pt x="89" y="295" on="1"/>
        <pt x="88" y="318" on="0"/>
        <pt x="88" y="347" on="1"/>
      </contour>
    </TTGlyph>
    <TTGlyph name="IJ" xMin="88" yMin="-262" xMax="470" yMax="700">
      <contour>
        <pt x="92" y="568" on="1"/>
        <pt x="91" y="650" on="1"/>
        <pt x="91" y="690" on="0"/>
        <pt x="95" y="698" on="1"/>
        <pt x="97" y="700" on="0"/>
        <pt x="131" y="700" on="0"/>
        <pt x="144" y="700" on="1"/>
        <pt x="164" y="700" on="1"/>
        <pt x="185" y="700" on="0"/>
        <pt x="191" y="689" on="0"/>
        <pt x="191" y="683" on="1"/>
        <pt x="191" y="441" on="1"/>
        <pt x="192" y="283" on="1"/>
        <pt x="191" y="174" on="1"/>
        <pt x="191" y="65" on="1"/>
        <pt x="191" y="58" on="0"/>
        <pt x="192" y="33" on="0"/>
        <pt x="191" y="26" on="0"/>
        <pt x="188" y="11" on="0"/>
        <pt x="182" y="8" on="0"/>
        <pt x="176" y="4" on="1"/>
        <pt x="167" y="0" on="0"/>
        <pt x="106" y="0" on="0"/>
        <pt x="89" y="7" on="0"/>
        <pt x="89" y="22" on="1"/>
        <pt x="91" y="55" on="1"/>
        <pt x="90" y="164" on="1"/>
        <pt x="89" y="295" on="1"/>
        <pt x="88" y="318" on="0"/>
        <pt x="88" y="347" on="1"/>
      </contour>
      <contour>
        <pt x="368" y="448" on="1"/>
        <pt x="368" y="540" on="0"/>
        <pt x="371" y="593" on="0"/>
        <pt x="372" y="620" on="1"/>
        <pt x="373" y="688" on="0"/>
        <pt x="385" y="700" on="0"/>
        <pt x="459" y="700" on="0"/>
        <pt x="462" y="697" on="1"/>
        <pt x="470" y="689" on="0"/>
        <pt x="470" y="575" on="1"/>
        <pt x="470" y="7" on="1"/>
        <pt x="470" y="-121" on="0"/>
        <pt x="419" y="-191" on="1"/>
        <pt x="398" y="-220" on="0"/>
        <pt x="319" y="-262" on="0"/>
        <pt x="276" y="-262" on="1"/>
        <pt x="191" y="-262" on="0"/>
        <pt x="191" y="-202" on="0"/>
        <pt x="206" y="-190" on="1"/>
        <pt x="246" y="-195" on="0"/>
        <pt x="264" y="-195" on="1"/>
        <pt x="305" y="-195" on="0"/>
        <pt x="367" y="-142" on="0"/>
        <pt x="367" y="-79" on="1"/>
      </contour>
    </TTGlyph>
    <TTGlyph name="Iacute" xMin="62" yMin="0" xMax="260" yMax="933">
      <contour>
        <pt x="92" y="568" on="1"/>
        <pt x="91" y="650" on="1"/>
        <pt x="91" y="690" on="0"/>
        <pt x="95" y="698" on="1"/>
        <pt x="97" y="700" on="0"/>
        <pt x="131" y="700" on="0"/>
        <pt x="144" y="700" on="1"/>
        <pt x="164" y="700" on="1"/>
        <pt x="185" y="700" on="0"/>
        <pt x="191" y="689" on="0"/>
        <pt x="191" y="683" on="1"/>
        <pt x="191" y="441" on="1"/>
        <pt x="192" y="283" on="1"/>
        <pt x="191" y="174" on="1"/>
        <pt x="191" y="65" on="1"/>
        <pt x="191" y="58" on="0"/>
        <pt x="192" y="33" on="0"/>
        <pt x="191" y="26" on="0"/>
        <pt x="188" y="11" on="0"/>
        <pt x="182" y="8" on="0"/>
        <pt x="176" y="4" on="1"/>
        <pt x="167" y="0" on="0"/>
        <pt x="106" y="0" on="0"/>
        <pt x="89" y="7" on="0"/>
        <pt x="89" y="22" on="1"/>
        <pt x="91" y="55" on="1"/>
        <pt x="90" y="164" on="1"/>
        <pt x="89" y="295" on="1"/>
        <pt x="88" y="318" on="0"/>
        <pt x="88" y="347" on="1"/>
      </contour>
      <contour>
        <pt x="260" y="868" on="0"/>
        <pt x="206" y="819" on="0"/>
        <pt x="127" y="778" on="0"/>
        <pt x="92" y="778" on="1"/>
        <pt x="81" y="778" on="0"/>
        <pt x="63" y="796" on="0"/>
        <pt x="61" y="812" on="0"/>
        <pt x="78" y="826" on="0"/>
        <pt x="109" y="846" on="0"/>
        <pt x="138" y="868" on="0"/>
        <pt x="174" y="911" on="0"/>
        <pt x="193" y="933" on="0"/>
        <pt x="221" y="933" on="0"/>
        <pt x="260" y="902" on="0"/>
      </contour>
    </TTGlyph>
    <TTGlyph name="Icircumflex" xMin="-14" yMin="0" xMax="294" yMax="926">
      <component glyphName="I" x="0" y="0" flags="0x1004"/>
      <component glyphName="circumflex" x="-92" y="268" flags="0x1004"/>
    </TTGlyph>
    <TTGlyph name="Idieresis" xMin="-18" yMin="0" xMax="298" yMax="894">
      <contour>
        <pt x="92" y="568" on="1"/>
        <pt x="91" y="650" on="1"/>
        <pt x="91" y="690" on="0"/>
        <pt x="95" y="698" on="1"/>
        <pt x="97" y="700" on="0"/>
        <pt x="131" y="700" on="0"/>
        <pt x="144" y="700" on="1"/>
        <pt x="164" y="700" on="1"/>
        <pt x="185" y="700" on="0"/>
        <pt x="191" y="689" on="0"/>
        <pt x="191" y="683" on="1"/>
        <pt x="191" y="441" on="1"/>
        <pt x="192" y="283" on="1"/>
        <pt x="191" y="174" on="1"/>
        <pt x="191" y="65" on="1"/>
        <pt x="191" y="58" on="0"/>
        <pt x="192" y="33" on="0"/>
        <pt x="191" y="26" on="0"/>
        <pt x="188" y="11" on="0"/>
        <pt x="182" y="8" on="0"/>
        <pt x="176" y="4" on="1"/>
        <pt x="167" y="0" on="0"/>
        <pt x="106" y="0" on="0"/>
        <pt x="89" y="7" on="0"/>
        <pt x="89" y="22" on="1"/>
        <pt x="91" y="55" on="1"/>
        <pt x="90" y="164" on="1"/>
        <pt x="89" y="295" on="1"/>
        <pt x="88" y="318" on="0"/>
        <pt x="88" y="347" on="1"/>
      </contour>
      <contour>
        <pt x="-18" y="859" on="0"/>
        <pt x="8" y="890" on="0"/>
        <pt x="35" y="894" on="0"/>
        <pt x="56" y="894" on="1"/>
        <pt x="98" y="894" on="0"/>
        <pt x="98" y="849" on="1"/>
        <pt x="98" y="785" on="0"/>
        <pt x="33" y="785" on="1"/>
        <pt x="11" y="785" on="0"/>
        <pt x="-18" y="812" on="0"/>
      </contour>
      <contour>
        <pt x="182" y="858" on="0"/>
        <pt x="208" y="890" on="0"/>
        <pt x="236" y="894" on="0"/>
        <pt x="256" y="894" on="1"/>
        <pt x="298" y="894" on="0"/>
        <pt x="298" y="849" on="1"/>
        <pt x="298" y="785" on="0"/>
        <pt x="234" y="785" on="1"/>
        <pt x="211" y="785" on="0"/>
        <pt x="182" y="812" on="0"/>
      </contour>
    </TTGlyph>
    <TTGlyph name="Igrave" xMin="21" yMin="0" xMax="220" yMax="933">
      <component glyphName="I" x="0" y="0" flags="0x1004"/>
      <component glyphName="grave" x="-56" y="268" flags="0x1004"/>
    </TTGlyph>
    <TTGlyph name="Itilde" xMin="-50" yMin="0" xMax="330" yMax="911">
      <component glyphName="I" x="0" y="0" flags="0x1004"/>
      <component glyphName="tilde" x="-127" y="268" flags="0x1004"/>
    </TTGlyph>
    <TTGlyph name="J" xMin="-89" yMin="-262" xMax="190" yMax="700">
      <contour>
        <pt x="88" y="448" on="1"/>
        <pt x="88" y="540" on="0"/>
        <pt x="91" y="593" on="0"/>
        <pt x="92" y="620" on="1"/>
        <pt x="93" y="688" on="0"/>
        <pt x="105" y="700" on="0"/>
        <pt x="179" y="700" on="0"/>
        <pt x="182" y="697" on="1"/>
        <pt x="190" y="689" on="0"/>
        <pt x="190" y="575" on="1"/>
        <pt x="190" y="7" on="1"/>
        <pt x="190" y="-121" on="0"/>
        <pt x="139" y="-191" on="1"/>
        <pt x="118" y="-220" on="0"/>
        <pt x="39" y="-262" on="0"/>
        <pt x="-4" y="-262" on="1"/>
        <pt x="-89" y="-262" on="0"/>
        <pt x="-89" y="-202" on="0"/>
        <pt x="-74" y="-190" on="1"/>
        <pt x="-34" y="-195" on="0"/>
        <pt x="-16" y="-195" on="1"/>
        <pt x="25" y="-195" on="0"/>
        <pt x="87" y="-142" on="0"/>
        <pt x="87" y="-79" on="1"/>
      </contour>
    </TTGlyph>
    <TTGlyph name="Jcircumflex" xMin="-89" yMin="-262" xMax="293" yMax="926">
      <component glyphName="J" x="0" y="0" flags="0x1004"/>
      <component glyphName="circumflex" x="-93" y="268" flags="0x1004"/>
    </TTGlyph>
    <TTGlyph name="K" xMin="88" yMin="-12" xMax="640" yMax="712">
      <contour>
        <pt x="92" y="65" on="1"/>
        <pt x="88" y="503" on="1"/>
        <pt x="88" y="639" on="0"/>
        <pt x="92" y="693" on="1"/>
        <pt x="93" y="701" on="0"/>
        <pt x="175" y="701" on="0"/>
        <pt x="188" y="691" on="0"/>
        <pt x="188" y="680" on="1"/>
        <pt x="188" y="468" on="0"/>
        <pt x="192" y="395" on="1"/>
        <pt x="214" y="411" on="0"/>
        <pt x="448" y="635" on="0"/>
        <pt x="496" y="680" on="0"/>
        <pt x="510" y="695" on="0"/>
        <pt x="515" y="700" on="1"/>
        <pt x="529" y="712" on="0"/>
        <pt x="547" y="712" on="0"/>
        <pt x="575" y="683" on="0"/>
        <pt x="575" y="669" on="0"/>
        <pt x="563" y="655" on="0"/>
        <pt x="543" y="636" on="0"/>
        <pt x="540" y="633" on="1"/>
        <pt x="447" y="535" on="0"/>
        <pt x="301" y="398" on="1"/>
        <pt x="271" y="372" on="0"/>
        <pt x="271" y="361" on="0"/>
        <pt x="291" y="347" on="0"/>
        <pt x="319" y="330" on="0"/>
        <pt x="350" y="306" on="0"/>
        <pt x="455" y="215" on="0"/>
        <pt x="469" y="204" on="1"/>
        <pt x="640" y="61" on="0"/>
        <pt x="640" y="38" on="1"/>
        <pt x="640" y="27" on="0"/>
        <pt x="596" y="-12" on="0"/>
        <pt x="578" y="-12" on="0"/>
        <pt x="562" y="-4" on="0"/>
        <pt x="557" y="0" on="1"/>
        <pt x="534" y="22" on="0"/>
        <pt x="529" y="25" on="1"/>
        <pt x="530" y="25" on="1"/>
        <pt x="482" y="66" on="1"/>
        <pt x="435" y="106" on="0"/>
        <pt x="291" y="228" on="0"/>
        <pt x="245" y="268" on="0"/>
        <pt x="229" y="282" on="0"/>
        <pt x="224" y="286" on="1"/>
        <pt x="212" y="299" on="0"/>
        <pt x="197" y="303" on="1"/>
        <pt x="190" y="299" on="0"/>
        <pt x="190" y="239" on="1"/>
        <pt x="190" y="239" on="0"/>
        <pt x="192" y="136" on="1"/>
        <pt x="196" y="49" on="1"/>
        <pt x="196" y="18" on="0"/>
        <pt x="177" y="0" on="0"/>
        <pt x="122" y="0" on="0"/>
        <pt x="101" y="7" on="0"/>
        <pt x="97" y="19" on="1"/>
        <pt x="92" y="34" on="0"/>
      </contour>
    </TTGlyph>
    <TTGlyph name="L" xMin="88" yMin="0" xMax="532" yMax="701">
      <contour>
        <pt x="190" y="465" on="1"/>
        <pt x="191" y="271" on="1"/>
        <pt x="191" y="171" on="0"/>
        <pt x="188" y="84" on="1"/>
        <pt x="206" y="76" on="0"/>
        <pt x="238" y="76" on="1"/>
        <pt x="276" y="76" on="1"/>
        <pt x="348" y="74" on="0"/>
        <pt x="371" y="74" on="1"/>
        <pt x="448" y="75" on="1"/>
        <pt x="519" y="84" on="1"/>
        <pt x="532" y="84" on="0"/>
        <pt x="532" y="43" on="0"/>
        <pt x="498" y="0" on="0"/>
        <pt x="488" y="0" on="1"/>
        <pt x="307" y="1" on="1"/>
        <pt x="170" y="1" on="1"/>
        <pt x="107" y="1" on="0"/>
        <pt x="98" y="9" on="1"/>
        <pt x="88" y="19" on="0"/>
        <pt x="88" y="192" on="1"/>
        <pt x="90" y="417" on="1"/>
        <pt x="93" y="634" on="1"/>
        <pt x="93" y="675" on="0"/>
        <pt x="104" y="700" on="0"/>
        <pt x="125" y="700" on="1"/>
        <pt x="142" y="700" on="1"/>
        <pt x="171" y="701" on="1"/>
        <pt x="192" y="701" on="0"/>
        <pt x="192" y="664" on="1"/>
        <pt x="192" y="529" on="1"/>
      </contour>
    </TTGlyph>
    <TTGlyph name="Ldotaccent" xMin="88" yMin="0" xMax="532" yMax="701">
      <contour>
        <pt x="190" y="465" on="1"/>
        <pt x="191" y="271" on="1"/>
        <pt x="191" y="171" on="0"/>
        <pt x="188" y="84" on="1"/>
        <pt x="206" y="76" on="0"/>
        <pt x="238" y="76" on="1"/>
        <pt x="276" y="76" on="1"/>
        <pt x="348" y="74" on="0"/>
        <pt x="371" y="74" on="1"/>
        <pt x="448" y="75" on="1"/>
        <pt x="519" y="84" on="1"/>
        <pt x="532" y="84" on="0"/>
        <pt x="532" y="43" on="0"/>
        <pt x="498" y="0" on="0"/>
        <pt x="488" y="0" on="1"/>
        <pt x="307" y="1" on="1"/>
        <pt x="170" y="1" on="1"/>
        <pt x="107" y="1" on="0"/>
        <pt x="98" y="9" on="1"/>
        <pt x="88" y="19" on="0"/>
        <pt x="88" y="192" on="1"/>
        <pt x="90" y="417" on="1"/>
        <pt x="93" y="634" on="1"/>
        <pt x="93" y="675" on="0"/>
        <pt x="104" y="700" on="0"/>
        <pt x="125" y="700" on="1"/>
        <pt x="142" y="700" on="1"/>
        <pt x="171" y="701" on="1"/>
        <pt x="192" y="701" on="0"/>
        <pt x="192" y="664" on="1"/>
        <pt x="192" y="529" on="1"/>
      </contour>
      <contour>
        <pt x="277" y="378" on="1"/>
        <pt x="277" y="398" on="0"/>
        <pt x="327" y="440" on="0"/>
        <pt x="365" y="440" on="1"/>
        <pt x="423" y="440" on="0"/>
        <pt x="423" y="384" on="1"/>
        <pt x="423" y="351" on="0"/>
        <pt x="379" y="308" on="0"/>
        <pt x="330" y="308" on="0"/>
        <pt x="277" y="343" on="0"/>
      </contour>
    </TTGlyph>
    <TTGlyph name="Lslash" xMin="-3" yMin="0" xMax="532" yMax="701">
      <contour>
        <pt x="488" y="0" on="1"/>
        <pt x="307" y="1" on="1"/>
        <pt x="170" y="1" on="1"/>
        <pt x="107" y="1" on="0"/>
        <pt x="98" y="9" on="1"/>
        <pt x="88" y="19" on="0"/>
        <pt x="88" y="222" on="1"/>
        <pt x="41" y="195" on="0"/>
        <pt x="16" y="199" on="0"/>
        <pt x="-3" y="233" on="0"/>
        <pt x="-3" y="241" on="1"/>
        <pt x="-3" y="250" on="0"/>
        <pt x="43" y="276" on="0"/>
        <pt x="73" y="293" on="0"/>
        <pt x="89" y="301" on="1"/>
        <pt x="90" y="417" on="1"/>
        <pt x="93" y="634" on="1"/>
        <pt x="93" y="675" on="0"/>
        <pt x="104" y="700" on="0"/>
        <pt x="125" y="700" on="1"/>
        <pt x="142" y="700" on="1"/>
        <pt x="171" y="701" on="1"/>
        <pt x="192" y="701" on="0"/>
        <pt x="192" y="664" on="1"/>
        <pt x="192" y="529" on="1"/>
        <pt x="190" y="465" on="1"/>
        <pt x="190" y="395" on="0"/>
        <pt x="191" y="358" on="1"/>
        <pt x="221" y="374" on="0"/>
        <pt x="293" y="415" on="0"/>
        <pt x="317" y="427" on="0"/>
        <pt x="331" y="421" on="0"/>
        <pt x="346" y="394" on="0"/>
        <pt x="349" y="383" on="0"/>
        <pt x="343" y="373" on="0"/>
        <pt x="339" y="367" on="0"/>
        <pt x="331" y="362" on="1"/>
        <pt x="318" y="353" on="0"/>
        <pt x="303" y="344" on="0"/>
        <pt x="217" y="294" on="0"/>
        <pt x="191" y="279" on="1"/>
        <pt x="191" y="271" on="1"/>
        <pt x="191" y="171" on="0"/>
        <pt x="188" y="84" on="1"/>
        <pt x="206" y="76" on="0"/>
        <pt x="238" y="76" on="1"/>
        <pt x="276" y="76" on="1"/>
        <pt x="348" y="74" on="0"/>
        <pt x="371" y="74" on="1"/>
        <pt x="448" y="75" on="1"/>
        <pt x="519" y="84" on="1"/>
        <pt x="532" y="84" on="0"/>
        <pt x="532" y="43" on="0"/>
        <pt x="498" y="0" on="0"/>
      </contour>
    </TTGlyph>
    <TTGlyph name="M" xMin="77" yMin="-2" xMax="907" yMax="705">
      <contour>
        <pt x="214" y="705" on="1"/>
        <pt x="224" y="704" on="1"/>
        <pt x="225" y="704" on="0"/>
        <pt x="229" y="700" on="0"/>
        <pt x="231" y="699" on="0"/>
        <pt x="235" y="693" on="0"/>
        <pt x="236" y="690" on="0"/>
        <pt x="238" y="686" on="1"/>
        <pt x="258" y="650" on="0"/>
        <pt x="356" y="461" on="1"/>
        <pt x="389" y="403" on="0"/>
        <pt x="425" y="326" on="0"/>
        <pt x="459" y="256" on="0"/>
        <pt x="485" y="206" on="0"/>
        <pt x="493" y="206" on="0"/>
        <pt x="502" y="215" on="0"/>
        <pt x="513" y="230" on="0"/>
        <pt x="521" y="243" on="0"/>
        <pt x="531" y="261" on="0"/>
        <pt x="573" y="331" on="0"/>
        <pt x="716" y="584" on="0"/>
        <pt x="749" y="640" on="1"/>
        <pt x="779" y="695" on="1"/>
        <pt x="788" y="701" on="0"/>
        <pt x="834" y="702" on="0"/>
        <pt x="840" y="695" on="1"/>
        <pt x="847" y="671" on="0"/>
        <pt x="855" y="559" on="0"/>
        <pt x="858" y="528" on="0"/>
        <pt x="880" y="320" on="1"/>
        <pt x="907" y="56" on="0"/>
        <pt x="907" y="11" on="0"/>
        <pt x="891" y="-1" on="0"/>
        <pt x="836" y="-2" on="1"/>
        <pt x="806" y="-2" on="0"/>
        <pt x="804" y="71" on="1"/>
        <pt x="804" y="84" on="0"/>
        <pt x="771" y="506" on="0"/>
        <pt x="768" y="532" on="1"/>
        <pt x="751" y="504" on="0"/>
        <pt x="616" y="269" on="0"/>
        <pt x="579" y="211" on="0"/>
        <pt x="521" y="112" on="0"/>
        <pt x="481" y="53" on="0"/>
        <pt x="465" y="53" on="0"/>
        <pt x="436" y="98" on="0"/>
        <pt x="420" y="136" on="0"/>
        <pt x="323" y="329" on="0"/>
        <pt x="213" y="543" on="0"/>
        <pt x="208" y="554" on="1"/>
        <pt x="208" y="549" on="0"/>
        <pt x="179" y="272" on="0"/>
        <pt x="169" y="158" on="0"/>
        <pt x="160" y="55" on="1"/>
        <pt x="157" y="17" on="0"/>
        <pt x="138" y="0" on="0"/>
        <pt x="88" y="-2" on="0"/>
        <pt x="78" y="4" on="0"/>
        <pt x="77" y="26" on="0"/>
        <pt x="84" y="68" on="0"/>
        <pt x="93" y="169" on="0"/>
        <pt x="135" y="514" on="0"/>
        <pt x="143" y="591" on="0"/>
        <pt x="157" y="668" on="0"/>
        <pt x="158" y="691" on="0"/>
        <pt x="192" y="705" on="0"/>
      </contour>
    </TTGlyph>
    <TTGlyph name="N" xMin="88" yMin="-10" xMax="781" yMax="708">
      <contour>
        <pt x="90" y="220" on="1"/>
        <pt x="89" y="343" on="1"/>
        <pt x="94" y="575" on="0"/>
        <pt x="94" y="642" on="0"/>
        <pt x="92" y="674" on="0"/>
        <pt x="94" y="685" on="0"/>
        <pt x="97" y="694" on="1"/>
        <pt x="102" y="708" on="0"/>
        <pt x="129" y="708" on="1"/>
        <pt x="143" y="708" on="0"/>
        <pt x="173" y="676" on="1"/>
        <pt x="215" y="637" on="0"/>
        <pt x="323" y="525" on="0"/>
        <pt x="355" y="496" on="0"/>
        <pt x="684" y="161" on="0"/>
        <pt x="698" y="146" on="1"/>
        <pt x="703" y="186" on="0"/>
        <pt x="703" y="242" on="1"/>
        <pt x="704" y="368" on="1"/>
        <pt x="704" y="476" on="0"/>
        <pt x="708" y="696" on="1"/>
        <pt x="757" y="703" on="0"/>
        <pt x="773" y="703" on="0"/>
        <pt x="781" y="694" on="0"/>
        <pt x="781" y="674" on="1"/>
        <pt x="775" y="361" on="1"/>
        <pt x="775" y="228" on="0"/>
        <pt x="771" y="96" on="1"/>
        <pt x="770" y="55" on="1"/>
        <pt x="770" y="15" on="0"/>
        <pt x="756" y="-10" on="0"/>
        <pt x="731" y="-10" on="1"/>
        <pt x="715" y="-10" on="0"/>
        <pt x="686" y="15" on="0"/>
        <pt x="672" y="28" on="0"/>
        <pt x="652" y="50" on="0"/>
        <pt x="648" y="54" on="1"/>
        <pt x="546" y="158" on="1"/>
        <pt x="293" y="416" on="0"/>
        <pt x="200" y="509" on="0"/>
        <pt x="190" y="522" on="0"/>
        <pt x="186" y="526" on="1"/>
        <pt x="176" y="536" on="0"/>
        <pt x="167" y="536" on="1"/>
        <pt x="161" y="536" on="0"/>
        <pt x="161" y="517" on="1"/>
        <pt x="163" y="343" on="1"/>
        <pt x="160" y="56" on="1"/>
        <pt x="160" y="31" on="1"/>
        <pt x="160" y="-3" on="0"/>
        <pt x="112" y="-3" on="1"/>
        <pt x="96" y="-3" on="0"/>
        <pt x="88" y="13" on="0"/>
        <pt x="88" y="42" on="1"/>
      </contour>
    </TTGlyph>
    <TTGlyph name="Nacute" xMin="88" yMin="-10" xMax="781" yMax="923">
      <component glyphName="N" x="0" y="0" flags="0x1004"/>
      <component glyphName="acute" x="298" y="258" flags="0x1004"/>
    </TTGlyph>
    <TTGlyph name="Ntilde" xMin="88" yMin="-10" xMax="781" yMax="911">
      <component glyphName="N" x="0" y="0" flags="0x1004"/>
      <component glyphName="tilde" x="167" y="268" flags="0x1004"/>
    </TTGlyph>
    <TTGlyph name="O" xMin="55" yMin="-12" xMax="799" yMax="712">
      <contour>
        <pt x="55" y="341" on="1"/>
        <pt x="55" y="400" on="0"/>
        <pt x="97" y="526" on="0"/>
        <pt x="156" y="605" on="0"/>
        <pt x="238" y="672" on="0"/>
        <pt x="366" y="712" on="0"/>
        <pt x="444" y="712" on="1"/>
        <pt x="594" y="712" on="0"/>
        <pt x="799" y="525" on="0"/>
        <pt x="799" y="196" on="0"/>
        <pt x="581" y="-12" on="0"/>
        <pt x="274" y="-12" on="0"/>
        <pt x="55" y="186" on="0"/>
      </contour>
      <contour>
        <pt x="328" y="633" on="0"/>
        <pt x="166" y="483" on="0"/>
        <pt x="166" y="229" on="0"/>
        <pt x="311" y="71" on="0"/>
        <pt x="556" y="71" on="0"/>
        <pt x="709" y="232" on="0"/>
        <pt x="709" y="476" on="0"/>
        <pt x="558" y="633" on="0"/>
        <pt x="455" y="633" on="1"/>
      </contour>
    </TTGlyph>
    <TTGlyph name="OE" xMin="55" yMin="-12" xMax="988" yMax="712">
      <contour>
        <pt x="920" y="626" on="1"/>
        <pt x="797" y="628" on="1"/>
        <pt x="695" y="628" on="0"/>
        <pt x="655" y="621" on="1"/>
        <pt x="653" y="553" on="0"/>
        <pt x="653" y="411" on="1"/>
        <pt x="824" y="412" on="1"/>
        <pt x="841" y="412" on="1"/>
        <pt x="937" y="412" on="0"/>
        <pt x="937" y="381" on="0"/>
        <pt x="923" y="344" on="0"/>
        <pt x="905" y="338" on="0"/>
        <pt x="876" y="338" on="1"/>
        <pt x="655" y="339" on="1"/>
        <pt x="654" y="310" on="0"/>
        <pt x="654" y="293" on="1"/>
        <pt x="653" y="212" on="1"/>
        <pt x="653" y="156" on="1"/>
        <pt x="653" y="90" on="0"/>
        <pt x="656" y="84" on="1"/>
        <pt x="662" y="72" on="0"/>
        <pt x="842" y="72" on="1"/>
        <pt x="904" y="72" on="0"/>
        <pt x="931" y="75" on="1"/>
        <pt x="973" y="83" on="1"/>
        <pt x="988" y="83" on="0"/>
        <pt x="988" y="64" on="0"/>
        <pt x="979" y="43" on="1"/>
        <pt x="969" y="9" on="0"/>
        <pt x="965" y="6" on="1"/>
        <pt x="955" y="0" on="0"/>
        <pt x="805" y="0" on="1"/>
        <pt x="622" y="0" on="1"/>
        <pt x="586" y="0" on="0"/>
        <pt x="461" y="-12" on="0"/>
        <pt x="423" y="-12" on="1"/>
        <pt x="274" y="-12" on="0"/>
        <pt x="55" y="186" on="0"/>
        <pt x="55" y="341" on="1"/>
        <pt x="55" y="400" on="0"/>
        <pt x="97" y="526" on="0"/>
        <pt x="156" y="605" on="0"/>
        <pt x="238" y="672" on="0"/>
        <pt x="366" y="712" on="0"/>
        <pt x="444" y="712" on="1"/>
        <pt x="475" y="712" on="0"/>
        <pt x="583" y="698" on="0"/>
        <pt x="632" y="698" on="0"/>
        <pt x="660" y="700" on="0"/>
        <pt x="759" y="700" on="1"/>
        <pt x="891" y="699" on="1"/>
        <pt x="938" y="699" on="0"/>
        <pt x="948" y="688" on="0"/>
        <pt x="948" y="683" on="1"/>
        <pt x="944" y="659" on="1"/>
        <pt x="943" y="654" on="0"/>
        <pt x="943" y="641" on="0"/>
        <pt x="942" y="635" on="0"/>
        <pt x="940" y="632" on="1"/>
        <pt x="937" y="626" on="0"/>
      </contour>
      <contour>
        <pt x="555" y="574" on="1"/>
        <pt x="554" y="615" on="1"/>
        <pt x="502" y="633" on="0"/>
        <pt x="455" y="633" on="1"/>
        <pt x="328" y="633" on="0"/>
        <pt x="166" y="483" on="0"/>
        <pt x="166" y="229" on="0"/>
        <pt x="311" y="71" on="0"/>
        <pt x="428" y="71" on="1"/>
        <pt x="508" y="71" on="0"/>
        <pt x="551" y="90" on="1"/>
        <pt x="551" y="136" on="1"/>
        <pt x="554" y="493" on="1"/>
      </contour>
    </TTGlyph>
    <TTGlyph name="Oacute" xMin="55" yMin="-12" xMax="799" yMax="933">
      <contour>
        <pt x="55" y="341" on="1"/>
        <pt x="55" y="400" on="0"/>
        <pt x="97" y="526" on="0"/>
        <pt x="156" y="605" on="0"/>
        <pt x="238" y="672" on="0"/>
        <pt x="366" y="712" on="0"/>
        <pt x="444" y="712" on="1"/>
        <pt x="594" y="712" on="0"/>
        <pt x="799" y="525" on="0"/>
        <pt x="799" y="196" on="0"/>
        <pt x="581" y="-12" on="0"/>
        <pt x="274" y="-12" on="0"/>
        <pt x="55" y="186" on="0"/>
      </contour>
      <contour>
        <pt x="328" y="633" on="0"/>
        <pt x="166" y="483" on="0"/>
        <pt x="166" y="229" on="0"/>
        <pt x="311" y="71" on="0"/>
        <pt x="556" y="71" on="0"/>
        <pt x="709" y="232" on="0"/>
        <pt x="709" y="476" on="0"/>
        <pt x="558" y="633" on="0"/>
        <pt x="455" y="633" on="1"/>
      </contour>
      <contour>
        <pt x="526" y="868" on="0"/>
        <pt x="472" y="819" on="0"/>
        <pt x="393" y="778" on="0"/>
        <pt x="358" y="778" on="1"/>
        <pt x="347" y="778" on="0"/>
        <pt x="329" y="796" on="0"/>
        <pt x="327" y="812" on="0"/>
        <pt x="344" y="826" on="0"/>
        <pt x="375" y="846" on="0"/>
        <pt x="404" y="868" on="0"/>
        <pt x="440" y="911" on="0"/>
        <pt x="459" y="933" on="0"/>
        <pt x="487" y="933" on="0"/>
        <pt x="526" y="902" on="0"/>
      </contour>
    </TTGlyph>
    <TTGlyph name="Ocircumflex" xMin="55" yMin="-12" xMax="799" yMax="926">
      <component glyphName="O" x="0" y="0" flags="0x1004"/>
      <component glyphName="circumflex" x="195" y="268" flags="0x1004"/>
    </TTGlyph>
    <TTGlyph name="Odieresis" xMin="55" yMin="-12" xMax="799" yMax="894">
      <component glyphName="O" x="0" y="0" flags="0x1004"/>
      <component glyphName="dieresis" x="192" y="268" flags="0x1004"/>
    </TTGlyph>
    <TTGlyph name="Ograve" xMin="55" yMin="-12" xMax="799" yMax="933">
      <component glyphName="O" x="0" y="0" flags="0x1004"/>
      <component glyphName="grave" x="250" y="268" flags="0x1004"/>
    </TTGlyph>
    <TTGlyph name="Oslash" xMin="55" yMin="-40" xMax="799" yMax="735">
      <contour>
        <pt x="55" y="341" on="1"/>
        <pt x="55" y="400" on="0"/>
        <pt x="97" y="526" on="0"/>
        <pt x="156" y="605" on="0"/>
        <pt x="238" y="672" on="0"/>
        <pt x="366" y="712" on="0"/>
        <pt x="444" y="712" on="1"/>
        <pt x="552" y="712" on="0"/>
        <pt x="637" y="662" on="1"/>
        <pt x="700" y="735" on="0"/>
        <pt x="714" y="735" on="1"/>
        <pt x="715" y="735" on="0"/>
        <pt x="727" y="730" on="0"/>
        <pt x="754" y="706" on="0"/>
        <pt x="753" y="698" on="0"/>
        <pt x="692" y="622" on="1"/>
        <pt x="799" y="526" on="0"/>
        <pt x="799" y="196" on="0"/>
        <pt x="581" y="-12" on="0"/>
        <pt x="423" y="-12" on="1"/>
        <pt x="314" y="-12" on="0"/>
        <pt x="225" y="42" on="1"/>
        <pt x="150" y="-40" on="0"/>
        <pt x="137" y="-40" on="1"/>
        <pt x="136" y="-40" on="0"/>
        <pt x="136" y="-40" on="1"/>
        <pt x="100" y="-27" on="0"/>
        <pt x="100" y="-8" on="1"/>
        <pt x="100" y="-5" on="0"/>
        <pt x="106" y="11" on="0"/>
        <pt x="166" y="85" on="1"/>
        <pt x="55" y="188" on="0"/>
      </contour>
      <contour>
        <pt x="556" y="71" on="0"/>
        <pt x="709" y="232" on="0"/>
        <pt x="709" y="472" on="0"/>
        <pt x="636" y="552" on="1"/>
        <pt x="489" y="369" on="0"/>
        <pt x="447" y="315" on="1"/>
        <pt x="377" y="221" on="0"/>
        <pt x="284" y="111" on="1"/>
        <pt x="346" y="71" on="0"/>
        <pt x="428" y="71" on="1"/>
      </contour>
      <contour>
        <pt x="229" y="160" on="1"/>
        <pt x="313" y="261" on="0"/>
        <pt x="505" y="508" on="0"/>
        <pt x="580" y="597" on="1"/>
        <pt x="522" y="633" on="0"/>
        <pt x="455" y="633" on="1"/>
        <pt x="328" y="633" on="0"/>
        <pt x="166" y="483" on="0"/>
        <pt x="166" y="239" on="0"/>
      </contour>
    </TTGlyph>
    <TTGlyph name="Otilde" xMin="55" yMin="-12" xMax="799" yMax="911">
      <contour>
        <pt x="55" y="341" on="1"/>
        <pt x="55" y="400" on="0"/>
        <pt x="97" y="526" on="0"/>
        <pt x="156" y="605" on="0"/>
        <pt x="238" y="672" on="0"/>
        <pt x="366" y="712" on="0"/>
        <pt x="444" y="712" on="1"/>
        <pt x="594" y="712" on="0"/>
        <pt x="799" y="525" on="0"/>
        <pt x="799" y="196" on="0"/>
        <pt x="581" y="-12" on="0"/>
        <pt x="274" y="-12" on="0"/>
        <pt x="55" y="186" on="0"/>
      </contour>
      <contour>
        <pt x="328" y="633" on="0"/>
        <pt x="166" y="483" on="0"/>
        <pt x="166" y="229" on="0"/>
        <pt x="311" y="71" on="0"/>
        <pt x="556" y="71" on="0"/>
        <pt x="709" y="232" on="0"/>
        <pt x="709" y="476" on="0"/>
        <pt x="558" y="633" on="0"/>
        <pt x="455" y="633" on="1"/>
      </contour>
      <contour>
        <pt x="358" y="911" on="1"/>
        <pt x="392" y="911" on="0"/>
        <pt x="505" y="858" on="0"/>
        <pt x="547" y="858" on="0"/>
        <pt x="574" y="883" on="0"/>
        <pt x="589" y="908" on="0"/>
        <pt x="604" y="908" on="0"/>
        <pt x="617" y="897" on="0"/>
        <pt x="617" y="891" on="1"/>
        <pt x="617" y="865" on="0"/>
        <pt x="551" y="790" on="0"/>
        <pt x="503" y="790" on="1"/>
        <pt x="471" y="790" on="0"/>
        <pt x="368" y="840" on="0"/>
        <pt x="315" y="840" on="0"/>
        <pt x="290" y="823" on="0"/>
        <pt x="285" y="812" on="1"/>
        <pt x="272" y="785" on="0"/>
        <pt x="260" y="785" on="1"/>
        <pt x="253" y="785" on="0"/>
        <pt x="237" y="793" on="0"/>
        <pt x="237" y="801" on="1"/>
        <pt x="237" y="826" on="0"/>
        <pt x="304" y="911" on="0"/>
      </contour>
    </TTGlyph>
    <TTGlyph name="P" xMin="88" yMin="-1" xMax="518" yMax="700">
      <contour>
        <pt x="88" y="540" on="1"/>
        <pt x="89" y="617" on="1"/>
        <pt x="89" y="668" on="0"/>
        <pt x="110" y="700" on="0"/>
        <pt x="147" y="700" on="1"/>
        <pt x="306" y="700" on="0"/>
        <pt x="374" y="673" on="1"/>
        <pt x="518" y="617" on="0"/>
        <pt x="518" y="474" on="1"/>
        <pt x="518" y="443" on="0"/>
        <pt x="493" y="365" on="0"/>
        <pt x="479" y="343" on="1"/>
        <pt x="449" y="298" on="0"/>
        <pt x="348" y="230" on="0"/>
        <pt x="283" y="230" on="1"/>
        <pt x="254" y="230" on="0"/>
        <pt x="254" y="254" on="1"/>
        <pt x="254" y="267" on="0"/>
        <pt x="256" y="279" on="1"/>
        <pt x="423" y="326" on="0"/>
        <pt x="423" y="457" on="1"/>
        <pt x="423" y="622" on="0"/>
        <pt x="203" y="622" on="1"/>
        <pt x="193" y="622" on="0"/>
        <pt x="187" y="609" on="0"/>
        <pt x="187" y="593" on="1"/>
        <pt x="187" y="474" on="1"/>
        <pt x="190" y="86" on="1"/>
        <pt x="190" y="29" on="0"/>
        <pt x="164" y="-1" on="0"/>
        <pt x="100" y="-1" on="0"/>
        <pt x="88" y="18" on="0"/>
        <pt x="88" y="42" on="1"/>
      </contour>
    </TTGlyph>
    <TTGlyph name="Q" xMin="55" yMin="-176" xMax="876" yMax="712">
      <contour>
        <pt x="589" y="23" on="1"/>
        <pt x="585" y="21" on="0"/>
        <pt x="572" y="17" on="0"/>
        <pt x="561" y="13" on="0"/>
        <pt x="550" y="9" on="0"/>
        <pt x="544" y="6" on="0"/>
        <pt x="546" y="1" on="0"/>
        <pt x="582" y="-20" on="0"/>
        <pt x="629" y="-38" on="0"/>
        <pt x="798" y="-93" on="0"/>
        <pt x="876" y="-107" on="0"/>
        <pt x="876" y="-117" on="1"/>
        <pt x="876" y="-129" on="0"/>
        <pt x="850" y="-176" on="0"/>
        <pt x="844" y="-176" on="1"/>
        <pt x="839" y="-175" on="0"/>
        <pt x="812" y="-169" on="0"/>
        <pt x="769" y="-162" on="0"/>
        <pt x="612" y="-114" on="0"/>
        <pt x="555" y="-91" on="0"/>
        <pt x="507" y="-67" on="1"/>
        <pt x="404" y="-15" on="0"/>
        <pt x="345" y="-4" on="1"/>
        <pt x="221" y="21" on="0"/>
        <pt x="56" y="207" on="0"/>
        <pt x="55" y="341" on="1"/>
        <pt x="55" y="397" on="0"/>
        <pt x="97" y="524" on="0"/>
        <pt x="156" y="603" on="0"/>
        <pt x="238" y="671" on="0"/>
        <pt x="366" y="712" on="0"/>
        <pt x="444" y="712" on="1"/>
        <pt x="594" y="712" on="0"/>
        <pt x="799" y="525" on="0"/>
        <pt x="799" y="358" on="1"/>
        <pt x="799" y="243" on="0"/>
        <pt x="685" y="67" on="0"/>
      </contour>
      <contour>
        <pt x="328" y="633" on="0"/>
        <pt x="166" y="483" on="0"/>
        <pt x="166" y="229" on="0"/>
        <pt x="311" y="71" on="0"/>
        <pt x="556" y="71" on="0"/>
        <pt x="709" y="232" on="0"/>
        <pt x="709" y="476" on="0"/>
        <pt x="558" y="633" on="0"/>
        <pt x="455" y="633" on="1"/>
      </contour>
    </TTGlyph>
    <TTGlyph name="R" xMin="88" yMin="-12" xMax="614" yMax="700">
      <contour>
        <pt x="143" y="-2" on="1"/>
        <pt x="110" y="-1" on="1"/>
        <pt x="104" y="-1" on="0"/>
        <pt x="95" y="0" on="1"/>
        <pt x="89" y="47" on="0"/>
        <pt x="89" y="134" on="1"/>
        <pt x="88" y="267" on="1"/>
        <pt x="88" y="382" on="1"/>
        <pt x="88" y="464" on="0"/>
        <pt x="90" y="614" on="1"/>
        <pt x="90" y="665" on="1"/>
        <pt x="90" y="682" on="0"/>
        <pt x="116" y="698" on="0"/>
        <pt x="142" y="700" on="0"/>
        <pt x="158" y="700" on="1"/>
        <pt x="178" y="700" on="1"/>
        <pt x="321" y="700" on="0"/>
        <pt x="510" y="583" on="0"/>
        <pt x="510" y="483" on="1"/>
        <pt x="510" y="419" on="0"/>
        <pt x="472" y="364" on="1"/>
        <pt x="387" y="279" on="1"/>
        <pt x="387" y="275" on="0"/>
        <pt x="451" y="212" on="1"/>
        <pt x="553" y="113" on="0"/>
        <pt x="587" y="75" on="0"/>
        <pt x="600" y="62" on="0"/>
        <pt x="604" y="58" on="1"/>
        <pt x="614" y="46" on="0"/>
        <pt x="613" y="32" on="0"/>
        <pt x="572" y="-12" on="0"/>
        <pt x="562" y="-12" on="1"/>
        <pt x="552" y="-12" on="0"/>
        <pt x="523" y="19" on="0"/>
        <pt x="496" y="43" on="0"/>
        <pt x="421" y="121" on="0"/>
        <pt x="307" y="234" on="0"/>
        <pt x="303" y="234" on="1"/>
        <pt x="192" y="211" on="1"/>
        <pt x="190" y="203" on="0"/>
        <pt x="190" y="14" on="0"/>
        <pt x="174" y="-2" on="0"/>
      </contour>
      <contour>
        <pt x="190" y="625" on="1"/>
        <pt x="187" y="609" on="0"/>
        <pt x="187" y="397" on="0"/>
        <pt x="191" y="270" on="1"/>
        <pt x="276" y="275" on="0"/>
        <pt x="414" y="390" on="0"/>
        <pt x="414" y="534" on="0"/>
        <pt x="299" y="627" on="0"/>
        <pt x="213" y="627" on="1"/>
        <pt x="206" y="627" on="0"/>
      </contour>
    </TTGlyph>
    <TTGlyph name="Racute" xMin="88" yMin="-12" xMax="614" yMax="933">
      <component glyphName="R" x="0" y="0" flags="0x1004"/>
      <component glyphName="acute" x="131" y="268" flags="0x1004"/>
    </TTGlyph>
    <TTGlyph name="Rcaron" xMin="88" yMin="-12" xMax="614" yMax="918">
      <contour>
        <pt x="143" y="-2" on="1"/>
        <pt x="110" y="-1" on="1"/>
        <pt x="104" y="-1" on="0"/>
        <pt x="95" y="0" on="1"/>
        <pt x="89" y="47" on="0"/>
        <pt x="89" y="134" on="1"/>
        <pt x="88" y="267" on="1"/>
        <pt x="88" y="382" on="1"/>
        <pt x="88" y="464" on="0"/>
        <pt x="90" y="614" on="1"/>
        <pt x="90" y="665" on="1"/>
        <pt x="90" y="682" on="0"/>
        <pt x="116" y="698" on="0"/>
        <pt x="142" y="700" on="0"/>
        <pt x="158" y="700" on="1"/>
        <pt x="178" y="700" on="1"/>
        <pt x="321" y="700" on="0"/>
        <pt x="510" y="583" on="0"/>
        <pt x="510" y="483" on="1"/>
        <pt x="510" y="419" on="0"/>
        <pt x="472" y="364" on="1"/>
        <pt x="387" y="279" on="1"/>
        <pt x="387" y="275" on="0"/>
        <pt x="451" y="212" on="1"/>
        <pt x="553" y="113" on="0"/>
        <pt x="587" y="75" on="0"/>
        <pt x="600" y="62" on="0"/>
        <pt x="604" y="58" on="1"/>
        <pt x="614" y="46" on="0"/>
        <pt x="613" y="32" on="0"/>
        <pt x="572" y="-12" on="0"/>
        <pt x="562" y="-12" on="1"/>
        <pt x="552" y="-12" on="0"/>
        <pt x="523" y="19" on="0"/>
        <pt x="496" y="43" on="0"/>
        <pt x="421" y="121" on="0"/>
        <pt x="307" y="234" on="0"/>
        <pt x="303" y="234" on="1"/>
        <pt x="192" y="211" on="1"/>
        <pt x="190" y="203" on="0"/>
        <pt x="190" y="14" on="0"/>
        <pt x="174" y="-2" on="0"/>
      </contour>
      <contour>
        <pt x="190" y="625" on="1"/>
        <pt x="187" y="609" on="0"/>
        <pt x="187" y="397" on="0"/>
        <pt x="191" y="270" on="1"/>
        <pt x="276" y="275" on="0"/>
        <pt x="414" y="390" on="0"/>
        <pt x="414" y="534" on="0"/>
        <pt x="299" y="627" on="0"/>
        <pt x="213" y="627" on="1"/>
        <pt x="206" y="627" on="0"/>
      </contour>
      <contour>
        <pt x="283" y="856" on="0"/>
        <pt x="301" y="856" on="0"/>
        <pt x="353" y="883" on="0"/>
        <pt x="379" y="898" on="1"/>
        <pt x="410" y="917" on="0"/>
        <pt x="428" y="917" on="0"/>
        <pt x="446" y="897" on="0"/>
        <pt x="446" y="884" on="0"/>
        <pt x="409" y="851" on="0"/>
        <pt x="362" y="814" on="0"/>
        <pt x="360" y="812" on="1"/>
        <pt x="310" y="770" on="0"/>
        <pt x="292" y="770" on="1"/>
        <pt x="276" y="770" on="0"/>
        <pt x="254" y="788" on="0"/>
        <pt x="227" y="809" on="0"/>
        <pt x="222" y="814" on="0"/>
        <pt x="200" y="831" on="0"/>
        <pt x="177" y="850" on="0"/>
        <pt x="165" y="860" on="1"/>
        <pt x="138" y="882" on="0"/>
        <pt x="138" y="897" on="0"/>
        <pt x="156" y="918" on="0"/>
        <pt x="170" y="918" on="0"/>
        <pt x="178" y="915" on="0"/>
        <pt x="230" y="883" on="0"/>
      </contour>
    </TTGlyph>
    <TTGlyph name="Rcommaaccent" xMin="88" yMin="-355" xMax="614" yMax="700">
      <contour>
        <pt x="143" y="-2" on="1"/>
        <pt x="110" y="-1" on="1"/>
        <pt x="104" y="-1" on="0"/>
        <pt x="95" y="0" on="1"/>
        <pt x="89" y="47" on="0"/>
        <pt x="89" y="134" on="1"/>
        <pt x="88" y="267" on="1"/>
        <pt x="88" y="382" on="1"/>
        <pt x="88" y="464" on="0"/>
        <pt x="90" y="614" on="1"/>
        <pt x="90" y="665" on="1"/>
        <pt x="90" y="682" on="0"/>
        <pt x="116" y="698" on="0"/>
        <pt x="142" y="700" on="0"/>
        <pt x="158" y="700" on="1"/>
        <pt x="178" y="700" on="1"/>
        <pt x="321" y="700" on="0"/>
        <pt x="510" y="583" on="0"/>
        <pt x="510" y="483" on="1"/>
        <pt x="510" y="419" on="0"/>
        <pt x="472" y="364" on="1"/>
        <pt x="387" y="279" on="1"/>
        <pt x="387" y="275" on="0"/>
        <pt x="451" y="212" on="1"/>
        <pt x="553" y="113" on="0"/>
        <pt x="587" y="75" on="0"/>
        <pt x="600" y="62" on="0"/>
        <pt x="604" y="58" on="1"/>
        <pt x="614" y="46" on="0"/>
        <pt x="613" y="32" on="0"/>
        <pt x="572" y="-12" on="0"/>
        <pt x="562" y="-12" on="1"/>
        <pt x="552" y="-12" on="0"/>
        <pt x="523" y="19" on="0"/>
        <pt x="496" y="43" on="0"/>
        <pt x="421" y="121" on="0"/>
        <pt x="307" y="234" on="0"/>
        <pt x="303" y="234" on="1"/>
        <pt x="192" y="211" on="1"/>
        <pt x="190" y="203" on="0"/>
        <pt x="190" y="14" on="0"/>
        <pt x="174" y="-2" on="0"/>
      </contour>
      <contour>
        <pt x="190" y="625" on="1"/>
        <pt x="187" y="609" on="0"/>
        <pt x="187" y="397" on="0"/>
        <pt x="191" y="270" on="1"/>
        <pt x="276" y="275" on="0"/>
        <pt x="414" y="390" on="0"/>
        <pt x="414" y="534" on="0"/>
        <pt x="299" y="627" on="0"/>
        <pt x="213" y="627" on="1"/>
        <pt x="206" y="627" on="0"/>
      </contour>
      <contour>
        <pt x="316" y="-355" on="1"/>
        <pt x="295" y="-355" on="0"/>
        <pt x="268" y="-333" on="0"/>
        <pt x="268" y="-317" on="0"/>
        <pt x="281" y="-302" on="1"/>
        <pt x="321" y="-254" on="0"/>
        <pt x="321" y="-221" on="1"/>
        <pt x="321" y="-197" on="0"/>
        <pt x="280" y="-182" on="1"/>
        <pt x="265" y="-176" on="0"/>
        <pt x="239" y="-144" on="0"/>
        <pt x="239" y="-89" on="0"/>
        <pt x="284" y="-45" on="0"/>
        <pt x="356" y="-45" on="0"/>
        <pt x="406" y="-100" on="0"/>
        <pt x="406" y="-197" on="0"/>
        <pt x="365" y="-300" on="0"/>
        <pt x="323" y="-355" on="0"/>
      </contour>
    </TTGlyph>
    <TTGlyph name="S" xMin="11" yMin="-12" xMax="421" yMax="712">
      <contour>
        <pt x="370" y="631" on="1"/>
        <pt x="337" y="642" on="0"/>
        <pt x="244" y="642" on="0"/>
        <pt x="170" y="595" on="0"/>
        <pt x="170" y="508" on="0"/>
        <pt x="222" y="444" on="0"/>
        <pt x="296" y="391" on="0"/>
        <pt x="369" y="332" on="0"/>
        <pt x="421" y="244" on="0"/>
        <pt x="421" y="134" on="0"/>
        <pt x="375" y="78" on="1"/>
        <pt x="300" y="-12" on="0"/>
        <pt x="127" y="-12" on="1"/>
        <pt x="103" y="-12" on="0"/>
        <pt x="66" y="-7" on="0"/>
        <pt x="46" y="-5" on="0"/>
        <pt x="35" y="-3" on="1"/>
        <pt x="11" y="1" on="0"/>
        <pt x="11" y="9" on="1"/>
        <pt x="11" y="62" on="0"/>
        <pt x="30" y="74" on="1"/>
        <pt x="71" y="61" on="0"/>
        <pt x="114" y="61" on="1"/>
        <pt x="322" y="61" on="0"/>
        <pt x="322" y="180" on="1"/>
        <pt x="322" y="242" on="0"/>
        <pt x="234" y="307" on="1"/>
        <pt x="197" y="334" on="0"/>
        <pt x="124" y="392" on="0"/>
        <pt x="72" y="479" on="0"/>
        <pt x="72" y="531" on="1"/>
        <pt x="72" y="610" on="0"/>
        <pt x="209" y="712" on="0"/>
        <pt x="301" y="712" on="1"/>
        <pt x="321" y="712" on="0"/>
        <pt x="388" y="703" on="0"/>
        <pt x="393" y="689" on="0"/>
        <pt x="393" y="671" on="0"/>
        <pt x="381" y="636" on="0"/>
      </contour>
    </TTGlyph>
    <TTGlyph name="Scaron" xMin="11" yMin="-12" xMax="421" yMax="918">
      <contour>
        <pt x="370" y="631" on="1"/>
        <pt x="337" y="642" on="0"/>
        <pt x="244" y="642" on="0"/>
        <pt x="170" y="595" on="0"/>
        <pt x="170" y="508" on="0"/>
        <pt x="222" y="444" on="0"/>
        <pt x="296" y="391" on="0"/>
        <pt x="369" y="332" on="0"/>
        <pt x="421" y="244" on="0"/>
        <pt x="421" y="134" on="0"/>
        <pt x="375" y="78" on="1"/>
        <pt x="300" y="-12" on="0"/>
        <pt x="127" y="-12" on="1"/>
        <pt x="103" y="-12" on="0"/>
        <pt x="66" y="-7" on="0"/>
        <pt x="46" y="-5" on="0"/>
        <pt x="35" y="-3" on="1"/>
        <pt x="11" y="1" on="0"/>
        <pt x="11" y="9" on="1"/>
        <pt x="11" y="62" on="0"/>
        <pt x="30" y="74" on="1"/>
        <pt x="71" y="61" on="0"/>
        <pt x="114" y="61" on="1"/>
        <pt x="322" y="61" on="0"/>
        <pt x="322" y="180" on="1"/>
        <pt x="322" y="242" on="0"/>
        <pt x="234" y="307" on="1"/>
        <pt x="197" y="334" on="0"/>
        <pt x="124" y="392" on="0"/>
        <pt x="72" y="479" on="0"/>
        <pt x="72" y="531" on="1"/>
        <pt x="72" y="610" on="0"/>
        <pt x="209" y="712" on="0"/>
        <pt x="301" y="712" on="1"/>
        <pt x="321" y="712" on="0"/>
        <pt x="388" y="703" on="0"/>
        <pt x="393" y="689" on="0"/>
        <pt x="393" y="671" on="0"/>
        <pt x="381" y="636" on="0"/>
      </contour>
      <contour>
        <pt x="234" y="856" on="0"/>
        <pt x="252" y="856" on="0"/>
        <pt x="304" y="883" on="0"/>
        <pt x="330" y="898" on="1"/>
        <pt x="361" y="917" on="0"/>
        <pt x="379" y="917" on="0"/>
        <pt x="397" y="897" on="0"/>
        <pt x="397" y="884" on="0"/>
        <pt x="360" y="851" on="0"/>
        <pt x="313" y="814" on="0"/>
        <pt x="311" y="812" on="1"/>
        <pt x="261" y="770" on="0"/>
        <pt x="243" y="770" on="1"/>
        <pt x="227" y="770" on="0"/>
        <pt x="205" y="788" on="0"/>
        <pt x="178" y="809" on="0"/>
        <pt x="173" y="814" on="0"/>
        <pt x="151" y="831" on="0"/>
        <pt x="128" y="850" on="0"/>
        <pt x="116" y="860" on="1"/>
        <pt x="89" y="882" on="0"/>
        <pt x="89" y="897" on="0"/>
        <pt x="107" y="918" on="0"/>
        <pt x="121" y="918" on="0"/>
        <pt x="129" y="915" on="0"/>
        <pt x="181" y="883" on="0"/>
      </contour>
    </TTGlyph>
    <TTGlyph name="T" xMin="11" yMin="0" xMax="721" yMax="701">
      <contour>
        <pt x="290" y="271" on="1"/>
        <pt x="292" y="441" on="1"/>
        <pt x="292" y="515" on="1"/>
        <pt x="292" y="541" on="0"/>
        <pt x="297" y="611" on="0"/>
        <pt x="295" y="619" on="1"/>
        <pt x="291" y="625" on="0"/>
        <pt x="218" y="624" on="1"/>
        <pt x="78" y="623" on="1"/>
        <pt x="75" y="623" on="0"/>
        <pt x="53" y="621" on="0"/>
        <pt x="38" y="622" on="0"/>
        <pt x="30" y="624" on="1"/>
        <pt x="11" y="627" on="0"/>
        <pt x="11" y="664" on="0"/>
        <pt x="17" y="685" on="0"/>
        <pt x="28" y="695" on="0"/>
        <pt x="47" y="697" on="0"/>
        <pt x="74" y="696" on="0"/>
        <pt x="127" y="700" on="0"/>
        <pt x="249" y="700" on="1"/>
        <pt x="450" y="699" on="1"/>
        <pt x="639" y="700" on="1"/>
        <pt x="681" y="701" on="1"/>
        <pt x="696" y="701" on="1"/>
        <pt x="715" y="701" on="0"/>
        <pt x="720" y="689" on="1"/>
        <pt x="721" y="685" on="0"/>
        <pt x="721" y="678" on="1"/>
        <pt x="721" y="643" on="0"/>
        <pt x="711" y="635" on="1"/>
        <pt x="704" y="628" on="0"/>
        <pt x="661" y="628" on="1"/>
        <pt x="614" y="628" on="1"/>
        <pt x="567" y="628" on="0"/>
        <pt x="494" y="623" on="0"/>
        <pt x="416" y="623" on="1"/>
        <pt x="401" y="623" on="0"/>
        <pt x="395" y="612" on="0"/>
        <pt x="395" y="595" on="1"/>
        <pt x="394" y="414" on="1"/>
        <pt x="394" y="268" on="1"/>
        <pt x="394" y="134" on="0"/>
        <pt x="389" y="55" on="0"/>
        <pt x="388" y="32" on="0"/>
        <pt x="387" y="27" on="0"/>
        <pt x="384" y="13" on="0"/>
        <pt x="379" y="10" on="0"/>
        <pt x="371" y="3" on="0"/>
        <pt x="358" y="2" on="0"/>
        <pt x="340" y="0" on="0"/>
        <pt x="306" y="0" on="0"/>
        <pt x="296" y="8" on="0"/>
        <pt x="291" y="43" on="0"/>
        <pt x="290" y="110" on="0"/>
        <pt x="289" y="149" on="0"/>
        <pt x="289" y="167" on="1"/>
      </contour>
    </TTGlyph>
    <TTGlyph name="Thorn" xMin="89" yMin="-1" xMax="519" yMax="700">
      <contour>
        <pt x="188" y="307" on="1"/>
        <pt x="191" y="86" on="1"/>
        <pt x="191" y="29" on="0"/>
        <pt x="165" y="-1" on="0"/>
        <pt x="101" y="-1" on="0"/>
        <pt x="89" y="18" on="0"/>
        <pt x="89" y="42" on="1"/>
        <pt x="89" y="650" on="1"/>
        <pt x="89" y="690" on="0"/>
        <pt x="93" y="698" on="1"/>
        <pt x="95" y="700" on="0"/>
        <pt x="127" y="700" on="0"/>
        <pt x="140" y="700" on="1"/>
        <pt x="160" y="700" on="1"/>
        <pt x="181" y="700" on="0"/>
        <pt x="187" y="689" on="0"/>
        <pt x="187" y="683" on="1"/>
        <pt x="187" y="561" on="1"/>
        <pt x="314" y="559" on="0"/>
        <pt x="375" y="538" on="1"/>
        <pt x="519" y="491" on="0"/>
        <pt x="519" y="368" on="1"/>
        <pt x="519" y="342" on="0"/>
        <pt x="494" y="274" on="0"/>
        <pt x="480" y="256" on="1"/>
        <pt x="450" y="217" on="0"/>
        <pt x="349" y="159" on="0"/>
        <pt x="284" y="159" on="1"/>
        <pt x="255" y="159" on="0"/>
        <pt x="255" y="180" on="1"/>
        <pt x="255" y="197" on="0"/>
        <pt x="257" y="207" on="1"/>
        <pt x="424" y="240" on="0"/>
        <pt x="424" y="353" on="1"/>
        <pt x="424" y="427" on="0"/>
        <pt x="309" y="489" on="0"/>
        <pt x="204" y="489" on="1"/>
        <pt x="188" y="489" on="0"/>
        <pt x="188" y="464" on="1"/>
      </contour>
    </TTGlyph>
    <TTGlyph name="U" xMin="77" yMin="-12" xMax="778" yMax="701">
      <contour>
        <pt x="777" y="675" on="1"/>
        <pt x="778" y="566" on="1"/>
        <pt x="778" y="549" on="0"/>
        <pt x="777" y="518" on="0"/>
        <pt x="775" y="434" on="0"/>
        <pt x="770" y="384" on="0"/>
        <pt x="766" y="350" on="1"/>
        <pt x="760" y="294" on="0"/>
        <pt x="739" y="228" on="1"/>
        <pt x="706" y="117" on="0"/>
        <pt x="543" y="-12" on="0"/>
        <pt x="423" y="-12" on="1"/>
        <pt x="259" y="-12" on="0"/>
        <pt x="180" y="91" on="1"/>
        <pt x="108" y="185" on="0"/>
        <pt x="86" y="363" on="1"/>
        <pt x="77" y="433" on="0"/>
        <pt x="77" y="677" on="0"/>
        <pt x="87" y="694" on="1"/>
        <pt x="98" y="700" on="0"/>
        <pt x="165" y="700" on="0"/>
        <pt x="179" y="688" on="0"/>
        <pt x="179" y="669" on="1"/>
        <pt x="177" y="630" on="1"/>
        <pt x="177" y="616" on="0"/>
        <pt x="177" y="577" on="0"/>
        <pt x="177" y="568" on="1"/>
        <pt x="176" y="496" on="1"/>
        <pt x="176" y="447" on="0"/>
        <pt x="189" y="311" on="0"/>
        <pt x="208" y="240" on="0"/>
        <pt x="233" y="177" on="0"/>
        <pt x="274" y="126" on="0"/>
        <pt x="300" y="108" on="1"/>
        <pt x="353" y="69" on="0"/>
        <pt x="506" y="69" on="0"/>
        <pt x="603" y="125" on="0"/>
        <pt x="659" y="212" on="0"/>
        <pt x="675" y="278" on="1"/>
        <pt x="701" y="387" on="0"/>
        <pt x="701" y="548" on="1"/>
        <pt x="700" y="647" on="1"/>
        <pt x="700" y="682" on="0"/>
        <pt x="713" y="701" on="0"/>
        <pt x="760" y="701" on="0"/>
        <pt x="765" y="700" on="1"/>
        <pt x="777" y="698" on="0"/>
      </contour>
    </TTGlyph>
    <TTGlyph name="Uacute" xMin="77" yMin="-12" xMax="778" yMax="923">
      <contour>
        <pt x="777" y="675" on="1"/>
        <pt x="778" y="566" on="1"/>
        <pt x="778" y="549" on="0"/>
        <pt x="777" y="518" on="0"/>
        <pt x="775" y="434" on="0"/>
        <pt x="770" y="384" on="0"/>
        <pt x="766" y="350" on="1"/>
        <pt x="760" y="294" on="0"/>
        <pt x="739" y="228" on="1"/>
        <pt x="706" y="117" on="0"/>
        <pt x="543" y="-12" on="0"/>
        <pt x="423" y="-12" on="1"/>
        <pt x="259" y="-12" on="0"/>
        <pt x="180" y="91" on="1"/>
        <pt x="108" y="185" on="0"/>
        <pt x="86" y="363" on="1"/>
        <pt x="77" y="433" on="0"/>
        <pt x="77" y="677" on="0"/>
        <pt x="87" y="694" on="1"/>
        <pt x="98" y="700" on="0"/>
        <pt x="165" y="700" on="0"/>
        <pt x="179" y="688" on="0"/>
        <pt x="179" y="669" on="1"/>
        <pt x="177" y="630" on="1"/>
        <pt x="177" y="616" on="0"/>
        <pt x="177" y="577" on="0"/>
        <pt x="177" y="568" on="1"/>
        <pt x="176" y="496" on="1"/>
        <pt x="176" y="447" on="0"/>
        <pt x="189" y="311" on="0"/>
        <pt x="208" y="240" on="0"/>
        <pt x="233" y="177" on="0"/>
        <pt x="274" y="126" on="0"/>
        <pt x="300" y="108" on="1"/>
        <pt x="353" y="69" on="0"/>
        <pt x="506" y="69" on="0"/>
        <pt x="603" y="125" on="0"/>
        <pt x="659" y="212" on="0"/>
        <pt x="675" y="278" on="1"/>
        <pt x="701" y="387" on="0"/>
        <pt x="701" y="548" on="1"/>
        <pt x="700" y="647" on="1"/>
        <pt x="700" y="682" on="0"/>
        <pt x="713" y="701" on="0"/>
        <pt x="760" y="701" on="0"/>
        <pt x="765" y="700" on="1"/>
        <pt x="777" y="698" on="0"/>
      </contour>
      <contour>
        <pt x="547" y="858" on="0"/>
        <pt x="493" y="809" on="0"/>
        <pt x="414" y="768" on="0"/>
        <pt x="379" y="768" on="1"/>
        <pt x="368" y="768" on="0"/>
        <pt x="350" y="786" on="0"/>
        <pt x="348" y="802" on="0"/>
        <pt x="365" y="816" on="0"/>
        <pt x="396" y="836" on="0"/>
        <pt x="425" y="858" on="0"/>
        <pt x="461" y="901" on="0"/>
        <pt x="480" y="923" on="0"/>
        <pt x="508" y="923" on="0"/>
        <pt x="547" y="892" on="0"/>
      </contour>
    </TTGlyph>
    <TTGlyph name="Ucircumflex" xMin="77" yMin="-12" xMax="778" yMax="916">
      <component glyphName="U" x="0" y="0" flags="0x1004"/>
      <component glyphName="circumflex" x="201" y="258" flags="0x1004"/>
    </TTGlyph>
    <TTGlyph name="Udieresis" xMin="77" yMin="-12" xMax="778" yMax="884">
      <contour>
        <pt x="777" y="675" on="1"/>
        <pt x="778" y="566" on="1"/>
        <pt x="778" y="549" on="0"/>
        <pt x="777" y="518" on="0"/>
        <pt x="775" y="434" on="0"/>
        <pt x="770" y="384" on="0"/>
        <pt x="766" y="350" on="1"/>
        <pt x="760" y="294" on="0"/>
        <pt x="739" y="228" on="1"/>
        <pt x="706" y="117" on="0"/>
        <pt x="543" y="-12" on="0"/>
        <pt x="423" y="-12" on="1"/>
        <pt x="259" y="-12" on="0"/>
        <pt x="180" y="91" on="1"/>
        <pt x="108" y="185" on="0"/>
        <pt x="86" y="363" on="1"/>
        <pt x="77" y="433" on="0"/>
        <pt x="77" y="677" on="0"/>
        <pt x="87" y="694" on="1"/>
        <pt x="98" y="700" on="0"/>
        <pt x="165" y="700" on="0"/>
        <pt x="179" y="688" on="0"/>
        <pt x="179" y="669" on="1"/>
        <pt x="177" y="630" on="1"/>
        <pt x="177" y="616" on="0"/>
        <pt x="177" y="577" on="0"/>
        <pt x="177" y="568" on="1"/>
        <pt x="176" y="496" on="1"/>
        <pt x="176" y="447" on="0"/>
        <pt x="189" y="311" on="0"/>
        <pt x="208" y="240" on="0"/>
        <pt x="233" y="177" on="0"/>
        <pt x="274" y="126" on="0"/>
        <pt x="300" y="108" on="1"/>
        <pt x="353" y="69" on="0"/>
        <pt x="506" y="69" on="0"/>
        <pt x="603" y="125" on="0"/>
        <pt x="659" y="212" on="0"/>
        <pt x="675" y="278" on="1"/>
        <pt x="701" y="387" on="0"/>
        <pt x="701" y="548" on="1"/>
        <pt x="700" y="647" on="1"/>
        <pt x="700" y="682" on="0"/>
        <pt x="713" y="701" on="0"/>
        <pt x="760" y="701" on="0"/>
        <pt x="765" y="700" on="1"/>
        <pt x="777" y="698" on="0"/>
      </contour>
      <contour>
        <pt x="269" y="849" on="0"/>
        <pt x="295" y="880" on="0"/>
        <pt x="322" y="884" on="0"/>
        <pt x="344" y="884" on="1"/>
        <pt x="385" y="884" on="0"/>
        <pt x="385" y="839" on="1"/>
        <pt x="385" y="775" on="0"/>
        <pt x="320" y="775" on="1"/>
        <pt x="298" y="775" on="0"/>
        <pt x="269" y="802" on="0"/>
      </contour>
      <contour>
        <pt x="469" y="848" on="0"/>
        <pt x="495" y="880" on="0"/>
        <pt x="523" y="884" on="0"/>
        <pt x="544" y="884" on="1"/>
        <pt x="585" y="884" on="0"/>
        <pt x="585" y="839" on="1"/>
        <pt x="585" y="775" on="0"/>
        <pt x="521" y="775" on="1"/>
        <pt x="498" y="775" on="0"/>
        <pt x="469" y="802" on="0"/>
      </contour>
    </TTGlyph>
    <TTGlyph name="Ugrave" xMin="77" yMin="-12" xMax="778" yMax="923">
      <component glyphName="U" x="0" y="0" flags="0x1004"/>
      <component glyphName="grave" x="241" y="258" flags="0x1004"/>
    </TTGlyph>
    <TTGlyph name="V" xMin="11" yMin="-12" xMax="696" yMax="712">
      <contour>
        <pt x="641" y="711" on="1"/>
        <pt x="644" y="712" on="0"/>
        <pt x="665" y="712" on="0"/>
        <pt x="696" y="701" on="0"/>
        <pt x="696" y="688" on="0"/>
        <pt x="675" y="643" on="0"/>
        <pt x="648" y="584" on="1"/>
        <pt x="609" y="500" on="1"/>
        <pt x="592" y="464" on="0"/>
        <pt x="505" y="293" on="0"/>
        <pt x="467" y="205" on="0"/>
        <pt x="392" y="60" on="0"/>
        <pt x="374" y="19" on="0"/>
        <pt x="368" y="10" on="1"/>
        <pt x="355" y="-12" on="0"/>
        <pt x="334" y="-12" on="1"/>
        <pt x="315" y="-12" on="0"/>
        <pt x="300" y="16" on="1"/>
        <pt x="296" y="23" on="0"/>
        <pt x="291" y="31" on="0"/>
        <pt x="283" y="49" on="0"/>
        <pt x="270" y="74" on="0"/>
        <pt x="225" y="167" on="0"/>
        <pt x="204" y="208" on="0"/>
        <pt x="112" y="414" on="1"/>
        <pt x="67" y="520" on="0"/>
        <pt x="25" y="639" on="0"/>
        <pt x="20" y="650" on="1"/>
        <pt x="11" y="675" on="0"/>
        <pt x="11" y="695" on="0"/>
        <pt x="64" y="712" on="0"/>
        <pt x="89" y="712" on="0"/>
        <pt x="99" y="705" on="0"/>
        <pt x="110" y="686" on="0"/>
        <pt x="112" y="680" on="1"/>
        <pt x="125" y="653" on="0"/>
        <pt x="256" y="348" on="0"/>
        <pt x="287" y="269" on="1"/>
        <pt x="344" y="132" on="0"/>
        <pt x="353" y="132" on="1"/>
        <pt x="358" y="132" on="0"/>
        <pt x="375" y="169" on="0"/>
        <pt x="433" y="288" on="0"/>
        <pt x="464" y="351" on="1"/>
        <pt x="534" y="498" on="0"/>
        <pt x="599" y="641" on="1"/>
        <pt x="627" y="706" on="0"/>
      </contour>
    </TTGlyph>
    <TTGlyph name="W" xMin="23" yMin="-3" xMax="998" yMax="712">
      <contour>
        <pt x="363" y="150" on="1"/>
        <pt x="370" y="157" on="0"/>
        <pt x="390" y="211" on="0"/>
        <pt x="416" y="265" on="0"/>
        <pt x="432" y="297" on="1"/>
        <pt x="484" y="397" on="0"/>
        <pt x="484" y="426" on="1"/>
        <pt x="484" y="444" on="0"/>
        <pt x="452" y="518" on="1"/>
        <pt x="394" y="654" on="0"/>
        <pt x="394" y="670" on="1"/>
        <pt x="394" y="680" on="0"/>
        <pt x="440" y="700" on="0"/>
        <pt x="467" y="700" on="0"/>
        <pt x="479" y="688" on="0"/>
        <pt x="533" y="579" on="0"/>
        <pt x="589" y="437" on="0"/>
        <pt x="710" y="156" on="0"/>
        <pt x="718" y="156" on="1"/>
        <pt x="727" y="156" on="0"/>
        <pt x="739" y="198" on="1"/>
        <pt x="749" y="235" on="0"/>
        <pt x="900" y="595" on="0"/>
        <pt x="921" y="649" on="0"/>
        <pt x="928" y="671" on="0"/>
        <pt x="934" y="686" on="0"/>
        <pt x="938" y="694" on="1"/>
        <pt x="948" y="712" on="0"/>
        <pt x="973" y="712" on="0"/>
        <pt x="998" y="699" on="0"/>
        <pt x="998" y="693" on="1"/>
        <pt x="998" y="663" on="0"/>
        <pt x="943" y="538" on="0"/>
        <pt x="935" y="517" on="0"/>
        <pt x="876" y="371" on="0"/>
        <pt x="814" y="217" on="0"/>
        <pt x="803" y="193" on="0"/>
        <pt x="773" y="115" on="0"/>
        <pt x="764" y="95" on="0"/>
        <pt x="754" y="72" on="0"/>
        <pt x="748" y="59" on="0"/>
        <pt x="736" y="35" on="0"/>
        <pt x="726" y="20" on="0"/>
        <pt x="720" y="12" on="1"/>
        <pt x="696" y="-19" on="0"/>
        <pt x="659" y="32" on="0"/>
        <pt x="603" y="152" on="0"/>
        <pt x="591" y="178" on="0"/>
        <pt x="574" y="224" on="1"/>
        <pt x="532" y="332" on="0"/>
        <pt x="523" y="332" on="1"/>
        <pt x="515" y="332" on="0"/>
        <pt x="421" y="107" on="0"/>
        <pt x="420" y="105" on="1"/>
        <pt x="373" y="-3" on="0"/>
        <pt x="346" y="-3" on="1"/>
        <pt x="334" y="-3" on="0"/>
        <pt x="322" y="19" on="1"/>
        <pt x="301" y="57" on="0"/>
        <pt x="296" y="71" on="1"/>
        <pt x="264" y="129" on="0"/>
        <pt x="97" y="492" on="1"/>
        <pt x="78" y="535" on="0"/>
        <pt x="23" y="674" on="0"/>
        <pt x="23" y="685" on="1"/>
        <pt x="23" y="693" on="0"/>
        <pt x="64" y="712" on="0"/>
        <pt x="81" y="712" on="0"/>
        <pt x="88" y="712" on="0"/>
        <pt x="100" y="705" on="0"/>
        <pt x="111" y="688" on="0"/>
        <pt x="118" y="677" on="0"/>
        <pt x="129" y="653" on="0"/>
        <pt x="178" y="562" on="0"/>
        <pt x="247" y="405" on="0"/>
        <pt x="343" y="201" on="0"/>
      </contour>
    </TTGlyph>
    <TTGlyph name="X" xMin="33" yMin="-12" xMax="636" yMax="712">
      <contour>
        <pt x="536" y="702" on="0"/>
        <pt x="549" y="712" on="0"/>
        <pt x="563" y="712" on="0"/>
        <pt x="603" y="691" on="0"/>
        <pt x="603" y="684" on="1"/>
        <pt x="603" y="666" on="0"/>
        <pt x="578" y="635" on="0"/>
        <pt x="569" y="624" on="1"/>
        <pt x="560" y="613" on="1"/>
        <pt x="525" y="569" on="0"/>
        <pt x="443" y="459" on="0"/>
        <pt x="408" y="417" on="0"/>
        <pt x="385" y="386" on="0"/>
        <pt x="385" y="376" on="0"/>
        <pt x="432" y="316" on="0"/>
        <pt x="587" y="122" on="0"/>
        <pt x="619" y="74" on="0"/>
        <pt x="636" y="52" on="0"/>
        <pt x="636" y="47" on="1"/>
        <pt x="636" y="32" on="0"/>
        <pt x="590" y="-12" on="0"/>
        <pt x="574" y="-12" on="1"/>
        <pt x="554" y="1" on="0"/>
        <pt x="445" y="136" on="0"/>
        <pt x="404" y="195" on="0"/>
        <pt x="382" y="222" on="1"/>
        <pt x="327" y="292" on="0"/>
        <pt x="324" y="292" on="1"/>
        <pt x="315" y="292" on="0"/>
        <pt x="263" y="215" on="0"/>
        <pt x="151" y="74" on="0"/>
        <pt x="127" y="40" on="0"/>
        <pt x="114" y="21" on="0"/>
        <pt x="108" y="12" on="1"/>
        <pt x="91" y="-10" on="0"/>
        <pt x="81" y="-12" on="1"/>
        <pt x="71" y="-12" on="0"/>
        <pt x="36" y="10" on="0"/>
        <pt x="33" y="16" on="1"/>
        <pt x="33" y="27" on="0"/>
        <pt x="50" y="53" on="1"/>
        <pt x="58" y="64" on="1"/>
        <pt x="73" y="85" on="0"/>
        <pt x="100" y="124" on="1"/>
        <pt x="156" y="204" on="0"/>
        <pt x="199" y="255" on="1"/>
        <pt x="222" y="284" on="1"/>
        <pt x="268" y="345" on="0"/>
        <pt x="268" y="367" on="0"/>
        <pt x="92" y="589" on="0"/>
        <pt x="47" y="652" on="0"/>
        <pt x="47" y="672" on="0"/>
        <pt x="72" y="687" on="1"/>
        <pt x="97" y="712" on="0"/>
        <pt x="115" y="712" on="0"/>
        <pt x="135" y="697" on="0"/>
        <pt x="162" y="665" on="0"/>
        <pt x="184" y="638" on="0"/>
        <pt x="217" y="593" on="0"/>
        <pt x="224" y="584" on="1"/>
        <pt x="337" y="441" on="1"/>
        <pt x="343" y="441" on="0"/>
        <pt x="479" y="628" on="0"/>
        <pt x="497" y="652" on="0"/>
        <pt x="510" y="670" on="0"/>
        <pt x="522" y="685" on="0"/>
      </contour>
    </TTGlyph>
    <TTGlyph name="Y" xMin="1" yMin="0" xMax="671" yMax="712">
      <contour>
        <pt x="286" y="242" on="1"/>
        <pt x="288" y="345" on="1"/>
        <pt x="288" y="358" on="0"/>
        <pt x="282" y="368" on="0"/>
        <pt x="280" y="372" on="0"/>
        <pt x="275" y="378" on="0"/>
        <pt x="272" y="382" on="0"/>
        <pt x="265" y="389" on="0"/>
        <pt x="263" y="390" on="1"/>
        <pt x="257" y="395" on="0"/>
        <pt x="141" y="505" on="0"/>
        <pt x="129" y="518" on="0"/>
        <pt x="83" y="562" on="0"/>
        <pt x="55" y="589" on="0"/>
        <pt x="38" y="608" on="1"/>
        <pt x="2" y="645" on="0"/>
        <pt x="2" y="657" on="1"/>
        <pt x="1" y="658" on="0"/>
        <pt x="1" y="659" on="1"/>
        <pt x="1" y="667" on="0"/>
        <pt x="53" y="710" on="0"/>
        <pt x="66" y="712" on="1"/>
        <pt x="81" y="712" on="0"/>
        <pt x="109" y="678" on="1"/>
        <pt x="117" y="669" on="0"/>
        <pt x="312" y="470" on="0"/>
        <pt x="323" y="458" on="0"/>
        <pt x="332" y="447" on="1"/>
        <pt x="350" y="425" on="0"/>
        <pt x="362" y="425" on="0"/>
        <pt x="478" y="551" on="0"/>
        <pt x="525" y="609" on="0"/>
        <pt x="619" y="712" on="0"/>
        <pt x="636" y="712" on="0"/>
        <pt x="670" y="682" on="0"/>
        <pt x="671" y="672" on="0"/>
        <pt x="663" y="661" on="0"/>
        <pt x="648" y="646" on="0"/>
        <pt x="640" y="636" on="1"/>
        <pt x="617" y="608" on="0"/>
        <pt x="542" y="528" on="1"/>
        <pt x="388" y="367" on="0"/>
        <pt x="388" y="350" on="1"/>
        <pt x="388" y="163" on="1"/>
        <pt x="390" y="75" on="1"/>
        <pt x="390" y="35" on="0"/>
        <pt x="383" y="17" on="0"/>
        <pt x="376" y="10" on="1"/>
        <pt x="366" y="0" on="0"/>
        <pt x="312" y="0" on="0"/>
        <pt x="296" y="1" on="0"/>
        <pt x="281" y="12" on="0"/>
        <pt x="281" y="24" on="1"/>
        <pt x="284" y="86" on="1"/>
      </contour>
    </TTGlyph>
    <TTGlyph name="Yacute" xMin="1" yMin="0" xMax="671" yMax="923">
      <component glyphName="Y" x="0" y="0" flags="0x1004"/>
      <component glyphName="acute" x="189" y="258" flags="0x1004"/>
    </TTGlyph>
    <TTGlyph name="Ydieresis" xMin="1" yMin="0" xMax="671" yMax="884">
      <component glyphName="Y" x="0" y="0" flags="0x1004"/>
      <component glyphName="dieresis" x="111" y="258" flags="0x1004"/>
    </TTGlyph>
    <TTGlyph name="Z" xMin="44" yMin="0" xMax="623" yMax="701">
      <contour>
        <pt x="483" y="700" on="1"/>
        <pt x="526" y="701" on="1"/>
        <pt x="547" y="701" on="0"/>
        <pt x="564" y="690" on="0"/>
        <pt x="564" y="675" on="0"/>
        <pt x="542" y="634" on="0"/>
        <pt x="220" y="117" on="0"/>
        <pt x="202" y="83" on="1"/>
        <pt x="205" y="81" on="0"/>
        <pt x="218" y="81" on="1"/>
        <pt x="218" y="81" on="0"/>
        <pt x="573" y="74" on="1"/>
        <pt x="598" y="73" on="1"/>
        <pt x="618" y="73" on="0"/>
        <pt x="622" y="60" on="1"/>
        <pt x="623" y="57" on="0"/>
        <pt x="623" y="52" on="1"/>
        <pt x="623" y="22" on="0"/>
        <pt x="603" y="3" on="0"/>
        <pt x="582" y="2" on="1"/>
        <pt x="528" y="0" on="0"/>
        <pt x="505" y="0" on="1"/>
        <pt x="382" y="0" on="0"/>
        <pt x="210" y="0" on="0"/>
        <pt x="146" y="2" on="0"/>
        <pt x="114" y="4" on="1"/>
        <pt x="50" y="8" on="0"/>
        <pt x="46" y="16" on="1"/>
        <pt x="44" y="19" on="0"/>
        <pt x="44" y="23" on="1"/>
        <pt x="44" y="32" on="0"/>
        <pt x="56" y="50" on="1"/>
        <pt x="64" y="63" on="1"/>
        <pt x="75" y="82" on="0"/>
        <pt x="155" y="202" on="1"/>
        <pt x="266" y="369" on="0"/>
        <pt x="428" y="633" on="1"/>
        <pt x="404" y="636" on="0"/>
        <pt x="381" y="636" on="1"/>
        <pt x="112" y="633" on="1"/>
        <pt x="55" y="633" on="0"/>
        <pt x="55" y="665" on="1"/>
        <pt x="55" y="676" on="0"/>
        <pt x="56" y="686" on="0"/>
        <pt x="69" y="700" on="0"/>
        <pt x="81" y="700" on="1"/>
      </contour>
    </TTGlyph>
    <TTGlyph name="Zcaron" xMin="44" yMin="0" xMax="623" yMax="918">
      <component glyphName="Z" x="0" y="0" flags="0x1004"/>
      <component glyphName="caron" x="90" y="268" flags="0x1004"/>
    </TTGlyph>
    <TTGlyph name="a" xMin="33" yMin="-1" xMax="402" yMax="444">
      <contour>
        <pt x="346" y="-1" on="1"/>
        <pt x="316" y="-1" on="0"/>
        <pt x="318" y="32" on="1"/>
        <pt x="318" y="43" on="0"/>
        <pt x="315" y="43" on="1"/>
        <pt x="307" y="40" on="0"/>
        <pt x="283" y="26" on="1"/>
        <pt x="164" y="-47" on="0"/>
        <pt x="74" y="17" on="1"/>
        <pt x="33" y="46" on="0"/>
        <pt x="33" y="97" on="1"/>
        <pt x="33" y="174" on="0"/>
        <pt x="176" y="244" on="0"/>
        <pt x="282" y="244" on="1"/>
        <pt x="301" y="244" on="0"/>
        <pt x="310" y="243" on="1"/>
        <pt x="310" y="260" on="0"/>
        <pt x="311" y="267" on="1"/>
        <pt x="311" y="324" on="0"/>
        <pt x="248" y="381" on="0"/>
        <pt x="192" y="381" on="1"/>
        <pt x="165" y="381" on="0"/>
        <pt x="103" y="365" on="0"/>
        <pt x="85" y="365" on="0"/>
        <pt x="74" y="387" on="0"/>
        <pt x="74" y="423" on="0"/>
        <pt x="163" y="444" on="0"/>
        <pt x="204" y="444" on="1"/>
        <pt x="301" y="444" on="0"/>
        <pt x="402" y="342" on="0"/>
        <pt x="402" y="244" on="1"/>
        <pt x="402" y="38" on="1"/>
        <pt x="402" y="11" on="0"/>
        <pt x="382" y="-1" on="0"/>
      </contour>
      <contour>
        <pt x="309" y="104" on="1"/>
        <pt x="311" y="132" on="0"/>
        <pt x="311" y="196" on="0"/>
        <pt x="310" y="200" on="1"/>
        <pt x="172" y="187" on="0"/>
        <pt x="142" y="150" on="1"/>
        <pt x="126" y="131" on="0"/>
        <pt x="126" y="106" on="1"/>
        <pt x="126" y="53" on="0"/>
        <pt x="205" y="53" on="1"/>
        <pt x="245" y="53" on="0"/>
        <pt x="308" y="90" on="0"/>
      </contour>
    </TTGlyph>
    <TTGlyph name="aacute" xMin="33" yMin="-1" xMax="402" yMax="665">
      <contour>
        <pt x="346" y="-1" on="1"/>
        <pt x="316" y="-1" on="0"/>
        <pt x="318" y="32" on="1"/>
        <pt x="318" y="43" on="0"/>
        <pt x="315" y="43" on="1"/>
        <pt x="307" y="40" on="0"/>
        <pt x="283" y="26" on="1"/>
        <pt x="164" y="-47" on="0"/>
        <pt x="74" y="17" on="1"/>
        <pt x="33" y="46" on="0"/>
        <pt x="33" y="97" on="1"/>
        <pt x="33" y="174" on="0"/>
        <pt x="176" y="244" on="0"/>
        <pt x="282" y="244" on="1"/>
        <pt x="301" y="244" on="0"/>
        <pt x="310" y="243" on="1"/>
        <pt x="310" y="260" on="0"/>
        <pt x="311" y="267" on="1"/>
        <pt x="311" y="324" on="0"/>
        <pt x="248" y="381" on="0"/>
        <pt x="192" y="381" on="1"/>
        <pt x="165" y="381" on="0"/>
        <pt x="103" y="365" on="0"/>
        <pt x="85" y="365" on="0"/>
        <pt x="74" y="387" on="0"/>
        <pt x="74" y="423" on="0"/>
        <pt x="163" y="444" on="0"/>
        <pt x="204" y="444" on="1"/>
        <pt x="301" y="444" on="0"/>
        <pt x="402" y="342" on="0"/>
        <pt x="402" y="244" on="1"/>
        <pt x="402" y="38" on="1"/>
        <pt x="402" y="11" on="0"/>
        <pt x="382" y="-1" on="0"/>
      </contour>
      <contour>
        <pt x="309" y="104" on="1"/>
        <pt x="311" y="132" on="0"/>
        <pt x="311" y="196" on="0"/>
        <pt x="310" y="200" on="1"/>
        <pt x="172" y="187" on="0"/>
        <pt x="142" y="150" on="1"/>
        <pt x="126" y="131" on="0"/>
        <pt x="126" y="106" on="1"/>
        <pt x="126" y="53" on="0"/>
        <pt x="205" y="53" on="1"/>
        <pt x="245" y="53" on="0"/>
        <pt x="308" y="90" on="0"/>
      </contour>
      <contour>
        <pt x="333" y="600" on="0"/>
        <pt x="279" y="551" on="0"/>
        <pt x="200" y="510" on="0"/>
        <pt x="165" y="510" on="1"/>
        <pt x="154" y="510" on="0"/>
        <pt x="136" y="528" on="0"/>
        <pt x="134" y="544" on="0"/>
        <pt x="151" y="558" on="0"/>
        <pt x="182" y="578" on="0"/>
        <pt x="211" y="600" on="0"/>
        <pt x="247" y="643" on="0"/>
        <pt x="266" y="665" on="0"/>
        <pt x="294" y="665" on="0"/>
        <pt x="333" y="634" on="0"/>
      </contour>
    </TTGlyph>
    <TTGlyph name="acircumflex" xMin="33" yMin="-1" xMax="402" yMax="658">
      <component glyphName="a" x="0" y="0" flags="0x1004"/>
      <component glyphName="circumflex" x="2" y="0" flags="0x1004"/>
    </TTGlyph>
    <TTGlyph name="acute" xMin="78" yMin="510" xMax="276" yMax="665">
      <contour>
        <pt x="276" y="600" on="0"/>
        <pt x="222" y="551" on="0"/>
        <pt x="143" y="510" on="0"/>
        <pt x="108" y="510" on="1"/>
        <pt x="97" y="510" on="0"/>
        <pt x="79" y="528" on="0"/>
        <pt x="77" y="544" on="0"/>
        <pt x="94" y="558" on="0"/>
        <pt x="125" y="578" on="0"/>
        <pt x="154" y="600" on="0"/>
        <pt x="190" y="643" on="0"/>
        <pt x="209" y="665" on="0"/>
        <pt x="237" y="665" on="0"/>
        <pt x="276" y="634" on="0"/>
      </contour>
    </TTGlyph>
    <TTGlyph name="acute.cap" xMin="78" yMin="778" xMax="276" yMax="933">
      <contour>
        <pt x="276" y="868" on="0"/>
        <pt x="222" y="819" on="0"/>
        <pt x="143" y="778" on="0"/>
        <pt x="108" y="778" on="1"/>
        <pt x="97" y="778" on="0"/>
        <pt x="79" y="796" on="0"/>
        <pt x="77" y="812" on="0"/>
        <pt x="94" y="826" on="0"/>
        <pt x="125" y="846" on="0"/>
        <pt x="154" y="868" on="0"/>
        <pt x="190" y="911" on="0"/>
        <pt x="209" y="933" on="0"/>
        <pt x="237" y="933" on="0"/>
        <pt x="276" y="902" on="0"/>
      </contour>
    </TTGlyph>
    <TTGlyph name="adieresis" xMin="33" yMin="-1" xMax="402" yMax="626">
      <component glyphName="a" x="0" y="0" flags="0x1004"/>
      <component glyphName="dieresis" x="-1" y="0" flags="0x1004"/>
    </TTGlyph>
    <TTGlyph name="ae" xMin="33" yMin="-12" xMax="723" yMax="444">
      <contour>
        <pt x="688" y="247" on="1"/>
        <pt x="688" y="247" on="0"/>
        <pt x="459" y="246" on="1"/>
        <pt x="422" y="246" on="0"/>
        <pt x="416" y="240" on="1"/>
        <pt x="411" y="233" on="0"/>
        <pt x="411" y="217" on="1"/>
        <pt x="411" y="139" on="0"/>
        <pt x="500" y="56" on="0"/>
        <pt x="614" y="56" on="0"/>
        <pt x="646" y="71" on="1"/>
        <pt x="647" y="71" on="0"/>
        <pt x="685" y="97" on="0"/>
        <pt x="700" y="97" on="0"/>
        <pt x="708" y="85" on="0"/>
        <pt x="708" y="79" on="1"/>
        <pt x="708" y="41" on="0"/>
        <pt x="596" y="-12" on="0"/>
        <pt x="540" y="-12" on="1"/>
        <pt x="429" y="-12" on="0"/>
        <pt x="364" y="63" on="1"/>
        <pt x="279" y="-12" on="0"/>
        <pt x="169" y="-12" on="1"/>
        <pt x="115" y="-12" on="0"/>
        <pt x="33" y="46" on="0"/>
        <pt x="33" y="97" on="1"/>
        <pt x="33" y="174" on="0"/>
        <pt x="176" y="244" on="0"/>
        <pt x="282" y="244" on="1"/>
        <pt x="301" y="244" on="0"/>
        <pt x="310" y="243" on="1"/>
        <pt x="310" y="260" on="0"/>
        <pt x="311" y="267" on="1"/>
        <pt x="311" y="324" on="0"/>
        <pt x="246" y="381" on="0"/>
        <pt x="192" y="381" on="1"/>
        <pt x="168" y="381" on="0"/>
        <pt x="103" y="365" on="0"/>
        <pt x="85" y="365" on="0"/>
        <pt x="74" y="387" on="0"/>
        <pt x="74" y="404" on="1"/>
        <pt x="74" y="438" on="0"/>
        <pt x="204" y="444" on="1"/>
        <pt x="322" y="438" on="0"/>
        <pt x="369" y="372" on="1"/>
        <pt x="435" y="444" on="0"/>
        <pt x="546" y="444" on="1"/>
        <pt x="624" y="444" on="0"/>
        <pt x="672" y="398" on="1"/>
        <pt x="723" y="350" on="0"/>
        <pt x="723" y="282" on="1"/>
        <pt x="723" y="247" on="0"/>
      </contour>
      <contour>
        <pt x="142" y="150" on="1"/>
        <pt x="126" y="131" on="0"/>
        <pt x="126" y="106" on="1"/>
        <pt x="126" y="53" on="0"/>
        <pt x="205" y="53" on="1"/>
        <pt x="245" y="53" on="0"/>
        <pt x="308" y="90" on="0"/>
        <pt x="310" y="120" on="0"/>
        <pt x="310" y="181" on="1"/>
        <pt x="310" y="200" on="1"/>
        <pt x="172" y="187" on="0"/>
      </contour>
      <contour>
        <pt x="428" y="296" on="1"/>
        <pt x="618" y="296" on="0"/>
        <pt x="648" y="298" on="1"/>
        <pt x="645" y="338" on="0"/>
        <pt x="590" y="390" on="0"/>
        <pt x="506" y="390" on="0"/>
        <pt x="433" y="331" on="0"/>
      </contour>
    </TTGlyph>
    <TTGlyph name="agrave" xMin="33" yMin="-1" xMax="402" yMax="665">
      <component glyphName="a" x="0" y="0" flags="0x1004"/>
      <component glyphName="grave" x="57" y="0" flags="0x1004"/>
    </TTGlyph>
    <TTGlyph name="ampersand" xMin="82" yMin="-12" xMax="794" yMax="998">
      <contour>
        <pt x="579" y="925" on="1"/>
        <pt x="563" y="925" on="0"/>
        <pt x="563" y="954" on="1"/>
        <pt x="563" y="963" on="0"/>
        <pt x="566" y="972" on="1"/>
        <pt x="569" y="988" on="1"/>
        <pt x="595" y="998" on="0"/>
        <pt x="625" y="998" on="1"/>
        <pt x="696" y="998" on="0"/>
        <pt x="794" y="901" on="0"/>
        <pt x="794" y="817" on="1"/>
        <pt x="794" y="761" on="0"/>
        <pt x="741" y="664" on="0"/>
        <pt x="666" y="596" on="0"/>
        <pt x="628" y="566" on="1"/>
        <pt x="538" y="494" on="0"/>
        <pt x="538" y="440" on="1"/>
        <pt x="538" y="410" on="0"/>
        <pt x="588" y="401" on="1"/>
        <pt x="634" y="392" on="0"/>
        <pt x="680" y="367" on="1"/>
        <pt x="701" y="355" on="0"/>
        <pt x="729" y="297" on="0"/>
        <pt x="729" y="255" on="1"/>
        <pt x="729" y="173" on="0"/>
        <pt x="671" y="110" on="1"/>
        <pt x="561" y="-12" on="0"/>
        <pt x="394" y="-12" on="1"/>
        <pt x="327" y="-12" on="0"/>
        <pt x="207" y="26" on="0"/>
        <pt x="135" y="76" on="0"/>
        <pt x="82" y="172" on="0"/>
        <pt x="82" y="274" on="0"/>
        <pt x="118" y="338" on="0"/>
        <pt x="154" y="386" on="0"/>
        <pt x="154" y="421" on="0"/>
        <pt x="107" y="488" on="0"/>
        <pt x="107" y="552" on="0"/>
        <pt x="133" y="614" on="0"/>
        <pt x="185" y="674" on="0"/>
        <pt x="283" y="712" on="0"/>
        <pt x="380" y="712" on="0"/>
        <pt x="451" y="690" on="0"/>
        <pt x="451" y="669" on="1"/>
        <pt x="451" y="658" on="0"/>
        <pt x="426" y="626" on="0"/>
        <pt x="420" y="626" on="1"/>
        <pt x="386" y="640" on="0"/>
        <pt x="357" y="640" on="1"/>
        <pt x="288" y="640" on="0"/>
        <pt x="197" y="588" on="0"/>
        <pt x="197" y="533" on="1"/>
        <pt x="197" y="516" on="0"/>
        <pt x="223" y="455" on="0"/>
        <pt x="223" y="408" on="0"/>
        <pt x="180" y="327" on="0"/>
        <pt x="174" y="296" on="0"/>
        <pt x="174" y="242" on="0"/>
        <pt x="197" y="175" on="0"/>
        <pt x="249" y="115" on="0"/>
        <pt x="346" y="80" on="0"/>
        <pt x="445" y="80" on="0"/>
        <pt x="524" y="102" on="0"/>
        <pt x="599" y="144" on="0"/>
        <pt x="649" y="216" on="0"/>
        <pt x="649" y="302" on="0"/>
        <pt x="620" y="320" on="1"/>
        <pt x="599" y="333" on="0"/>
        <pt x="539" y="351" on="0"/>
        <pt x="512" y="362" on="0"/>
        <pt x="496" y="373" on="1"/>
        <pt x="464" y="394" on="0"/>
        <pt x="464" y="448" on="1"/>
        <pt x="464" y="474" on="0"/>
        <pt x="481" y="504" on="0"/>
        <pt x="489" y="519" on="0"/>
        <pt x="513" y="546" on="0"/>
        <pt x="519" y="552" on="1"/>
        <pt x="542" y="575" on="0"/>
        <pt x="575" y="608" on="0"/>
        <pt x="628" y="657" on="0"/>
        <pt x="654" y="685" on="0"/>
        <pt x="672" y="708" on="1"/>
        <pt x="704" y="751" on="0"/>
        <pt x="704" y="860" on="0"/>
        <pt x="641" y="925" on="0"/>
      </contour>
    </TTGlyph>
    <TTGlyph name="approxequal" xMin="77" yMin="160" xMax="522" yMax="477">
      <contour>
        <pt x="522" y="238" on="0"/>
        <pt x="436" y="161" on="0"/>
        <pt x="340" y="161" on="0"/>
        <pt x="235" y="218" on="0"/>
        <pt x="187" y="218" on="0"/>
        <pt x="153" y="189" on="0"/>
        <pt x="129" y="160" on="0"/>
        <pt x="108" y="160" on="0"/>
        <pt x="77" y="182" on="0"/>
        <pt x="77" y="190" on="1"/>
        <pt x="77" y="216" on="0"/>
        <pt x="162" y="294" on="0"/>
        <pt x="258" y="294" on="0"/>
        <pt x="360" y="237" on="0"/>
        <pt x="412" y="237" on="0"/>
        <pt x="446" y="266" on="0"/>
        <pt x="470" y="295" on="0"/>
        <pt x="491" y="295" on="0"/>
        <pt x="522" y="273" on="0"/>
        <pt x="522" y="265" on="1"/>
      </contour>
      <contour>
        <pt x="522" y="420" on="0"/>
        <pt x="436" y="343" on="0"/>
        <pt x="340" y="343" on="0"/>
        <pt x="235" y="400" on="0"/>
        <pt x="187" y="400" on="0"/>
        <pt x="153" y="371" on="0"/>
        <pt x="129" y="342" on="0"/>
        <pt x="108" y="342" on="0"/>
        <pt x="77" y="364" on="0"/>
        <pt x="77" y="372" on="1"/>
        <pt x="77" y="398" on="0"/>
        <pt x="162" y="476" on="0"/>
        <pt x="258" y="476" on="0"/>
        <pt x="360" y="419" on="0"/>
        <pt x="412" y="419" on="0"/>
        <pt x="446" y="448" on="0"/>
        <pt x="470" y="477" on="0"/>
        <pt x="491" y="477" on="0"/>
        <pt x="522" y="455" on="0"/>
        <pt x="522" y="447" on="1"/>
      </contour>
    </TTGlyph>
    <TTGlyph name="aring" xMin="33" yMin="-1" xMax="402" yMax="718">
      <contour>
        <pt x="346" y="-1" on="1"/>
        <pt x="316" y="-1" on="0"/>
        <pt x="318" y="32" on="1"/>
        <pt x="318" y="43" on="0"/>
        <pt x="315" y="43" on="1"/>
        <pt x="307" y="40" on="0"/>
        <pt x="283" y="26" on="1"/>
        <pt x="164" y="-47" on="0"/>
        <pt x="74" y="17" on="1"/>
        <pt x="33" y="46" on="0"/>
        <pt x="33" y="97" on="1"/>
        <pt x="33" y="174" on="0"/>
        <pt x="176" y="244" on="0"/>
        <pt x="282" y="244" on="1"/>
        <pt x="301" y="244" on="0"/>
        <pt x="310" y="243" on="1"/>
        <pt x="310" y="260" on="0"/>
        <pt x="311" y="267" on="1"/>
        <pt x="311" y="324" on="0"/>
        <pt x="248" y="381" on="0"/>
        <pt x="192" y="381" on="1"/>
        <pt x="165" y="381" on="0"/>
        <pt x="103" y="365" on="0"/>
        <pt x="85" y="365" on="0"/>
        <pt x="74" y="387" on="0"/>
        <pt x="74" y="423" on="0"/>
        <pt x="163" y="444" on="0"/>
        <pt x="204" y="444" on="1"/>
        <pt x="301" y="444" on="0"/>
        <pt x="402" y="342" on="0"/>
        <pt x="402" y="244" on="1"/>
        <pt x="402" y="38" on="1"/>
        <pt x="402" y="11" on="0"/>
        <pt x="382" y="-1" on="0"/>
      </contour>
      <contour>
        <pt x="309" y="104" on="1"/>
        <pt x="311" y="132" on="0"/>
        <pt x="311" y="196" on="0"/>
        <pt x="310" y="200" on="1"/>
        <pt x="172" y="187" on="0"/>
        <pt x="142" y="150" on="1"/>
        <pt x="126" y="131" on="0"/>
        <pt x="126" y="106" on="1"/>
        <pt x="126" y="53" on="0"/>
        <pt x="205" y="53" on="1"/>
        <pt x="245" y="53" on="0"/>
        <pt x="308" y="90" on="0"/>
      </contour>
      <contour>
        <pt x="280" y="718" on="0"/>
        <pt x="348" y="669" on="0"/>
        <pt x="348" y="561" on="0"/>
        <pt x="279" y="495" on="0"/>
        <pt x="182" y="495" on="0"/>
        <pt x="119" y="556" on="0"/>
        <pt x="119" y="660" on="0"/>
        <pt x="184" y="718" on="0"/>
        <pt x="243" y="718" on="1"/>
      </contour>
      <contour>
        <pt x="257" y="549" on="0"/>
        <pt x="288" y="584" on="0"/>
        <pt x="288" y="634" on="0"/>
        <pt x="262" y="667" on="0"/>
        <pt x="213" y="667" on="0"/>
        <pt x="181" y="638" on="0"/>
        <pt x="181" y="582" on="0"/>
        <pt x="211" y="549" on="0"/>
      </contour>
    </TTGlyph>
    <TTGlyph name="asciicircum" xMin="45" yMin="363" xMax="506" yMax="712">
      <contour>
        <pt x="279" y="634" on="0"/>
        <pt x="273" y="634" on="0"/>
        <pt x="257" y="610" on="0"/>
        <pt x="233" y="569" on="0"/>
        <pt x="227" y="560" on="1"/>
        <pt x="117" y="378" on="1"/>
        <pt x="108" y="363" on="0"/>
        <pt x="94" y="363" on="1"/>
        <pt x="80" y="363" on="0"/>
        <pt x="43" y="390" on="0"/>
        <pt x="48" y="419" on="0"/>
        <pt x="65" y="445" on="1"/>
        <pt x="162" y="596" on="0"/>
        <pt x="219" y="668" on="1"/>
        <pt x="252" y="712" on="0"/>
        <pt x="300" y="712" on="0"/>
        <pt x="333" y="668" on="1"/>
        <pt x="385" y="603" on="0"/>
        <pt x="486" y="445" on="1"/>
        <pt x="503" y="419" on="0"/>
        <pt x="508" y="390" on="0"/>
        <pt x="491" y="378" on="1"/>
        <pt x="471" y="363" on="0"/>
        <pt x="443" y="363" on="0"/>
        <pt x="434" y="378" on="1"/>
        <pt x="325" y="560" on="1"/>
        <pt x="319" y="569" on="0"/>
        <pt x="295" y="610" on="0"/>
      </contour>
    </TTGlyph>
    <TTGlyph name="asciitilde" xMin="55" yMin="220" xMax="500" yMax="355">
      <contour>
        <pt x="500" y="298" on="0"/>
        <pt x="414" y="221" on="0"/>
        <pt x="318" y="221" on="0"/>
        <pt x="213" y="278" on="0"/>
        <pt x="165" y="278" on="0"/>
        <pt x="131" y="249" on="0"/>
        <pt x="107" y="220" on="0"/>
        <pt x="86" y="220" on="0"/>
        <pt x="55" y="242" on="0"/>
        <pt x="55" y="250" on="1"/>
        <pt x="55" y="276" on="0"/>
        <pt x="140" y="354" on="0"/>
        <pt x="235" y="354" on="0"/>
        <pt x="338" y="297" on="0"/>
        <pt x="390" y="297" on="0"/>
        <pt x="424" y="326" on="0"/>
        <pt x="448" y="355" on="0"/>
        <pt x="469" y="355" on="0"/>
        <pt x="500" y="333" on="0"/>
        <pt x="500" y="325" on="1"/>
      </contour>
    </TTGlyph>
    <TTGlyph name="asterisk" xMin="55" yMin="346" xMax="431" yMax="712">
      <contour>
        <pt x="100" y="395" on="1"/>
        <pt x="100" y="414" on="0"/>
        <pt x="190" y="504" on="1"/>
        <pt x="55" y="530" on="0"/>
        <pt x="55" y="554" on="1"/>
        <pt x="55" y="582" on="0"/>
        <pt x="77" y="615" on="0"/>
        <pt x="93" y="615" on="0"/>
        <pt x="97" y="614" on="0"/>
        <pt x="200" y="562" on="0"/>
        <pt x="207" y="562" on="1"/>
        <pt x="209" y="562" on="0"/>
        <pt x="209" y="567" on="1"/>
        <pt x="203" y="687" on="1"/>
        <pt x="203" y="701" on="0"/>
        <pt x="221" y="712" on="0"/>
        <pt x="268" y="712" on="0"/>
        <pt x="285" y="702" on="0"/>
        <pt x="286" y="688" on="1"/>
        <pt x="286" y="682" on="1"/>
        <pt x="280" y="604" on="0"/>
        <pt x="271" y="570" on="0"/>
        <pt x="271" y="562" on="0"/>
        <pt x="285" y="562" on="0"/>
        <pt x="391" y="613" on="0"/>
        <pt x="409" y="613" on="0"/>
        <pt x="431" y="581" on="0"/>
        <pt x="431" y="554" on="1"/>
        <pt x="431" y="541" on="0"/>
        <pt x="414" y="533" on="1"/>
        <pt x="416" y="535" on="0"/>
        <pt x="297" y="505" on="0"/>
        <pt x="295" y="504" on="1"/>
        <pt x="297" y="502" on="1"/>
        <pt x="382" y="405" on="0"/>
        <pt x="382" y="382" on="0"/>
        <pt x="341" y="346" on="0"/>
        <pt x="316" y="346" on="0"/>
        <pt x="303" y="365" on="0"/>
        <pt x="287" y="394" on="1"/>
        <pt x="245" y="468" on="0"/>
        <pt x="243" y="468" on="1"/>
        <pt x="238" y="465" on="1"/>
        <pt x="220" y="429" on="0"/>
        <pt x="167" y="351" on="0"/>
        <pt x="144" y="351" on="0"/>
        <pt x="100" y="384" on="0"/>
      </contour>
    </TTGlyph>
    <TTGlyph name="at" xMin="66" yMin="-182" xMax="921" yMax="712">
      <contour>
        <pt x="577" y="61" on="1"/>
        <pt x="570" y="61" on="0"/>
        <pt x="554" y="63" on="1"/>
        <pt x="555" y="142" on="0"/>
        <pt x="596" y="280" on="1"/>
        <pt x="589" y="280" on="0"/>
        <pt x="540" y="223" on="0"/>
        <pt x="469" y="137" on="0"/>
        <pt x="445" y="114" on="1"/>
        <pt x="392" y="61" on="0"/>
        <pt x="347" y="61" on="1"/>
        <pt x="314" y="61" on="0"/>
        <pt x="273" y="110" on="0"/>
        <pt x="273" y="151" on="1"/>
        <pt x="273" y="287" on="0"/>
        <pt x="486" y="493" on="0"/>
        <pt x="628" y="493" on="1"/>
        <pt x="685" y="493" on="0"/>
        <pt x="686" y="469" on="1"/>
        <pt x="686" y="459" on="0"/>
        <pt x="681" y="448" on="1"/>
        <pt x="597" y="439" on="0"/>
        <pt x="536" y="412" on="1"/>
        <pt x="429" y="367" on="0"/>
        <pt x="378" y="254" on="1"/>
        <pt x="357" y="207" on="0"/>
        <pt x="357" y="130" on="0"/>
        <pt x="412" y="130" on="0"/>
        <pt x="516" y="250" on="0"/>
        <pt x="607" y="373" on="0"/>
        <pt x="628" y="402" on="0"/>
        <pt x="641" y="420" on="0"/>
        <pt x="663" y="438" on="0"/>
        <pt x="672" y="438" on="1"/>
        <pt x="695" y="438" on="0"/>
        <pt x="695" y="417" on="1"/>
        <pt x="695" y="407" on="0"/>
        <pt x="665" y="234" on="0"/>
        <pt x="637" y="123" on="1"/>
        <pt x="690" y="139" on="0"/>
        <pt x="783" y="237" on="0"/>
        <pt x="835" y="365" on="0"/>
        <pt x="835" y="426" on="1"/>
        <pt x="835" y="535" on="0"/>
        <pt x="713" y="659" on="0"/>
        <pt x="505" y="659" on="0"/>
        <pt x="337" y="571" on="0"/>
        <pt x="227" y="429" on="0"/>
        <pt x="164" y="256" on="0"/>
        <pt x="164" y="169" on="1"/>
        <pt x="164" y="40" on="0"/>
        <pt x="311" y="-121" on="0"/>
        <pt x="594" y="-121" on="0"/>
        <pt x="705" y="-33" on="1"/>
        <pt x="710" y="-30" on="0"/>
        <pt x="726" y="-30" on="0"/>
        <pt x="748" y="-50" on="0"/>
        <pt x="748" y="-60" on="1"/>
        <pt x="748" y="-75" on="0"/>
        <pt x="666" y="-131" on="0"/>
        <pt x="509" y="-182" on="0"/>
        <pt x="427" y="-182" on="1"/>
        <pt x="257" y="-182" on="0"/>
        <pt x="66" y="17" on="0"/>
        <pt x="66" y="189" on="1"/>
        <pt x="66" y="332" on="0"/>
        <pt x="227" y="576" on="0"/>
        <pt x="478" y="712" on="0"/>
        <pt x="759" y="712" on="0"/>
        <pt x="921" y="568" on="0"/>
        <pt x="921" y="439" on="1"/>
        <pt x="921" y="367" on="0"/>
        <pt x="860" y="228" on="0"/>
        <pt x="762" y="127" on="0"/>
        <pt x="638" y="64" on="0"/>
      </contour>
    </TTGlyph>
    <TTGlyph name="atilde" xMin="33" yMin="-1" xMax="424" yMax="643">
      <contour>
        <pt x="346" y="-1" on="1"/>
        <pt x="316" y="-1" on="0"/>
        <pt x="318" y="32" on="1"/>
        <pt x="318" y="43" on="0"/>
        <pt x="315" y="43" on="1"/>
        <pt x="307" y="40" on="0"/>
        <pt x="283" y="26" on="1"/>
        <pt x="164" y="-47" on="0"/>
        <pt x="74" y="17" on="1"/>
        <pt x="33" y="46" on="0"/>
        <pt x="33" y="97" on="1"/>
        <pt x="33" y="174" on="0"/>
        <pt x="176" y="244" on="0"/>
        <pt x="282" y="244" on="1"/>
        <pt x="301" y="244" on="0"/>
        <pt x="310" y="243" on="1"/>
        <pt x="310" y="260" on="0"/>
        <pt x="311" y="267" on="1"/>
        <pt x="311" y="324" on="0"/>
        <pt x="248" y="381" on="0"/>
        <pt x="192" y="381" on="1"/>
        <pt x="165" y="381" on="0"/>
        <pt x="103" y="365" on="0"/>
        <pt x="85" y="365" on="0"/>
        <pt x="74" y="387" on="0"/>
        <pt x="74" y="423" on="0"/>
        <pt x="163" y="444" on="0"/>
        <pt x="204" y="444" on="1"/>
        <pt x="301" y="444" on="0"/>
        <pt x="402" y="342" on="0"/>
        <pt x="402" y="244" on="1"/>
        <pt x="402" y="38" on="1"/>
        <pt x="402" y="11" on="0"/>
        <pt x="382" y="-1" on="0"/>
      </contour>
      <contour>
        <pt x="309" y="104" on="1"/>
        <pt x="311" y="132" on="0"/>
        <pt x="311" y="196" on="0"/>
        <pt x="310" y="200" on="1"/>
        <pt x="172" y="187" on="0"/>
        <pt x="142" y="150" on="1"/>
        <pt x="126" y="131" on="0"/>
        <pt x="126" y="106" on="1"/>
        <pt x="126" y="53" on="0"/>
        <pt x="205" y="53" on="1"/>
        <pt x="245" y="53" on="0"/>
        <pt x="308" y="90" on="0"/>
      </contour>
      <contour>
        <pt x="165" y="643" on="1"/>
        <pt x="199" y="643" on="0"/>
        <pt x="312" y="590" on="0"/>
        <pt x="354" y="590" on="0"/>
        <pt x="381" y="615" on="0"/>
        <pt x="396" y="640" on="0"/>
        <pt x="411" y="640" on="0"/>
        <pt x="424" y="629" on="0"/>
        <pt x="424" y="623" on="1"/>
        <pt x="424" y="597" on="0"/>
        <pt x="358" y="522" on="0"/>
        <pt x="310" y="522" on="1"/>
        <pt x="278" y="522" on="0"/>
        <pt x="175" y="572" on="0"/>
        <pt x="122" y="572" on="0"/>
        <pt x="97" y="555" on="0"/>
        <pt x="92" y="544" on="1"/>
        <pt x="79" y="517" on="0"/>
        <pt x="67" y="517" on="1"/>
        <pt x="60" y="517" on="0"/>
        <pt x="44" y="525" on="0"/>
        <pt x="44" y="533" on="1"/>
        <pt x="44" y="558" on="0"/>
        <pt x="111" y="643" on="0"/>
      </contour>
    </TTGlyph>
    <TTGlyph name="b" xMin="77" yMin="-12" xMax="507" yMax="737">
      <contour>
        <pt x="78" y="632" on="1"/>
        <pt x="80" y="716" on="1"/>
        <pt x="80" y="731" on="0"/>
        <pt x="101" y="737" on="0"/>
        <pt x="164" y="737" on="0"/>
        <pt x="175" y="723" on="0"/>
        <pt x="175" y="700" on="1"/>
        <pt x="175" y="553" on="1"/>
        <pt x="175" y="432" on="0"/>
        <pt x="177" y="400" on="1"/>
        <pt x="262" y="444" on="0"/>
        <pt x="329" y="444" on="1"/>
        <pt x="368" y="444" on="0"/>
        <pt x="447" y="412" on="0"/>
        <pt x="467" y="386" on="1"/>
        <pt x="507" y="335" on="0"/>
        <pt x="507" y="150" on="0"/>
        <pt x="462" y="77" on="1"/>
        <pt x="441" y="43" on="0"/>
        <pt x="348" y="-12" on="0"/>
        <pt x="286" y="-12" on="1"/>
        <pt x="215" y="-12" on="0"/>
        <pt x="162" y="29" on="1"/>
        <pt x="147" y="40" on="0"/>
        <pt x="137" y="40" on="0"/>
        <pt x="107" y="0" on="0"/>
        <pt x="99" y="0" on="1"/>
        <pt x="83" y="0" on="0"/>
        <pt x="77" y="32" on="0"/>
        <pt x="77" y="94" on="1"/>
        <pt x="78" y="288" on="1"/>
      </contour>
      <contour>
        <pt x="177" y="337" on="1"/>
        <pt x="176" y="84" on="1"/>
        <pt x="176" y="66" on="0"/>
        <pt x="231" y="46" on="0"/>
        <pt x="264" y="46" on="1"/>
        <pt x="332" y="46" on="0"/>
        <pt x="411" y="140" on="0"/>
        <pt x="411" y="216" on="1"/>
        <pt x="411" y="379" on="0"/>
        <pt x="298" y="379" on="1"/>
        <pt x="270" y="379" on="0"/>
        <pt x="243" y="373" on="1"/>
        <pt x="177" y="359" on="0"/>
      </contour>
    </TTGlyph>
    <TTGlyph name="backslash" xMin="22" yMin="-91" xMax="363" yMax="761">
      <contour>
        <pt x="192" y="196" on="1"/>
        <pt x="177" y="244" on="0"/>
        <pt x="115" y="441" on="0"/>
        <pt x="49" y="636" on="0"/>
        <pt x="22" y="720" on="0"/>
        <pt x="22" y="746" on="0"/>
        <pt x="57" y="761" on="0"/>
        <pt x="82" y="761" on="1"/>
        <pt x="98" y="761" on="0"/>
        <pt x="189" y="506" on="0"/>
        <pt x="241" y="328" on="0"/>
        <pt x="278" y="214" on="1"/>
        <pt x="363" y="-55" on="0"/>
        <pt x="363" y="-70" on="1"/>
        <pt x="363" y="-74" on="0"/>
        <pt x="316" y="-91" on="0"/>
        <pt x="302" y="-91" on="1"/>
        <pt x="283" y="-91" on="0"/>
      </contour>
    </TTGlyph>
    <TTGlyph name="bar" xMin="99" yMin="-262" xMax="187" yMax="738">
      <contour>
        <pt x="102" y="606" on="1"/>
        <pt x="101" y="688" on="1"/>
        <pt x="101" y="728" on="0"/>
        <pt x="105" y="736" on="1"/>
        <pt x="107" y="738" on="0"/>
        <pt x="174" y="738" on="0"/>
        <pt x="187" y="734" on="0"/>
        <pt x="187" y="721" on="1"/>
        <pt x="187" y="-234" on="1"/>
        <pt x="187" y="-249" on="0"/>
        <pt x="169" y="-262" on="0"/>
        <pt x="113" y="-262" on="0"/>
        <pt x="99" y="-255" on="0"/>
        <pt x="99" y="-240" on="1"/>
        <pt x="99" y="-240" on="0"/>
        <pt x="101" y="-207" on="1"/>
        <pt x="100" y="21" on="1"/>
        <pt x="100" y="224" on="1"/>
        <pt x="100" y="238" on="0"/>
        <pt x="100" y="283" on="1"/>
      </contour>
    </TTGlyph>
    <TTGlyph name="braceleft" xMin="44" yMin="-262" xMax="371" yMax="738">
      <contour>
        <pt x="221" y="-142" on="0"/>
        <pt x="269" y="-195" on="0"/>
        <pt x="323" y="-195" on="0"/>
        <pt x="353" y="-187" on="1"/>
        <pt x="371" y="-201" on="0"/>
        <pt x="371" y="-262" on="0"/>
        <pt x="302" y="-262" on="1"/>
        <pt x="122" y="-262" on="0"/>
        <pt x="122" y="-54" on="1"/>
        <pt x="122" y="-29" on="0"/>
        <pt x="139" y="114" on="0"/>
        <pt x="139" y="144" on="1"/>
        <pt x="139" y="202" on="0"/>
        <pt x="85" y="202" on="1"/>
        <pt x="58" y="202" on="1"/>
        <pt x="51" y="202" on="0"/>
        <pt x="48" y="208" on="1"/>
        <pt x="44" y="212" on="0"/>
        <pt x="44" y="220" on="1"/>
        <pt x="46" y="241" on="1"/>
        <pt x="44" y="257" on="1"/>
        <pt x="44" y="264" on="0"/>
        <pt x="48" y="268" on="1"/>
        <pt x="51" y="274" on="0"/>
        <pt x="58" y="274" on="1"/>
        <pt x="88" y="274" on="1"/>
        <pt x="139" y="275" on="0"/>
        <pt x="139" y="332" on="1"/>
        <pt x="139" y="362" on="0"/>
        <pt x="122" y="505" on="0"/>
        <pt x="122" y="530" on="1"/>
        <pt x="122" y="738" on="0"/>
        <pt x="302" y="738" on="1"/>
        <pt x="371" y="738" on="0"/>
        <pt x="371" y="677" on="0"/>
        <pt x="353" y="663" on="1"/>
        <pt x="326" y="671" on="0"/>
        <pt x="269" y="671" on="0"/>
        <pt x="221" y="618" on="0"/>
        <pt x="221" y="560" on="1"/>
        <pt x="221" y="541" on="0"/>
        <pt x="236" y="407" on="0"/>
        <pt x="236" y="377" on="1"/>
        <pt x="236" y="285" on="0"/>
        <pt x="158" y="238" on="1"/>
        <pt x="195" y="223" on="0"/>
        <pt x="236" y="144" on="0"/>
        <pt x="236" y="69" on="0"/>
        <pt x="221" y="-65" on="0"/>
        <pt x="221" y="-84" on="1"/>
      </contour>
    </TTGlyph>
    <TTGlyph name="braceright" xMin="44" yMin="-262" xMax="371" yMax="738">
      <contour>
        <pt x="194" y="618" on="0"/>
        <pt x="146" y="671" on="0"/>
        <pt x="92" y="671" on="0"/>
        <pt x="62" y="663" on="1"/>
        <pt x="44" y="677" on="0"/>
        <pt x="44" y="738" on="0"/>
        <pt x="113" y="738" on="1"/>
        <pt x="293" y="738" on="0"/>
        <pt x="293" y="530" on="1"/>
        <pt x="293" y="505" on="0"/>
        <pt x="276" y="362" on="0"/>
        <pt x="276" y="332" on="1"/>
        <pt x="276" y="274" on="0"/>
        <pt x="330" y="274" on="1"/>
        <pt x="357" y="274" on="1"/>
        <pt x="364" y="274" on="0"/>
        <pt x="367" y="268" on="1"/>
        <pt x="371" y="264" on="0"/>
        <pt x="371" y="256" on="1"/>
        <pt x="369" y="235" on="1"/>
        <pt x="371" y="219" on="1"/>
        <pt x="371" y="212" on="0"/>
        <pt x="367" y="208" on="1"/>
        <pt x="364" y="202" on="0"/>
        <pt x="357" y="202" on="1"/>
        <pt x="327" y="202" on="1"/>
        <pt x="276" y="201" on="0"/>
        <pt x="276" y="144" on="1"/>
        <pt x="276" y="114" on="0"/>
        <pt x="293" y="-29" on="0"/>
        <pt x="293" y="-54" on="1"/>
        <pt x="293" y="-262" on="0"/>
        <pt x="113" y="-262" on="1"/>
        <pt x="44" y="-262" on="0"/>
        <pt x="44" y="-201" on="0"/>
        <pt x="62" y="-187" on="1"/>
        <pt x="89" y="-195" on="0"/>
        <pt x="146" y="-195" on="0"/>
        <pt x="194" y="-142" on="0"/>
        <pt x="194" y="-84" on="1"/>
        <pt x="194" y="-65" on="0"/>
        <pt x="179" y="69" on="0"/>
        <pt x="179" y="99" on="1"/>
        <pt x="179" y="191" on="0"/>
        <pt x="257" y="238" on="1"/>
        <pt x="220" y="253" on="0"/>
        <pt x="179" y="332" on="0"/>
        <pt x="179" y="407" on="0"/>
        <pt x="194" y="541" on="0"/>
        <pt x="194" y="560" on="1"/>
      </contour>
    </TTGlyph>
    <TTGlyph name="bracketleft" xMin="88" yMin="-262" xMax="331" yMax="738">
      <contour>
        <pt x="88" y="23" on="1"/>
        <pt x="93" y="672" on="1"/>
        <pt x="93" y="713" on="0"/>
        <pt x="104" y="738" on="0"/>
        <pt x="125" y="738" on="1"/>
        <pt x="314" y="738" on="1"/>
        <pt x="327" y="738" on="0"/>
        <pt x="329" y="724" on="1"/>
        <pt x="331" y="708" on="0"/>
        <pt x="330" y="686" on="0"/>
        <pt x="330" y="683" on="1"/>
        <pt x="330" y="665" on="0"/>
        <pt x="320" y="665" on="1"/>
        <pt x="270" y="663" on="0"/>
        <pt x="242" y="663" on="1"/>
        <pt x="186" y="663" on="1"/>
        <pt x="185" y="465" on="1"/>
        <pt x="186" y="271" on="1"/>
        <pt x="186" y="-100" on="0"/>
        <pt x="183" y="-187" on="1"/>
        <pt x="241" y="-186" on="1"/>
        <pt x="297" y="-186" on="0"/>
        <pt x="307" y="-188" on="1"/>
        <pt x="330" y="-193" on="0"/>
        <pt x="330" y="-211" on="1"/>
        <pt x="331" y="-221" on="0"/>
        <pt x="331" y="-226" on="1"/>
        <pt x="331" y="-262" on="0"/>
        <pt x="314" y="-262" on="1"/>
        <pt x="170" y="-262" on="1"/>
        <pt x="107" y="-262" on="0"/>
        <pt x="98" y="-254" on="1"/>
        <pt x="88" y="-244" on="0"/>
      </contour>
    </TTGlyph>
    <TTGlyph name="bracketright" xMin="45" yMin="-262" xMax="288" yMax="738">
      <contour>
        <pt x="288" y="415" on="1"/>
        <pt x="283" y="-196" on="1"/>
        <pt x="283" y="-237" on="0"/>
        <pt x="272" y="-262" on="0"/>
        <pt x="251" y="-262" on="1"/>
        <pt x="62" y="-262" on="1"/>
        <pt x="49" y="-262" on="0"/>
        <pt x="47" y="-248" on="1"/>
        <pt x="45" y="-232" on="0"/>
        <pt x="46" y="-210" on="0"/>
        <pt x="46" y="-207" on="1"/>
        <pt x="46" y="-189" on="0"/>
        <pt x="56" y="-189" on="1"/>
        <pt x="106" y="-187" on="0"/>
        <pt x="134" y="-187" on="1"/>
        <pt x="190" y="-187" on="1"/>
        <pt x="191" y="-27" on="1"/>
        <pt x="190" y="167" on="1"/>
        <pt x="190" y="576" on="0"/>
        <pt x="193" y="663" on="1"/>
        <pt x="135" y="662" on="1"/>
        <pt x="79" y="662" on="0"/>
        <pt x="69" y="664" on="1"/>
        <pt x="46" y="669" on="0"/>
        <pt x="46" y="687" on="1"/>
        <pt x="45" y="697" on="0"/>
        <pt x="45" y="702" on="1"/>
        <pt x="45" y="738" on="0"/>
        <pt x="62" y="738" on="1"/>
        <pt x="206" y="738" on="1"/>
        <pt x="269" y="738" on="0"/>
        <pt x="278" y="730" on="1"/>
        <pt x="288" y="720" on="0"/>
      </contour>
    </TTGlyph>
    <TTGlyph name="breve" xMin="77" yMin="502" xMax="397" yMax="660">
      <contour>
        <pt x="132" y="626" on="0"/>
        <pt x="194" y="585" on="0"/>
        <pt x="283" y="585" on="0"/>
        <pt x="341" y="625" on="0"/>
        <pt x="351" y="649" on="1"/>
        <pt x="355" y="660" on="0"/>
        <pt x="397" y="660" on="0"/>
        <pt x="397" y="649" on="1"/>
        <pt x="395" y="601" on="0"/>
        <pt x="312" y="502" on="0"/>
        <pt x="163" y="502" on="0"/>
        <pt x="79" y="601" on="0"/>
        <pt x="77" y="649" on="1"/>
        <pt x="77" y="660" on="0"/>
        <pt x="119" y="660" on="0"/>
        <pt x="123" y="649" on="1"/>
      </contour>
    </TTGlyph>
    <TTGlyph name="brokenbar" xMin="99" yMin="-262" xMax="188" yMax="738">
      <contour>
        <pt x="186" y="120" on="1"/>
        <pt x="187" y="-68" on="1"/>
        <pt x="186" y="-106" on="0"/>
        <pt x="186" y="-252" on="0"/>
        <pt x="182" y="-260" on="1"/>
        <pt x="180" y="-262" on="0"/>
        <pt x="112" y="-262" on="0"/>
        <pt x="100" y="-259" on="0"/>
        <pt x="100" y="-245" on="1"/>
        <pt x="100" y="110" on="1"/>
        <pt x="100" y="151" on="0"/>
        <pt x="113" y="175" on="0"/>
        <pt x="161" y="175" on="0"/>
        <pt x="168" y="174" on="1"/>
        <pt x="188" y="171" on="0"/>
        <pt x="188" y="153" on="1"/>
      </contour>
      <contour>
        <pt x="101" y="356" on="1"/>
        <pt x="100" y="544" on="1"/>
        <pt x="101" y="582" on="0"/>
        <pt x="101" y="728" on="0"/>
        <pt x="105" y="736" on="1"/>
        <pt x="107" y="738" on="0"/>
        <pt x="175" y="738" on="0"/>
        <pt x="187" y="735" on="0"/>
        <pt x="187" y="721" on="1"/>
        <pt x="187" y="366" on="1"/>
        <pt x="187" y="362" on="0"/>
        <pt x="187" y="359" on="1"/>
        <pt x="187" y="323" on="0"/>
        <pt x="167" y="301" on="0"/>
        <pt x="113" y="301" on="0"/>
        <pt x="99" y="308" on="0"/>
        <pt x="99" y="323" on="1"/>
      </contour>
    </TTGlyph>
    <TTGlyph name="bullet" xMin="88" yMin="195" xMax="375" yMax="470">
      <contour>
        <pt x="211" y="466" on="1"/>
        <pt x="241" y="470" on="0"/>
        <pt x="258" y="470" on="1"/>
        <pt x="314" y="470" on="0"/>
        <pt x="375" y="404" on="0"/>
        <pt x="375" y="280" on="0"/>
        <pt x="287" y="195" on="0"/>
        <pt x="220" y="195" on="1"/>
        <pt x="195" y="195" on="0"/>
        <pt x="147" y="225" on="1"/>
        <pt x="123" y="240" on="0"/>
        <pt x="88" y="300" on="0"/>
        <pt x="88" y="383" on="0"/>
        <pt x="164" y="460" on="0"/>
      </contour>
    </TTGlyph>
    <TTGlyph name="c" xMin="44" yMin="-12" xMax="436" yMax="440">
      <contour>
        <pt x="419" y="69" on="1"/>
        <pt x="436" y="69" on="0"/>
        <pt x="436" y="45" on="1"/>
        <pt x="436" y="-12" on="0"/>
        <pt x="288" y="-12" on="1"/>
        <pt x="225" y="-12" on="0"/>
        <pt x="127" y="28" on="0"/>
        <pt x="100" y="60" on="1"/>
        <pt x="44" y="126" on="0"/>
        <pt x="44" y="207" on="1"/>
        <pt x="44" y="311" on="0"/>
        <pt x="200" y="440" on="0"/>
        <pt x="432" y="440" on="0"/>
        <pt x="432" y="407" on="1"/>
        <pt x="432" y="384" on="0"/>
        <pt x="416" y="378" on="0"/>
        <pt x="412" y="378" on="1"/>
        <pt x="394" y="378" on="1"/>
        <pt x="275" y="378" on="0"/>
        <pt x="143" y="309" on="0"/>
        <pt x="143" y="141" on="0"/>
        <pt x="244" y="54" on="0"/>
        <pt x="335" y="54" on="1"/>
        <pt x="356" y="54" on="0"/>
        <pt x="410" y="69" on="0"/>
      </contour>
    </TTGlyph>
    <TTGlyph name="caron" xMin="78" yMin="502" xMax="386" yMax="650">
      <contour>
        <pt x="223" y="588" on="0"/>
        <pt x="241" y="588" on="0"/>
        <pt x="293" y="615" on="0"/>
        <pt x="319" y="630" on="1"/>
        <pt x="350" y="649" on="0"/>
        <pt x="368" y="649" on="0"/>
        <pt x="386" y="629" on="0"/>
        <pt x="386" y="616" on="0"/>
        <pt x="349" y="583" on="0"/>
        <pt x="302" y="546" on="0"/>
        <pt x="300" y="544" on="1"/>
        <pt x="250" y="502" on="0"/>
        <pt x="232" y="502" on="1"/>
        <pt x="216" y="502" on="0"/>
        <pt x="194" y="520" on="0"/>
        <pt x="167" y="541" on="0"/>
        <pt x="162" y="546" on="0"/>
        <pt x="140" y="563" on="0"/>
        <pt x="117" y="582" on="0"/>
        <pt x="105" y="592" on="1"/>
        <pt x="78" y="614" on="0"/>
        <pt x="78" y="629" on="0"/>
        <pt x="96" y="650" on="0"/>
        <pt x="110" y="650" on="0"/>
        <pt x="118" y="647" on="0"/>
        <pt x="170" y="615" on="0"/>
      </contour>
    </TTGlyph>
    <TTGlyph name="caron.cap" xMin="78" yMin="770" xMax="386" yMax="918">
      <contour>
        <pt x="223" y="856" on="0"/>
        <pt x="241" y="856" on="0"/>
        <pt x="293" y="883" on="0"/>
        <pt x="319" y="898" on="1"/>
        <pt x="350" y="917" on="0"/>
        <pt x="368" y="917" on="0"/>
        <pt x="386" y="897" on="0"/>
        <pt x="386" y="884" on="0"/>
        <pt x="349" y="851" on="0"/>
        <pt x="302" y="814" on="0"/>
        <pt x="300" y="812" on="1"/>
        <pt x="250" y="770" on="0"/>
        <pt x="232" y="770" on="1"/>
        <pt x="216" y="770" on="0"/>
        <pt x="194" y="788" on="0"/>
        <pt x="167" y="809" on="0"/>
        <pt x="162" y="814" on="0"/>
        <pt x="140" y="831" on="0"/>
        <pt x="117" y="850" on="0"/>
        <pt x="105" y="860" on="1"/>
        <pt x="78" y="882" on="0"/>
        <pt x="78" y="897" on="0"/>
        <pt x="96" y="918" on="0"/>
        <pt x="110" y="918" on="0"/>
        <pt x="118" y="915" on="0"/>
        <pt x="170" y="883" on="0"/>
      </contour>
    </TTGlyph>
    <TTGlyph name="ccedilla" xMin="44" yMin="-262" xMax="436" yMax="440">
      <contour>
        <pt x="151" y="-212" on="1"/>
        <pt x="184" y="-215" on="1"/>
        <pt x="220" y="-215" on="0"/>
        <pt x="275" y="-187" on="0"/>
        <pt x="275" y="-134" on="0"/>
        <pt x="226" y="-108" on="0"/>
        <pt x="177" y="-95" on="0"/>
        <pt x="177" y="-81" on="0"/>
        <pt x="203" y="-24" on="0"/>
        <pt x="217" y="-5" on="1"/>
        <pt x="130" y="14" on="0"/>
        <pt x="44" y="135" on="0"/>
        <pt x="44" y="207" on="1"/>
        <pt x="44" y="311" on="0"/>
        <pt x="200" y="440" on="0"/>
        <pt x="432" y="440" on="0"/>
        <pt x="432" y="407" on="1"/>
        <pt x="432" y="384" on="0"/>
        <pt x="416" y="378" on="0"/>
        <pt x="412" y="378" on="1"/>
        <pt x="394" y="378" on="1"/>
        <pt x="275" y="378" on="0"/>
        <pt x="143" y="309" on="0"/>
        <pt x="143" y="141" on="0"/>
        <pt x="244" y="54" on="0"/>
        <pt x="335" y="54" on="1"/>
        <pt x="356" y="54" on="0"/>
        <pt x="410" y="69" on="0"/>
        <pt x="419" y="69" on="1"/>
        <pt x="436" y="69" on="0"/>
        <pt x="436" y="45" on="1"/>
        <pt x="436" y="-12" on="0"/>
        <pt x="288" y="-12" on="1"/>
        <pt x="276" y="-12" on="0"/>
        <pt x="270" y="-11" on="1"/>
        <pt x="267" y="-17" on="0"/>
        <pt x="260" y="-28" on="1"/>
        <pt x="244" y="-52" on="0"/>
        <pt x="244" y="-61" on="1"/>
        <pt x="244" y="-63" on="0"/>
        <pt x="282" y="-70" on="0"/>
        <pt x="326" y="-82" on="0"/>
        <pt x="364" y="-124" on="0"/>
        <pt x="364" y="-157" on="1"/>
        <pt x="364" y="-208" on="0"/>
        <pt x="256" y="-262" on="0"/>
        <pt x="183" y="-262" on="1"/>
        <pt x="144" y="-262" on="0"/>
        <pt x="144" y="-231" on="1"/>
        <pt x="144" y="-224" on="0"/>
      </contour>
    </TTGlyph>
    <TTGlyph name="cedilla" xMin="77" yMin="-262" xMax="297" yMax="10">
      <contour>
        <pt x="84" y="-212" on="1"/>
        <pt x="117" y="-215" on="1"/>
        <pt x="153" y="-215" on="0"/>
        <pt x="208" y="-187" on="0"/>
        <pt x="208" y="-134" on="0"/>
        <pt x="159" y="-108" on="0"/>
        <pt x="110" y="-95" on="0"/>
        <pt x="110" y="-88" on="1"/>
        <pt x="110" y="-79" on="0"/>
        <pt x="146" y="-6" on="0"/>
        <pt x="158" y="5" on="1"/>
        <pt x="184" y="27" on="0"/>
        <pt x="205" y="10" on="1"/>
        <pt x="207" y="8" on="0"/>
        <pt x="207" y="-6" on="0"/>
        <pt x="177" y="-53" on="0"/>
        <pt x="177" y="-61" on="1"/>
        <pt x="177" y="-63" on="0"/>
        <pt x="214" y="-70" on="0"/>
        <pt x="260" y="-82" on="0"/>
        <pt x="297" y="-124" on="0"/>
        <pt x="297" y="-157" on="1"/>
        <pt x="297" y="-208" on="0"/>
        <pt x="189" y="-262" on="0"/>
        <pt x="116" y="-262" on="1"/>
        <pt x="77" y="-262" on="0"/>
        <pt x="77" y="-231" on="1"/>
        <pt x="77" y="-221" on="0"/>
      </contour>
    </TTGlyph>
    <TTGlyph name="cent" xMin="55" yMin="-140" xMax="447" yMax="554">
      <contour>
        <pt x="319" y="554" on="1"/>
        <pt x="355" y="554" on="0"/>
        <pt x="355" y="542" on="1"/>
        <pt x="355" y="525" on="0"/>
        <pt x="348" y="444" on="1"/>
        <pt x="443" y="442" on="0"/>
        <pt x="443" y="411" on="1"/>
        <pt x="443" y="389" on="0"/>
        <pt x="428" y="380" on="0"/>
        <pt x="372" y="380" on="0"/>
        <pt x="342" y="377" on="1"/>
        <pt x="329" y="255" on="0"/>
        <pt x="319" y="178" on="0"/>
        <pt x="309" y="81" on="0"/>
        <pt x="306" y="58" on="1"/>
        <pt x="332" y="56" on="0"/>
        <pt x="362" y="56" on="0"/>
        <pt x="419" y="69" on="0"/>
        <pt x="430" y="69" on="1"/>
        <pt x="447" y="69" on="0"/>
        <pt x="447" y="45" on="1"/>
        <pt x="447" y="-12" on="0"/>
        <pt x="299" y="-12" on="1"/>
        <pt x="298" y="-12" on="1"/>
        <pt x="282" y="-135" on="0"/>
        <pt x="272" y="-137" on="1"/>
        <pt x="258" y="-140" on="0"/>
        <pt x="248" y="-140" on="1"/>
        <pt x="224" y="-140" on="0"/>
        <pt x="220" y="-125" on="1"/>
        <pt x="219" y="-121" on="0"/>
        <pt x="219" y="-81" on="0"/>
        <pt x="227" y="-4" on="1"/>
        <pt x="141" y="15" on="0"/>
        <pt x="55" y="137" on="0"/>
        <pt x="55" y="209" on="1"/>
        <pt x="55" y="301" on="0"/>
        <pt x="179" y="426" on="0"/>
        <pt x="280" y="440" on="1"/>
        <pt x="296" y="547" on="0"/>
        <pt x="310" y="554" on="0"/>
      </contour>
      <contour>
        <pt x="237" y="78" on="1"/>
        <pt x="242" y="128" on="0"/>
        <pt x="253" y="211" on="0"/>
        <pt x="267" y="332" on="0"/>
        <pt x="271" y="364" on="1"/>
        <pt x="156" y="330" on="0"/>
        <pt x="156" y="119" on="0"/>
      </contour>
    </TTGlyph>
    <TTGlyph name="circumflex" xMin="78" yMin="510" xMax="386" yMax="658">
      <contour>
        <pt x="241" y="572" on="0"/>
        <pt x="223" y="572" on="0"/>
        <pt x="170" y="545" on="0"/>
        <pt x="144" y="529" on="1"/>
        <pt x="113" y="510" on="0"/>
        <pt x="96" y="510" on="0"/>
        <pt x="78" y="531" on="0"/>
        <pt x="78" y="542" on="0"/>
        <pt x="93" y="558" on="0"/>
        <pt x="117" y="578" on="0"/>
        <pt x="140" y="597" on="0"/>
        <pt x="162" y="614" on="0"/>
        <pt x="167" y="619" on="0"/>
        <pt x="194" y="640" on="0"/>
        <pt x="200" y="644" on="1"/>
        <pt x="216" y="658" on="0"/>
        <pt x="250" y="658" on="0"/>
        <pt x="300" y="616" on="1"/>
        <pt x="302" y="614" on="0"/>
        <pt x="326" y="596" on="1"/>
        <pt x="386" y="548" on="0"/>
        <pt x="386" y="531" on="0"/>
        <pt x="368" y="511" on="0"/>
        <pt x="353" y="511" on="0"/>
        <pt x="345" y="514" on="0"/>
        <pt x="293" y="545" on="0"/>
      </contour>
    </TTGlyph>
    <TTGlyph name="circumflex.cap" xMin="78" yMin="778" xMax="386" yMax="926">
      <contour>
        <pt x="241" y="840" on="0"/>
        <pt x="223" y="840" on="0"/>
        <pt x="170" y="813" on="0"/>
        <pt x="144" y="797" on="1"/>
        <pt x="113" y="778" on="0"/>
        <pt x="96" y="778" on="0"/>
        <pt x="78" y="799" on="0"/>
        <pt x="78" y="810" on="0"/>
        <pt x="93" y="826" on="0"/>
        <pt x="117" y="846" on="0"/>
        <pt x="140" y="865" on="0"/>
        <pt x="162" y="882" on="0"/>
        <pt x="167" y="887" on="0"/>
        <pt x="194" y="908" on="0"/>
        <pt x="200" y="912" on="1"/>
        <pt x="216" y="926" on="0"/>
        <pt x="250" y="926" on="0"/>
        <pt x="300" y="884" on="1"/>
        <pt x="302" y="882" on="0"/>
        <pt x="326" y="864" on="1"/>
        <pt x="386" y="816" on="0"/>
        <pt x="386" y="799" on="0"/>
        <pt x="368" y="779" on="0"/>
        <pt x="353" y="779" on="0"/>
        <pt x="345" y="782" on="0"/>
        <pt x="293" y="813" on="0"/>
      </contour>
    </TTGlyph>
    <TTGlyph name="colon" xMin="77" yMin="-12" xMax="239" yMax="445">
      <contour>
        <pt x="148" y="127" on="1"/>
        <pt x="159" y="132" on="0"/>
        <pt x="186" y="132" on="1"/>
        <pt x="238" y="132" on="0"/>
        <pt x="238" y="71" on="1"/>
        <pt x="238" y="-12" on="0"/>
        <pt x="154" y="-12" on="1"/>
        <pt x="123" y="-12" on="0"/>
        <pt x="85" y="23" on="0"/>
        <pt x="85" y="84" on="0"/>
        <pt x="120" y="123" on="0"/>
      </contour>
      <contour>
        <pt x="151" y="443" on="1"/>
        <pt x="167" y="445" on="0"/>
        <pt x="175" y="445" on="1"/>
        <pt x="239" y="445" on="0"/>
        <pt x="239" y="383" on="1"/>
        <pt x="239" y="347" on="0"/>
        <pt x="191" y="299" on="0"/>
        <pt x="155" y="299" on="1"/>
        <pt x="136" y="299" on="0"/>
        <pt x="77" y="338" on="0"/>
        <pt x="77" y="376" on="1"/>
        <pt x="77" y="399" on="0"/>
        <pt x="124" y="437" on="0"/>
      </contour>
    </TTGlyph>
    <TTGlyph name="comma" xMin="66" yMin="-180" xMax="233" yMax="130">
      <contour>
        <pt x="143" y="-180" on="1"/>
        <pt x="122" y="-180" on="0"/>
        <pt x="95" y="-158" on="0"/>
        <pt x="95" y="-146" on="1"/>
        <pt x="95" y="-144" on="0"/>
        <pt x="148" y="-74" on="0"/>
        <pt x="148" y="-32" on="0"/>
        <pt x="122" y="-12" on="0"/>
        <pt x="92" y="-1" on="0"/>
        <pt x="66" y="31" on="0"/>
        <pt x="66" y="86" on="0"/>
        <pt x="111" y="130" on="0"/>
        <pt x="183" y="130" on="0"/>
        <pt x="233" y="75" on="0"/>
        <pt x="233" y="-22" on="0"/>
        <pt x="192" y="-125" on="0"/>
        <pt x="150" y="-180" on="0"/>
      </contour>
    </TTGlyph>
    <TTGlyph name="commaaccent" xMin="77" yMin="-355" xMax="244" yMax="-45">
      <contour>
        <pt x="154" y="-355" on="1"/>
        <pt x="133" y="-355" on="0"/>
        <pt x="106" y="-333" on="0"/>
        <pt x="106" y="-317" on="0"/>
        <pt x="119" y="-302" on="1"/>
        <pt x="159" y="-254" on="0"/>
        <pt x="159" y="-221" on="1"/>
        <pt x="159" y="-197" on="0"/>
        <pt x="118" y="-182" on="1"/>
        <pt x="103" y="-176" on="0"/>
        <pt x="77" y="-144" on="0"/>
        <pt x="77" y="-89" on="0"/>
        <pt x="122" y="-45" on="0"/>
        <pt x="194" y="-45" on="0"/>
        <pt x="244" y="-100" on="0"/>
        <pt x="244" y="-197" on="0"/>
        <pt x="203" y="-300" on="0"/>
        <pt x="161" y="-355" on="0"/>
      </contour>
    </TTGlyph>
    <TTGlyph name="copyright" xMin="66" yMin="-12" xMax="790" yMax="712">
      <contour>
        <pt x="66" y="196" on="0"/>
        <pt x="66" y="504" on="0"/>
        <pt x="274" y="712" on="0"/>
        <pt x="582" y="712" on="0"/>
        <pt x="790" y="504" on="0"/>
        <pt x="790" y="196" on="0"/>
        <pt x="582" y="-12" on="0"/>
        <pt x="274" y="-12" on="0"/>
      </contour>
      <contour>
        <pt x="132" y="479" on="0"/>
        <pt x="132" y="221" on="0"/>
        <pt x="300" y="48" on="0"/>
        <pt x="556" y="48" on="0"/>
        <pt x="724" y="221" on="0"/>
        <pt x="724" y="479" on="0"/>
        <pt x="556" y="652" on="0"/>
        <pt x="300" y="652" on="0"/>
      </contour>
      <contour>
        <pt x="489" y="572" on="0"/>
        <pt x="567" y="548" on="0"/>
        <pt x="567" y="529" on="0"/>
        <pt x="553" y="502" on="0"/>
        <pt x="549" y="501" on="1"/>
        <pt x="542" y="501" on="0"/>
        <pt x="524" y="507" on="0"/>
        <pt x="522" y="508" on="1"/>
        <pt x="492" y="515" on="0"/>
        <pt x="420" y="515" on="0"/>
        <pt x="372" y="494" on="0"/>
        <pt x="334" y="466" on="0"/>
        <pt x="294" y="397" on="0"/>
        <pt x="293" y="355" on="1"/>
        <pt x="293" y="291" on="0"/>
        <pt x="379" y="195" on="0"/>
        <pt x="461" y="189" on="1"/>
        <pt x="501" y="191" on="0"/>
        <pt x="566" y="207" on="0"/>
        <pt x="569" y="207" on="1"/>
        <pt x="582" y="203" on="0"/>
        <pt x="582" y="180" on="1"/>
        <pt x="582" y="164" on="0"/>
        <pt x="499" y="130" on="0"/>
        <pt x="450" y="128" on="1"/>
        <pt x="324" y="133" on="0"/>
        <pt x="254" y="222" on="1"/>
        <pt x="215" y="271" on="0"/>
        <pt x="215" y="339" on="1"/>
        <pt x="215" y="439" on="0"/>
        <pt x="357" y="572" on="0"/>
        <pt x="461" y="572" on="1"/>
      </contour>
    </TTGlyph>
    <TTGlyph name="currency" xMin="78" yMin="80" xMax="599" yMax="608">
      <contour>
        <pt x="160" y="464" on="1"/>
        <pt x="79" y="545" on="0"/>
        <pt x="79" y="570" on="1"/>
        <pt x="79" y="578" on="0"/>
        <pt x="87" y="585" on="0"/>
        <pt x="97" y="595" on="0"/>
        <pt x="99" y="598" on="1"/>
        <pt x="107" y="608" on="0"/>
        <pt x="115" y="608" on="1"/>
        <pt x="118" y="607" on="1"/>
        <pt x="125" y="607" on="0"/>
        <pt x="182" y="550" on="0"/>
        <pt x="214" y="519" on="1"/>
        <pt x="275" y="560" on="0"/>
        <pt x="371" y="560" on="1"/>
        <pt x="429" y="560" on="0"/>
        <pt x="476" y="531" on="1"/>
        <pt x="525" y="580" on="0"/>
        <pt x="553" y="607" on="0"/>
        <pt x="562" y="608" on="0"/>
        <pt x="563" y="608" on="1"/>
        <pt x="572" y="606" on="0"/>
        <pt x="581" y="595" on="0"/>
        <pt x="597" y="579" on="0"/>
        <pt x="597" y="572" on="1"/>
        <pt x="597" y="545" on="0"/>
        <pt x="532" y="479" on="1"/>
        <pt x="567" y="429" on="0"/>
        <pt x="567" y="272" on="0"/>
        <pt x="518" y="212" on="1"/>
        <pt x="527" y="203" on="0"/>
        <pt x="542" y="188" on="1"/>
        <pt x="575" y="156" on="0"/>
        <pt x="599" y="129" on="0"/>
        <pt x="599" y="110" on="0"/>
        <pt x="585" y="97" on="1"/>
        <pt x="568" y="80" on="0"/>
        <pt x="553" y="80" on="0"/>
        <pt x="546" y="84" on="1"/>
        <pt x="535" y="89" on="0"/>
        <pt x="506" y="117" on="0"/>
        <pt x="461" y="163" on="1"/>
        <pt x="406" y="130" on="0"/>
        <pt x="269" y="130" on="0"/>
        <pt x="217" y="165" on="1"/>
        <pt x="200" y="146" on="0"/>
        <pt x="175" y="123" on="0"/>
        <pt x="152" y="100" on="0"/>
        <pt x="138" y="88" on="0"/>
        <pt x="130" y="84" on="1"/>
        <pt x="114" y="77" on="0"/>
        <pt x="98" y="91" on="1"/>
        <pt x="78" y="111" on="0"/>
        <pt x="78" y="130" on="0"/>
        <pt x="88" y="141" on="1"/>
        <pt x="110" y="165" on="0"/>
        <pt x="163" y="218" on="1"/>
        <pt x="128" y="270" on="0"/>
        <pt x="128" y="414" on="0"/>
      </contour>
      <contour>
        <pt x="406" y="200" on="0"/>
        <pt x="483" y="287" on="0"/>
        <pt x="483" y="411" on="0"/>
        <pt x="416" y="495" on="0"/>
        <pt x="294" y="495" on="0"/>
        <pt x="213" y="420" on="0"/>
        <pt x="213" y="280" on="0"/>
        <pt x="288" y="200" on="0"/>
      </contour>
    </TTGlyph>
    <TTGlyph name="d" xMin="44" yMin="-12" xMax="491" yMax="737">
      <contour>
        <pt x="490" y="655" on="1"/>
        <pt x="491" y="256" on="1"/>
        <pt x="491" y="53" on="1"/>
        <pt x="491" y="44" on="0"/>
        <pt x="490" y="38" on="0"/>
        <pt x="489" y="24" on="0"/>
        <pt x="488" y="21" on="1"/>
        <pt x="484" y="9" on="0"/>
        <pt x="479" y="5" on="0"/>
        <pt x="476" y="3" on="1"/>
        <pt x="469" y="-1" on="0"/>
        <pt x="417" y="-1" on="0"/>
        <pt x="408" y="2" on="1"/>
        <pt x="406" y="7" on="0"/>
        <pt x="404" y="33" on="0"/>
        <pt x="403" y="37" on="1"/>
        <pt x="382" y="22" on="0"/>
        <pt x="289" y="-12" on="0"/>
        <pt x="252" y="-12" on="1"/>
        <pt x="159" y="-12" on="0"/>
        <pt x="44" y="114" on="0"/>
        <pt x="44" y="207" on="1"/>
        <pt x="44" y="336" on="0"/>
        <pt x="156" y="406" on="1"/>
        <pt x="211" y="444" on="0"/>
        <pt x="296" y="444" on="1"/>
        <pt x="319" y="444" on="0"/>
        <pt x="398" y="423" on="1"/>
        <pt x="399" y="467" on="1"/>
        <pt x="399" y="520" on="1"/>
        <pt x="399" y="632" on="0"/>
        <pt x="402" y="670" on="0"/>
        <pt x="402" y="706" on="0"/>
        <pt x="404" y="717" on="0"/>
        <pt x="408" y="725" on="1"/>
        <pt x="415" y="737" on="0"/>
        <pt x="465" y="737" on="0"/>
        <pt x="482" y="729" on="0"/>
        <pt x="486" y="718" on="1"/>
        <pt x="490" y="703" on="0"/>
        <pt x="490" y="681" on="1"/>
      </contour>
      <contour>
        <pt x="143" y="229" on="1"/>
        <pt x="143" y="148" on="0"/>
        <pt x="227" y="57" on="0"/>
        <pt x="299" y="57" on="1"/>
        <pt x="335" y="57" on="0"/>
        <pt x="359" y="64" on="1"/>
        <pt x="400" y="77" on="0"/>
        <pt x="400" y="100" on="1"/>
        <pt x="400" y="285" on="1"/>
        <pt x="400" y="351" on="0"/>
        <pt x="394" y="358" on="1"/>
        <pt x="388" y="368" on="0"/>
        <pt x="327" y="379" on="0"/>
        <pt x="297" y="379" on="1"/>
        <pt x="229" y="379" on="0"/>
        <pt x="145" y="295" on="0"/>
      </contour>
    </TTGlyph>
    <TTGlyph name="dagger" xMin="55" yMin="-262" xMax="595" yMax="714">
      <contour>
        <pt x="345" y="381" on="1"/>
        <pt x="351" y="318" on="0"/>
        <pt x="377" y="-201" on="0"/>
        <pt x="380" y="-226" on="1"/>
        <pt x="380" y="-248" on="0"/>
        <pt x="351" y="-262" on="0"/>
        <pt x="294" y="-262" on="0"/>
        <pt x="270" y="-250" on="0"/>
        <pt x="270" y="-232" on="1"/>
        <pt x="270" y="-226" on="1"/>
        <pt x="270" y="-208" on="0"/>
        <pt x="298" y="331" on="0"/>
        <pt x="303" y="381" on="1"/>
        <pt x="123" y="350" on="0"/>
        <pt x="70" y="350" on="0"/>
        <pt x="55" y="379" on="0"/>
        <pt x="55" y="435" on="0"/>
        <pt x="67" y="459" on="0"/>
        <pt x="85" y="459" on="1"/>
        <pt x="91" y="459" on="1"/>
        <pt x="191" y="447" on="0"/>
        <pt x="302" y="427" on="1"/>
        <pt x="277" y="581" on="0"/>
        <pt x="270" y="678" on="1"/>
        <pt x="270" y="684" on="1"/>
        <pt x="270" y="702" on="0"/>
        <pt x="294" y="714" on="0"/>
        <pt x="351" y="714" on="0"/>
        <pt x="380" y="700" on="0"/>
        <pt x="380" y="678" on="1"/>
        <pt x="347" y="427" on="1"/>
        <pt x="496" y="451" on="0"/>
        <pt x="559" y="459" on="1"/>
        <pt x="565" y="459" on="1"/>
        <pt x="583" y="459" on="0"/>
        <pt x="595" y="435" on="0"/>
        <pt x="595" y="379" on="0"/>
        <pt x="580" y="350" on="0"/>
        <pt x="523" y="350" on="0"/>
      </contour>
    </TTGlyph>
    <TTGlyph name="daggerdbl" xMin="55" yMin="-262" xMax="595" yMax="714">
      <contour>
        <pt x="345" y="71" on="1"/>
        <pt x="523" y="102" on="0"/>
        <pt x="580" y="102" on="0"/>
        <pt x="595" y="73" on="0"/>
        <pt x="595" y="17" on="0"/>
        <pt x="583" y="-7" on="0"/>
        <pt x="565" y="-7" on="1"/>
        <pt x="559" y="-7" on="1"/>
        <pt x="496" y="1" on="0"/>
        <pt x="347" y="25" on="1"/>
        <pt x="355" y="-25" on="0"/>
        <pt x="374" y="-177" on="1"/>
        <pt x="380" y="-226" on="1"/>
        <pt x="380" y="-248" on="0"/>
        <pt x="351" y="-262" on="0"/>
        <pt x="294" y="-262" on="0"/>
        <pt x="270" y="-250" on="0"/>
        <pt x="270" y="-232" on="1"/>
        <pt x="270" y="-226" on="1"/>
        <pt x="277" y="-129" on="0"/>
        <pt x="302" y="25" on="1"/>
        <pt x="191" y="5" on="0"/>
        <pt x="91" y="-7" on="1"/>
        <pt x="85" y="-7" on="1"/>
        <pt x="67" y="-7" on="0"/>
        <pt x="55" y="17" on="0"/>
        <pt x="55" y="73" on="0"/>
        <pt x="70" y="102" on="0"/>
        <pt x="123" y="102" on="0"/>
        <pt x="303" y="71" on="1"/>
        <pt x="293" y="164" on="0"/>
        <pt x="293" y="226" on="1"/>
        <pt x="303" y="381" on="1"/>
        <pt x="123" y="350" on="0"/>
        <pt x="70" y="350" on="0"/>
        <pt x="55" y="379" on="0"/>
        <pt x="55" y="435" on="0"/>
        <pt x="67" y="459" on="0"/>
        <pt x="85" y="459" on="1"/>
        <pt x="91" y="459" on="1"/>
        <pt x="191" y="447" on="0"/>
        <pt x="302" y="427" on="1"/>
        <pt x="277" y="581" on="0"/>
        <pt x="270" y="678" on="1"/>
        <pt x="270" y="684" on="1"/>
        <pt x="270" y="702" on="0"/>
        <pt x="294" y="714" on="0"/>
        <pt x="351" y="714" on="0"/>
        <pt x="380" y="700" on="0"/>
        <pt x="380" y="678" on="1"/>
        <pt x="347" y="427" on="1"/>
        <pt x="496" y="451" on="0"/>
        <pt x="559" y="459" on="1"/>
        <pt x="565" y="459" on="1"/>
        <pt x="583" y="459" on="0"/>
        <pt x="595" y="435" on="0"/>
        <pt x="595" y="379" on="0"/>
        <pt x="580" y="350" on="0"/>
        <pt x="523" y="350" on="0"/>
        <pt x="345" y="381" on="1"/>
        <pt x="355" y="278" on="0"/>
        <pt x="355" y="238" on="1"/>
        <pt x="355" y="171" on="0"/>
        <pt x="348" y="96" on="1"/>
      </contour>
    </TTGlyph>
    <TTGlyph name="degree" xMin="55" yMin="384" xMax="390" yMax="712">
      <contour>
        <pt x="390" y="555" on="1"/>
        <pt x="390" y="480" on="0"/>
        <pt x="290" y="384" on="0"/>
        <pt x="147" y="384" on="0"/>
        <pt x="55" y="473" on="0"/>
        <pt x="55" y="625" on="0"/>
        <pt x="150" y="712" on="0"/>
        <pt x="236" y="712" on="1"/>
        <pt x="285" y="712" on="0"/>
        <pt x="332" y="682" on="1"/>
        <pt x="358" y="665" on="0"/>
        <pt x="390" y="600" on="0"/>
      </contour>
      <contour>
        <pt x="265" y="448" on="0"/>
        <pt x="316" y="507" on="0"/>
        <pt x="316" y="595" on="0"/>
        <pt x="272" y="651" on="0"/>
        <pt x="187" y="651" on="0"/>
        <pt x="130" y="600" on="0"/>
        <pt x="130" y="503" on="0"/>
        <pt x="183" y="448" on="0"/>
      </contour>
    </TTGlyph>
    <TTGlyph name="dieresis" xMin="77" yMin="517" xMax="393" yMax="626">
      <contour>
        <pt x="77" y="591" on="0"/>
        <pt x="103" y="622" on="0"/>
        <pt x="130" y="626" on="0"/>
        <pt x="152" y="626" on="1"/>
        <pt x="193" y="626" on="0"/>
        <pt x="193" y="581" on="1"/>
        <pt x="193" y="517" on="0"/>
        <pt x="128" y="517" on="1"/>
        <pt x="106" y="517" on="0"/>
        <pt x="77" y="544" on="0"/>
      </contour>
      <contour>
        <pt x="277" y="590" on="0"/>
        <pt x="303" y="622" on="0"/>
        <pt x="331" y="626" on="0"/>
        <pt x="352" y="626" on="1"/>
        <pt x="393" y="626" on="0"/>
        <pt x="393" y="581" on="1"/>
        <pt x="393" y="517" on="0"/>
        <pt x="329" y="517" on="1"/>
        <pt x="306" y="517" on="0"/>
        <pt x="277" y="544" on="0"/>
      </contour>
    </TTGlyph>
    <TTGlyph name="dieresis.cap" xMin="77" yMin="785" xMax="393" yMax="894">
      <contour>
        <pt x="77" y="859" on="0"/>
        <pt x="103" y="890" on="0"/>
        <pt x="130" y="894" on="0"/>
        <pt x="152" y="894" on="1"/>
        <pt x="193" y="894" on="0"/>
        <pt x="193" y="849" on="1"/>
        <pt x="193" y="785" on="0"/>
        <pt x="128" y="785" on="1"/>
        <pt x="106" y="785" on="0"/>
        <pt x="77" y="812" on="0"/>
      </contour>
      <contour>
        <pt x="277" y="858" on="0"/>
        <pt x="303" y="890" on="0"/>
        <pt x="331" y="894" on="0"/>
        <pt x="352" y="894" on="1"/>
        <pt x="393" y="894" on="0"/>
        <pt x="393" y="849" on="1"/>
        <pt x="393" y="785" on="0"/>
        <pt x="329" y="785" on="1"/>
        <pt x="306" y="785" on="0"/>
        <pt x="277" y="812" on="0"/>
      </contour>
    </TTGlyph>
    <TTGlyph name="divide" xMin="67" yMin="73" xMax="514" yMax="584">
      <contour>
        <pt x="368" y="291" on="1"/>
        <pt x="203" y="290" on="1"/>
        <pt x="99" y="290" on="0"/>
        <pt x="67" y="300" on="0"/>
        <pt x="67" y="320" on="1"/>
        <pt x="67" y="356" on="0"/>
        <pt x="79" y="366" on="0"/>
        <pt x="98" y="366" on="1"/>
        <pt x="484" y="365" on="1"/>
        <pt x="503" y="365" on="0"/>
        <pt x="514" y="347" on="0"/>
        <pt x="514" y="302" on="0"/>
        <pt x="485" y="290" on="0"/>
        <pt x="454" y="290" on="1"/>
      </contour>
      <contour>
        <pt x="285" y="582" on="1"/>
        <pt x="301" y="584" on="0"/>
        <pt x="309" y="584" on="1"/>
        <pt x="373" y="584" on="0"/>
        <pt x="373" y="522" on="1"/>
        <pt x="373" y="486" on="0"/>
        <pt x="325" y="438" on="0"/>
        <pt x="289" y="438" on="1"/>
        <pt x="270" y="438" on="0"/>
        <pt x="211" y="477" on="0"/>
        <pt x="211" y="515" on="1"/>
        <pt x="211" y="538" on="0"/>
        <pt x="258" y="576" on="0"/>
      </contour>
      <contour>
        <pt x="285" y="217" on="1"/>
        <pt x="301" y="219" on="0"/>
        <pt x="309" y="219" on="1"/>
        <pt x="373" y="219" on="0"/>
        <pt x="373" y="157" on="1"/>
        <pt x="373" y="121" on="0"/>
        <pt x="325" y="73" on="0"/>
        <pt x="289" y="73" on="1"/>
        <pt x="270" y="73" on="0"/>
        <pt x="211" y="112" on="0"/>
        <pt x="211" y="150" on="1"/>
        <pt x="211" y="173" on="0"/>
        <pt x="258" y="211" on="0"/>
      </contour>
    </TTGlyph>
    <TTGlyph name="dollar" xMin="11" yMin="-170" xMax="421" yMax="827">
      <contour>
        <pt x="278" y="711" on="1"/>
        <pt x="301" y="712" on="1"/>
        <pt x="321" y="712" on="0"/>
        <pt x="388" y="703" on="0"/>
        <pt x="393" y="689" on="0"/>
        <pt x="393" y="671" on="0"/>
        <pt x="381" y="636" on="0"/>
        <pt x="370" y="631" on="1"/>
        <pt x="337" y="642" on="0"/>
        <pt x="244" y="642" on="0"/>
        <pt x="170" y="595" on="0"/>
        <pt x="170" y="508" on="0"/>
        <pt x="222" y="444" on="0"/>
        <pt x="296" y="391" on="0"/>
        <pt x="369" y="332" on="0"/>
        <pt x="421" y="244" on="0"/>
        <pt x="421" y="134" on="0"/>
        <pt x="330" y="24" on="0"/>
        <pt x="251" y="3" on="1"/>
        <pt x="246" y="-157" on="0"/>
        <pt x="235" y="-164" on="1"/>
        <pt x="224" y="-170" on="0"/>
        <pt x="214" y="-170" on="1"/>
        <pt x="182" y="-170" on="0"/>
        <pt x="178" y="-153" on="1"/>
        <pt x="177" y="-148" on="0"/>
        <pt x="177" y="-76" on="0"/>
        <pt x="178" y="-9" on="1"/>
        <pt x="154" y="-12" on="0"/>
        <pt x="114" y="-12" on="0"/>
        <pt x="88" y="-10" on="0"/>
        <pt x="66" y="-7" on="0"/>
        <pt x="46" y="-5" on="0"/>
        <pt x="35" y="-3" on="1"/>
        <pt x="11" y="1" on="0"/>
        <pt x="11" y="9" on="1"/>
        <pt x="11" y="62" on="0"/>
        <pt x="30" y="74" on="1"/>
        <pt x="71" y="61" on="0"/>
        <pt x="114" y="61" on="1"/>
        <pt x="322" y="61" on="0"/>
        <pt x="322" y="180" on="1"/>
        <pt x="322" y="242" on="0"/>
        <pt x="234" y="307" on="1"/>
        <pt x="197" y="334" on="0"/>
        <pt x="124" y="392" on="0"/>
        <pt x="72" y="479" on="0"/>
        <pt x="72" y="588" on="0"/>
        <pt x="147" y="675" on="0"/>
        <pt x="208" y="696" on="1"/>
        <pt x="213" y="820" on="0"/>
        <pt x="221" y="825" on="1"/>
        <pt x="227" y="827" on="0"/>
        <pt x="236" y="827" on="1"/>
        <pt x="273" y="827" on="0"/>
        <pt x="279" y="816" on="0"/>
        <pt x="279" y="752" on="0"/>
      </contour>
    </TTGlyph>
    <TTGlyph name="dotaccent" xMin="77" yMin="530" xMax="223" yMax="662">
      <contour>
        <pt x="77" y="600" on="1"/>
        <pt x="77" y="620" on="0"/>
        <pt x="127" y="662" on="0"/>
        <pt x="165" y="662" on="1"/>
        <pt x="223" y="662" on="0"/>
        <pt x="223" y="606" on="1"/>
        <pt x="223" y="573" on="0"/>
        <pt x="179" y="530" on="0"/>
        <pt x="130" y="530" on="0"/>
        <pt x="77" y="565" on="0"/>
      </contour>
    </TTGlyph>
    <TTGlyph name="dotaccentcmb" xMin="77" yMin="530" xMax="223" yMax="662">
      <contour>
        <pt x="77" y="600" on="1"/>
        <pt x="77" y="620" on="0"/>
        <pt x="127" y="662" on="0"/>
        <pt x="165" y="662" on="1"/>
        <pt x="223" y="662" on="0"/>
        <pt x="223" y="606" on="1"/>
        <pt x="223" y="573" on="0"/>
        <pt x="179" y="530" on="0"/>
        <pt x="130" y="530" on="0"/>
        <pt x="77" y="565" on="0"/>
      </contour>
    </TTGlyph>
    <TTGlyph name="dotlessi" xMin="77" yMin="-1" xMax="173" yMax="433">
      <contour>
        <pt x="170" y="217" on="1"/>
        <pt x="173" y="19" on="1"/>
        <pt x="173" y="7" on="0"/>
        <pt x="170" y="4" on="1"/>
        <pt x="160" y="-1" on="0"/>
        <pt x="96" y="-1" on="0"/>
        <pt x="81" y="8" on="0"/>
        <pt x="81" y="31" on="1"/>
        <pt x="77" y="214" on="1"/>
        <pt x="77" y="310" on="0"/>
        <pt x="78" y="336" on="1"/>
        <pt x="81" y="395" on="1"/>
        <pt x="81" y="423" on="0"/>
        <pt x="99" y="433" on="0"/>
        <pt x="150" y="433" on="0"/>
        <pt x="168" y="430" on="1"/>
        <pt x="170" y="386" on="0"/>
        <pt x="170" y="361" on="1"/>
      </contour>
    </TTGlyph>
    <TTGlyph name="e" xMin="44" yMin="-12" xMax="455" yMax="444">
      <contour>
        <pt x="420" y="247" on="1"/>
        <pt x="420" y="247" on="0"/>
        <pt x="191" y="246" on="1"/>
        <pt x="154" y="246" on="0"/>
        <pt x="148" y="240" on="1"/>
        <pt x="143" y="233" on="0"/>
        <pt x="143" y="217" on="1"/>
        <pt x="143" y="139" on="0"/>
        <pt x="232" y="56" on="0"/>
        <pt x="346" y="56" on="0"/>
        <pt x="378" y="71" on="1"/>
        <pt x="379" y="71" on="0"/>
        <pt x="417" y="97" on="0"/>
        <pt x="432" y="97" on="0"/>
        <pt x="440" y="85" on="0"/>
        <pt x="440" y="79" on="1"/>
        <pt x="440" y="41" on="0"/>
        <pt x="328" y="-12" on="0"/>
        <pt x="179" y="-12" on="0"/>
        <pt x="44" y="108" on="0"/>
        <pt x="44" y="312" on="0"/>
        <pt x="171" y="444" on="0"/>
        <pt x="278" y="444" on="1"/>
        <pt x="356" y="444" on="0"/>
        <pt x="404" y="398" on="1"/>
        <pt x="455" y="350" on="0"/>
        <pt x="455" y="282" on="1"/>
        <pt x="455" y="247" on="0"/>
      </contour>
      <contour>
        <pt x="160" y="296" on="1"/>
        <pt x="350" y="296" on="0"/>
        <pt x="380" y="298" on="1"/>
        <pt x="377" y="338" on="0"/>
        <pt x="322" y="390" on="0"/>
        <pt x="238" y="390" on="0"/>
        <pt x="165" y="331" on="0"/>
      </contour>
    </TTGlyph>
    <TTGlyph name="eacute" xMin="44" yMin="-12" xMax="455" yMax="665">
      <contour>
        <pt x="420" y="247" on="1"/>
        <pt x="420" y="247" on="0"/>
        <pt x="191" y="246" on="1"/>
        <pt x="154" y="246" on="0"/>
        <pt x="148" y="240" on="1"/>
        <pt x="143" y="233" on="0"/>
        <pt x="143" y="217" on="1"/>
        <pt x="143" y="139" on="0"/>
        <pt x="232" y="56" on="0"/>
        <pt x="346" y="56" on="0"/>
        <pt x="378" y="71" on="1"/>
        <pt x="379" y="71" on="0"/>
        <pt x="417" y="97" on="0"/>
        <pt x="432" y="97" on="0"/>
        <pt x="440" y="85" on="0"/>
        <pt x="440" y="79" on="1"/>
        <pt x="440" y="41" on="0"/>
        <pt x="328" y="-12" on="0"/>
        <pt x="179" y="-12" on="0"/>
        <pt x="44" y="108" on="0"/>
        <pt x="44" y="312" on="0"/>
        <pt x="171" y="444" on="0"/>
        <pt x="278" y="444" on="1"/>
        <pt x="356" y="444" on="0"/>
        <pt x="404" y="398" on="1"/>
        <pt x="455" y="350" on="0"/>
        <pt x="455" y="282" on="1"/>
        <pt x="455" y="247" on="0"/>
      </contour>
      <contour>
        <pt x="160" y="296" on="1"/>
        <pt x="350" y="296" on="0"/>
        <pt x="380" y="298" on="1"/>
        <pt x="377" y="338" on="0"/>
        <pt x="322" y="390" on="0"/>
        <pt x="238" y="390" on="0"/>
        <pt x="165" y="331" on="0"/>
      </contour>
      <contour>
        <pt x="369" y="600" on="0"/>
        <pt x="315" y="551" on="0"/>
        <pt x="236" y="510" on="0"/>
        <pt x="201" y="510" on="1"/>
        <pt x="190" y="510" on="0"/>
        <pt x="172" y="528" on="0"/>
        <pt x="170" y="544" on="0"/>
        <pt x="187" y="558" on="0"/>
        <pt x="218" y="578" on="0"/>
        <pt x="247" y="600" on="0"/>
        <pt x="283" y="643" on="0"/>
        <pt x="302" y="665" on="0"/>
        <pt x="330" y="665" on="0"/>
        <pt x="369" y="634" on="0"/>
      </contour>
    </TTGlyph>
    <TTGlyph name="ecircumflex" xMin="44" yMin="-12" xMax="455" yMax="658">
      <component glyphName="e" x="0" y="0" flags="0x1004"/>
      <component glyphName="circumflex" x="38" y="0" flags="0x1004"/>
    </TTGlyph>
    <TTGlyph name="edieresis" xMin="44" yMin="-12" xMax="455" yMax="626">
      <contour>
        <pt x="420" y="247" on="1"/>
        <pt x="420" y="247" on="0"/>
        <pt x="191" y="246" on="1"/>
        <pt x="154" y="246" on="0"/>
        <pt x="148" y="240" on="1"/>
        <pt x="143" y="233" on="0"/>
        <pt x="143" y="217" on="1"/>
        <pt x="143" y="139" on="0"/>
        <pt x="232" y="56" on="0"/>
        <pt x="346" y="56" on="0"/>
        <pt x="378" y="71" on="1"/>
        <pt x="379" y="71" on="0"/>
        <pt x="417" y="97" on="0"/>
        <pt x="432" y="97" on="0"/>
        <pt x="440" y="85" on="0"/>
        <pt x="440" y="79" on="1"/>
        <pt x="440" y="41" on="0"/>
        <pt x="328" y="-12" on="0"/>
        <pt x="179" y="-12" on="0"/>
        <pt x="44" y="108" on="0"/>
        <pt x="44" y="312" on="0"/>
        <pt x="171" y="444" on="0"/>
        <pt x="278" y="444" on="1"/>
        <pt x="356" y="444" on="0"/>
        <pt x="404" y="398" on="1"/>
        <pt x="455" y="350" on="0"/>
        <pt x="455" y="282" on="1"/>
        <pt x="455" y="247" on="0"/>
      </contour>
      <contour>
        <pt x="160" y="296" on="1"/>
        <pt x="350" y="296" on="0"/>
        <pt x="380" y="298" on="1"/>
        <pt x="377" y="338" on="0"/>
        <pt x="322" y="390" on="0"/>
        <pt x="238" y="390" on="0"/>
        <pt x="165" y="331" on="0"/>
      </contour>
      <contour>
        <pt x="112" y="591" on="0"/>
        <pt x="138" y="622" on="0"/>
        <pt x="165" y="626" on="0"/>
        <pt x="186" y="626" on="1"/>
        <pt x="228" y="626" on="0"/>
        <pt x="228" y="581" on="1"/>
        <pt x="228" y="517" on="0"/>
        <pt x="163" y="517" on="1"/>
        <pt x="141" y="517" on="0"/>
        <pt x="112" y="544" on="0"/>
      </contour>
      <contour>
        <pt x="312" y="590" on="0"/>
        <pt x="338" y="622" on="0"/>
        <pt x="366" y="626" on="0"/>
        <pt x="386" y="626" on="1"/>
        <pt x="428" y="626" on="0"/>
        <pt x="428" y="581" on="1"/>
        <pt x="428" y="517" on="0"/>
        <pt x="364" y="517" on="1"/>
        <pt x="341" y="517" on="0"/>
        <pt x="312" y="544" on="0"/>
      </contour>
    </TTGlyph>
    <TTGlyph name="egrave" xMin="44" yMin="-12" xMax="455" yMax="665">
      <component glyphName="e" x="0" y="0" flags="0x1004"/>
      <component glyphName="grave" x="83" y="0" flags="0x1004"/>
    </TTGlyph>
    <TTGlyph name="eight" xMin="66" yMin="-12" xMax="464" yMax="712">
      <contour>
        <pt x="173" y="-12" on="0"/>
        <pt x="66" y="83" on="0"/>
        <pt x="66" y="228" on="0"/>
        <pt x="132" y="321" on="0"/>
        <pt x="191" y="362" on="1"/>
        <pt x="145" y="396" on="0"/>
        <pt x="92" y="472" on="0"/>
        <pt x="82" y="541" on="1"/>
        <pt x="82" y="616" on="0"/>
        <pt x="198" y="710" on="0"/>
        <pt x="268" y="712" on="1"/>
        <pt x="346" y="712" on="0"/>
        <pt x="445" y="634" on="0"/>
        <pt x="445" y="562" on="1"/>
        <pt x="445" y="506" on="0"/>
        <pt x="380" y="413" on="0"/>
        <pt x="330" y="383" on="1"/>
        <pt x="334" y="380" on="0"/>
        <pt x="344" y="375" on="0"/>
        <pt x="349" y="372" on="1"/>
        <pt x="462" y="294" on="0"/>
        <pt x="464" y="186" on="1"/>
        <pt x="464" y="100" on="0"/>
        <pt x="345" y="-12" on="0"/>
      </contour>
      <contour>
        <pt x="243" y="324" on="1"/>
        <pt x="215" y="302" on="1"/>
        <pt x="154" y="249" on="0"/>
        <pt x="152" y="183" on="1"/>
        <pt x="153" y="121" on="0"/>
        <pt x="214" y="55" on="0"/>
        <pt x="314" y="55" on="0"/>
        <pt x="383" y="116" on="0"/>
        <pt x="383" y="159" on="1"/>
        <pt x="383" y="249" on="0"/>
      </contour>
      <contour>
        <pt x="280" y="419" on="1"/>
        <pt x="311" y="445" on="0"/>
        <pt x="337" y="470" on="0"/>
        <pt x="369" y="524" on="0"/>
        <pt x="369" y="594" on="0"/>
        <pt x="321" y="649" on="0"/>
        <pt x="232" y="649" on="0"/>
        <pt x="172" y="603" on="0"/>
        <pt x="172" y="525" on="0"/>
        <pt x="203" y="477" on="0"/>
        <pt x="267" y="421" on="0"/>
      </contour>
    </TTGlyph>
    <TTGlyph name="ellipsis" xMin="66" yMin="-14" xMax="814" yMax="132">
      <contour>
        <pt x="140" y="130" on="1"/>
        <pt x="156" y="132" on="0"/>
        <pt x="164" y="132" on="1"/>
        <pt x="228" y="132" on="0"/>
        <pt x="228" y="70" on="1"/>
        <pt x="228" y="34" on="0"/>
        <pt x="180" y="-14" on="0"/>
        <pt x="144" y="-14" on="1"/>
        <pt x="125" y="-14" on="0"/>
        <pt x="66" y="25" on="0"/>
        <pt x="66" y="63" on="1"/>
        <pt x="66" y="86" on="0"/>
        <pt x="113" y="124" on="0"/>
      </contour>
      <contour>
        <pt x="433" y="130" on="1"/>
        <pt x="449" y="132" on="0"/>
        <pt x="457" y="132" on="1"/>
        <pt x="521" y="132" on="0"/>
        <pt x="521" y="70" on="1"/>
        <pt x="521" y="34" on="0"/>
        <pt x="473" y="-14" on="0"/>
        <pt x="437" y="-14" on="1"/>
        <pt x="418" y="-14" on="0"/>
        <pt x="359" y="25" on="0"/>
        <pt x="359" y="63" on="1"/>
        <pt x="359" y="86" on="0"/>
        <pt x="406" y="124" on="0"/>
      </contour>
      <contour>
        <pt x="726" y="130" on="1"/>
        <pt x="742" y="132" on="0"/>
        <pt x="750" y="132" on="1"/>
        <pt x="814" y="132" on="0"/>
        <pt x="814" y="70" on="1"/>
        <pt x="814" y="34" on="0"/>
        <pt x="766" y="-14" on="0"/>
        <pt x="730" y="-14" on="1"/>
        <pt x="711" y="-14" on="0"/>
        <pt x="652" y="25" on="0"/>
        <pt x="652" y="63" on="1"/>
        <pt x="652" y="86" on="0"/>
        <pt x="699" y="124" on="0"/>
      </contour>
    </TTGlyph>
    <TTGlyph name="emdash" xMin="55" yMin="217" xMax="968" yMax="303">
      <contour>
        <pt x="858" y="301" on="1"/>
        <pt x="940" y="303" on="1"/>
        <pt x="965" y="303" on="0"/>
        <pt x="967" y="294" on="1"/>
        <pt x="968" y="292" on="0"/>
        <pt x="968" y="278" on="0"/>
        <pt x="958" y="223" on="0"/>
        <pt x="952" y="221" on="1"/>
        <pt x="941" y="217" on="0"/>
        <pt x="912" y="217" on="1"/>
        <pt x="515" y="218" on="1"/>
        <pt x="118" y="218" on="0"/>
        <pt x="71" y="218" on="1"/>
        <pt x="55" y="218" on="0"/>
        <pt x="55" y="261" on="1"/>
        <pt x="55" y="271" on="0"/>
        <pt x="58" y="300" on="0"/>
        <pt x="69" y="300" on="1"/>
      </contour>
    </TTGlyph>
    <TTGlyph name="endash" xMin="55" yMin="217" xMax="518" yMax="303">
      <contour>
        <pt x="408" y="301" on="1"/>
        <pt x="490" y="303" on="1"/>
        <pt x="515" y="303" on="0"/>
        <pt x="517" y="294" on="1"/>
        <pt x="518" y="292" on="0"/>
        <pt x="518" y="278" on="0"/>
        <pt x="508" y="223" on="0"/>
        <pt x="502" y="221" on="1"/>
        <pt x="491" y="217" on="0"/>
        <pt x="462" y="217" on="1"/>
        <pt x="290" y="218" on="1"/>
        <pt x="118" y="218" on="0"/>
        <pt x="71" y="218" on="1"/>
        <pt x="55" y="218" on="0"/>
        <pt x="55" y="261" on="1"/>
        <pt x="55" y="271" on="0"/>
        <pt x="58" y="300" on="0"/>
        <pt x="69" y="300" on="1"/>
      </contour>
    </TTGlyph>
    <TTGlyph name="equal" xMin="78" yMin="192" xMax="528" yMax="460">
      <contour>
        <pt x="248" y="195" on="1"/>
        <pt x="145" y="192" on="1"/>
        <pt x="98" y="192" on="1"/>
        <pt x="83" y="192" on="0"/>
        <pt x="83" y="195" on="1"/>
        <pt x="78" y="205" on="0"/>
        <pt x="78" y="255" on="0"/>
        <pt x="83" y="261" on="1"/>
        <pt x="89" y="271" on="0"/>
        <pt x="283" y="271" on="1"/>
        <pt x="484" y="268" on="1"/>
        <pt x="497" y="267" on="0"/>
        <pt x="510" y="265" on="0"/>
        <pt x="522" y="251" on="0"/>
        <pt x="522" y="214" on="0"/>
        <pt x="519" y="197" on="1"/>
        <pt x="453" y="194" on="0"/>
        <pt x="437" y="194" on="1"/>
        <pt x="385" y="194" on="0"/>
        <pt x="333" y="194" on="1"/>
        <pt x="258" y="195" on="1"/>
      </contour>
      <contour>
        <pt x="382" y="385" on="1"/>
        <pt x="217" y="384" on="1"/>
        <pt x="113" y="384" on="0"/>
        <pt x="81" y="394" on="0"/>
        <pt x="81" y="414" on="1"/>
        <pt x="81" y="450" on="0"/>
        <pt x="93" y="460" on="0"/>
        <pt x="112" y="460" on="1"/>
        <pt x="498" y="459" on="1"/>
        <pt x="517" y="459" on="0"/>
        <pt x="528" y="441" on="0"/>
        <pt x="528" y="396" on="0"/>
        <pt x="499" y="384" on="0"/>
        <pt x="468" y="384" on="1"/>
      </contour>
    </TTGlyph>
    <TTGlyph name="eth" xMin="44" yMin="-12" xMax="514" yMax="722">
      <contour>
        <pt x="199" y="505" on="0"/>
        <pt x="188" y="512" on="0"/>
        <pt x="170" y="544" on="0"/>
        <pt x="170" y="560" on="0"/>
        <pt x="217" y="588" on="0"/>
        <pt x="275" y="619" on="1"/>
        <pt x="250" y="647" on="0"/>
        <pt x="223" y="671" on="1"/>
        <pt x="220" y="674" on="0"/>
        <pt x="220" y="690" on="0"/>
        <pt x="253" y="722" on="0"/>
        <pt x="272" y="722" on="0"/>
        <pt x="277" y="719" on="1"/>
        <pt x="313" y="694" on="0"/>
        <pt x="346" y="659" on="1"/>
        <pt x="409" y="695" on="0"/>
        <pt x="442" y="712" on="0"/>
        <pt x="458" y="706" on="0"/>
        <pt x="471" y="681" on="0"/>
        <pt x="473" y="674" on="0"/>
        <pt x="474" y="668" on="0"/>
        <pt x="472" y="665" on="1"/>
        <pt x="469" y="658" on="0"/>
        <pt x="463" y="652" on="0"/>
        <pt x="460" y="648" on="0"/>
        <pt x="455" y="645" on="1"/>
        <pt x="440" y="636" on="0"/>
        <pt x="406" y="615" on="0"/>
        <pt x="392" y="607" on="1"/>
        <pt x="514" y="450" on="0"/>
        <pt x="514" y="271" on="1"/>
        <pt x="514" y="136" on="0"/>
        <pt x="386" y="-12" on="0"/>
        <pt x="267" y="-12" on="1"/>
        <pt x="171" y="-12" on="0"/>
        <pt x="44" y="112" on="0"/>
        <pt x="44" y="320" on="0"/>
        <pt x="176" y="444" on="0"/>
        <pt x="276" y="444" on="1"/>
        <pt x="337" y="444" on="0"/>
        <pt x="393" y="416" on="1"/>
        <pt x="368" y="492" on="0"/>
        <pt x="318" y="565" on="1"/>
        <pt x="316" y="563" on="0"/>
        <pt x="299" y="554" on="0"/>
        <pt x="245" y="524" on="0"/>
        <pt x="223" y="513" on="0"/>
      </contour>
      <contour>
        <pt x="227" y="375" on="0"/>
        <pt x="142" y="294" on="0"/>
        <pt x="142" y="147" on="0"/>
        <pt x="220" y="62" on="0"/>
        <pt x="277" y="62" on="1"/>
        <pt x="417" y="62" on="0"/>
        <pt x="417" y="278" on="1"/>
        <pt x="417" y="297" on="0"/>
        <pt x="413" y="333" on="1"/>
        <pt x="350" y="375" on="0"/>
      </contour>
    </TTGlyph>
    <TTGlyph name="exclam" xMin="66" yMin="-12" xMax="228" yMax="712">
      <contour>
        <pt x="142" y="225" on="1"/>
        <pt x="122" y="225" on="0"/>
        <pt x="118" y="274" on="1"/>
        <pt x="115" y="299" on="0"/>
        <pt x="106" y="388" on="1"/>
        <pt x="85" y="582" on="0"/>
        <pt x="85" y="641" on="1"/>
        <pt x="85" y="712" on="0"/>
        <pt x="154" y="712" on="1"/>
        <pt x="210" y="712" on="0"/>
        <pt x="210" y="634" on="1"/>
        <pt x="204" y="494" on="0"/>
        <pt x="166" y="256" on="0"/>
        <pt x="163" y="246" on="1"/>
        <pt x="157" y="225" on="0"/>
      </contour>
      <contour>
        <pt x="140" y="132" on="1"/>
        <pt x="156" y="134" on="0"/>
        <pt x="164" y="134" on="1"/>
        <pt x="228" y="134" on="0"/>
        <pt x="228" y="72" on="1"/>
        <pt x="228" y="36" on="0"/>
        <pt x="180" y="-12" on="0"/>
        <pt x="144" y="-12" on="1"/>
        <pt x="125" y="-12" on="0"/>
        <pt x="66" y="27" on="0"/>
        <pt x="66" y="65" on="1"/>
        <pt x="66" y="88" on="0"/>
        <pt x="113" y="126" on="0"/>
      </contour>
    </TTGlyph>
    <TTGlyph name="exclamdown" xMin="66" yMin="-280" xMax="228" yMax="444">
      <contour>
        <pt x="152" y="207" on="1"/>
        <pt x="172" y="207" on="0"/>
        <pt x="176" y="158" on="1"/>
        <pt x="179" y="133" on="0"/>
        <pt x="188" y="44" on="1"/>
        <pt x="209" y="-150" on="0"/>
        <pt x="209" y="-209" on="1"/>
        <pt x="209" y="-280" on="0"/>
        <pt x="140" y="-280" on="1"/>
        <pt x="84" y="-280" on="0"/>
        <pt x="84" y="-202" on="1"/>
        <pt x="90" y="-62" on="0"/>
        <pt x="128" y="176" on="0"/>
        <pt x="131" y="186" on="1"/>
        <pt x="137" y="207" on="0"/>
      </contour>
      <contour>
        <pt x="154" y="300" on="1"/>
        <pt x="138" y="298" on="0"/>
        <pt x="130" y="298" on="1"/>
        <pt x="66" y="298" on="0"/>
        <pt x="66" y="360" on="1"/>
        <pt x="66" y="396" on="0"/>
        <pt x="114" y="444" on="0"/>
        <pt x="150" y="444" on="1"/>
        <pt x="169" y="444" on="0"/>
        <pt x="228" y="405" on="0"/>
        <pt x="228" y="367" on="1"/>
        <pt x="228" y="344" on="0"/>
        <pt x="181" y="306" on="0"/>
      </contour>
    </TTGlyph>
</ttFont>
